<svg id="e7912122-4b18-4463-ade4-66060a0c0814" data-name="Layer 1" xmlns="http://www.w3.org/2000/svg" viewBox="0 0 1168.06 850.61">
  <g>
    <path d="M48.7,288.31l10,153L25.6,443.48,0,51.22,55.53,47.6q20.67-1.35,30,9T96,85.89l10.33,158.32q1.23,18.91-6.64,30.1T71.14,286.85Zm-1.89-28.94,15.36-1q13.58-.89,12.5-17.43L64.92,91.48Q64,77.31,50.41,78.19l-15.36,1Z" fill="#fff"/>
    <path d="M221.55,382.64q3.24,49.62-43.43,52.67-47.85,3.12-51.13-47.1L107.79,94q-1.62-24.81,9.92-38.91t34-15.57q22.44-1.47,35.74,11.31t14.91,37.59Zm-51.88-295q-1.2-18.3-16-17.35T140.09,89l19.55,299.51q1.16,17.71,15.92,16.76t13.61-18.69Z" fill="#fff"/>
    <path d="M238.26,429.6,212.66,37.34l55.53-3.62q20.67-1.35,29.94,8.72T308.66,72l8.21,125.83q1.69,26-18.08,32l.16,2.37q10.19,1.71,15.95,8.15t6.77,21.81l10.52,161.27-31.9,2.08L289.57,261.32q-1-14.76-14.55-13.88l-15.95,1,11.68,179ZM277,77.64q-.92-14.18-14.51-13.29l-15.36,1L257.34,221.9l15.36-1q13.57-.9,12.5-17.43Z" fill="#fff"/>
    <path d="M369.41,421,345.78,58.91l-30.13,2-2-30.13,93.93-6.13,2,30.13-30.72,2,23.63,362.13Z" fill="#fff"/>
    <path d="M445,416.11,419.42,23.85l33.08-2.16,23.63,362.13L519.26,381l2,30.12Z" fill="#fff"/>
    <path d="M600.38,406l-12.5-100.63-29,1.89,1.28,101.36-31.9,2.08.39-394,52-3.39,52.18,390.52ZM558.85,278.75l25.4-1.65L559.58,71.66l-2.37.15Z" fill="#fff"/>
    <path d="M701.39,399.38,650.16,87.1l-2.36.16q1,7,2,16.78t2,25.67q1,16,2.64,40.47t4,60.55l11.14,170.73-26.59,1.73L617.31,10.94l47.26-3.09,46.31,309.63,2.36-.15q-.59-8.86-1.66-21t-2.66-31.56q-1.57-19.47-3.75-48.41t-5-71.46L691.15,6.12,718.92,4.3l25.59,392.26Z" fill="#fff"/>
    <path d="M758.69,395.64,733.09,3.38l49-3.2q45.48-3,48.49,43.11L850.05,341q3.16,48.45-42.33,51.41ZM804,363q14.19-.93,12.83-21.6L797.69,47.81q-.69-10.64-5.08-14.2t-12.65-3l-12.41.81L789.26,364Z" fill="#fff"/>
    <path d="M75.26,695.45l10,153-33.08,2.16L26.57,458.35l55.53-3.62q20.67-1.35,30,9T122.57,493L132.9,651.35q1.23,18.92-6.64,30.09T97.71,694Zm-1.88-29,15.35-1q13.59-.88,12.51-17.43L91.49,498.61Q90.56,484.44,77,485.32l-15.36,1Z" fill="#fff"/>
    <path d="M248.12,789.77q3.24,49.62-43.43,52.67-47.85,3.12-51.13-47.09l-19.2-294.2q-1.62-24.81,9.92-38.91t34-15.56Q200.71,445.21,214,458t14.91,37.59Zm-51.88-295q-1.2-18.3-16-17.35t-13.61,18.69l19.55,299.51q1.15,17.73,15.92,16.76t13.61-18.69Z" fill="#fff"/>
    <path d="M309.24,562.71l-4.93-75.61q-.54-8.27-4.4-12.77c-2.56-3-6.61-4.31-12.12-3.95s-9.36,2.09-11.53,5.2a17,17,0,0,0-2.83,11.16l4.28,65.57q.78,11.84,1.83,18.87a118.58,118.58,0,0,0,2.24,11.72,27.1,27.1,0,0,0,3.18,7.8,42.55,42.55,0,0,0,5.17,6.48Q303,613,314.91,622.27A147.55,147.55,0,0,1,337.09,644a58.78,58.78,0,0,1,10.74,19.18q3,9.58,4.23,28.49l5.79,88.62q1.72,26.58-9,40T312.8,835.38q-26.6,1.74-39.31-11.37T259,784.31l-4.25-65,30.72-2,4.63,70.9q1.2,18.31,18.92,17.15,15.94-1,14.87-17.58l-5.24-80.34q-.81-12.41-1.91-20.05a94.89,94.89,0,0,0-2.62-12.88A29.8,29.8,0,0,0,310,665.6c-1.74-2.46-3.9-5.18-6.47-8.19a235.88,235.88,0,0,0-24.69-23.89,84.45,84.45,0,0,1-20.6-24.76q-5.4-9.74-9.06-25.22a194.64,194.64,0,0,1-4.8-32.61l-4-61.44q-1.35-20.67,9.32-34.43t34.89-15.32q24.82-1.62,37,12.12t13.68,36.78l4.7,72.07Z" fill="#fff"/>
    <path d="M396.56,828.14,372.93,466l-30.13,2-2-30.12,93.93-6.13,2,30.12-30.72,2L429.65,826Z" fill="#fff"/>
    <path d="M583.82,815.92,572,634.56q-.19-3-.87-13.29T569.54,597q-.9-13.86-1.61-29.26t-1.63-29.55Q565.37,524,565,513.4c-.27-7.11-.47-11.84-.63-14.2l-2.36.15-4.15,318.26-30.72,2-45.47-315-2.37.15c.24,3.54.59,7.58,1.09,12.09s1.13,11.4,1.94,20.64,1.73,21.94,2.78,38.08,2.46,37.62,4.2,64.39l11.84,181.36-28.95,1.89L446.57,431l51.4-3.36,37.55,293.59,2.36-.15-.92-296,50.8-3.32L613.36,814Z" fill="#fff"/>
    <path d="M717.75,759.12q3.24,49.64-43.43,52.67-47.85,3.12-51.13-47.09L604,470.51q-1.62-24.81,9.92-38.91t34-15.57q22.44-1.47,35.74,11.31t14.91,37.59Zm-51.89-295q-1.18-18.32-16-17.35t-13.61,18.68l19.54,299.51q1.15,17.73,15.93,16.76T685.37,763Z" fill="#fff"/>
    <path d="M734.46,806.09l-25.6-392.26,55.53-3.62q20.67-1.35,29.94,8.72t10.53,29.57l8.21,125.83q1.7,26-18.08,32l.15,2.36q10.2,1.71,16,8.16t6.76,21.8L828.39,800,796.49,802,785.77,637.81q-1-14.76-14.55-13.88l-16,1L767,804Zm38.73-352q-.93-14.19-14.51-13.29l-15.36,1,10.21,156.55,15.36-1q13.59-.89,12.51-17.42Z" fill="#fff"/>
    <path d="M865.61,797.53,842,435.4l-30.12,2-2-30.13,93.93-6.13,2,30.13-30.71,2,23.63,362.13Z" fill="#fff"/>
    <path d="M941.21,792.6,915.62,400.34l72.07-4.71,2,30.13-39.58,2.59,9.26,141.78,35.44-2.32,1.93,29.54-35.45,2.31,10.53,161.28,41.94-2.74,1.93,29.54Z" fill="#fff"/>
    <path d="M1138.52,779.72l-11.84-181.36q-.2-3-.86-13.29t-1.59-24.22q-.9-13.87-1.61-29.27T1121,502q-.93-14.17-1.32-24.83T1119,463l-2.37.15-4.14,318.27-30.72,2-45.48-315-2.36.15q.35,5.32,1.08,12.09t1.94,20.64q1.2,13.88,2.79,38.08t4.2,64.4l11.83,181.36L1026.87,787l-25.6-392.26,51.39-3.36L1090.21,685l2.37-.15-.93-296,50.81-3.32,25.6,392.26Z" fill="#fff"/>
  </g>
</svg>
