<svg id="Layer_1" data-name="Layer 1" xmlns="http://www.w3.org/2000/svg" viewBox="0 0 380.35 173.05"><defs><style>.cls-1{fill:#fff;}.cls-2{fill:#c1272d;}</style></defs><path class="cls-1" d="M54.84,42.77c0-8.41-3-17.07-9.84-22.35a20,20,0,0,0-22.13-2C16,22.24,10.63,29.5,7.61,36.62c-1.71,4-2.3,8.44-.42,12.54,1.72,3.74,5,6.56,8.25,9C29,68.11,46.8,70,60.06,80.57c6.41,5.08,11,11.83,11.69,20.12a41.88,41.88,0,0,1-.83,13.44c-1,4.06-3.07,7.56-6.83,9.57-6.73,3.58-15.63,2.55-22.51,0A36.12,36.12,0,0,1,24.1,109.81a35.34,35.34,0,0,1-2.7-5c-.78-1.76-3.37-.24-2.59,1.51,6.1,13.81,21.09,23.2,36.2,22.56a23.54,23.54,0,0,0,11.59-3.18,16.63,16.63,0,0,0,6.91-9.63,42.41,42.41,0,0,0,1.39-12.84A31.63,31.63,0,0,0,72,90.35C65,75.51,47.88,70,33.8,64.32c-7.69-3.09-16.08-6.76-21.67-13.1A12.39,12.39,0,0,1,9.24,46a12.07,12.07,0,0,1,.5-6.57A36.54,36.54,0,0,1,15.9,28.61c4.67-6,11.63-11.06,19.6-9.41C44,21,49.55,28.38,51.24,36.56a31.57,31.57,0,0,1,.6,6.21,1.5,1.5,0,0,0,3,0Z"/><path class="cls-1" d="M129.92,21.76q1.68,36.51,1.16,73.08-.15,10.44-.47,20.88c-.06,1.93,2.94,1.93,3,0q1.14-36.54.09-73.09-.3-10.44-.78-20.87c-.09-1.92-3.09-1.93-3,0Z"/><path class="cls-1" d="M153,18q-.66,39.53.23,79.07.25,11.19.63,22.37c.06,1.93,3.06,1.93,3,0Q155.51,80,155.73,40.39,155.79,29.2,156,18a1.5,1.5,0,0,0-3,0Z"/><path class="cls-1" d="M302.27,24.06q1.49,37.44,1,74.91-.14,10.59-.42,21.16c-.06,1.93,2.94,1.93,3,0q1-37.45.08-74.93-.27-10.58-.69-21.14c-.07-1.93-3.07-1.94-3,0Z"/><path class="cls-1" d="M315.28,20.23q-.57,40.39.2,80.79.22,11.48.56,22.94c.06,1.92,3.06,1.93,3,0q-1.17-40.39-1-80.79.06-11.47.22-22.94a1.5,1.5,0,0,0-3,0Z"/><path class="cls-1" d="M107.24,53.36l63.32-1.46c1.93,0,1.93-3,0-3l-63.32,1.46c-1.93,0-1.94,3,0,3Z"/><path class="cls-1" d="M209,127.42q-.84-41.42.64-82.82.42-11.73,1-23.43l-2.95.4A307,307,0,0,0,226.9,64.08q3.21,5.88,6.7,11.62a1.51,1.51,0,0,0,2.59,0A286.69,286.69,0,0,0,258.67,23h-2.89a723.1,723.1,0,0,1,8.42,78.38q.54,11.06.63,22.14a1.5,1.5,0,0,0,3,0,640.42,640.42,0,0,0-5.9-79q-1.49-11.19-3.26-22.33c-.25-1.55-2.49-1.29-2.89,0a282.72,282.72,0,0,1-22.18,52h2.59a301.05,301.05,0,0,1-25.54-53.42,1.51,1.51,0,0,0-3,.4q-2.13,41.36-2,82.8.06,11.73.3,23.45c0,1.93,3,1.93,3,0Z"/><path class="cls-1" d="M271.41,65.7c-.84,7.08.93,15.34,7.58,19.12a12.63,12.63,0,0,0,9.47,1.41,11.65,11.65,0,0,0,7.3-6.82c1.89-4.34,1.59-9.11,1.2-13.72-.16-1.91-3.16-1.92-3,0,.48,5.73,1.1,14.44-5.33,17.31-5.32,2.37-11.13-1.78-13.12-6.62a21.44,21.44,0,0,1-1.1-10.68,1.5,1.5,0,0,0-1.5-1.5,1.54,1.54,0,0,0-1.5,1.5Z"/><path class="cls-1" d="M327.28,75.18A71.2,71.2,0,0,0,337.4,75c2.53-.24,6.1-.23,8-2.22,2.22-2.3.78-5.61-1.54-7.17a18.7,18.7,0,0,0-8-2.66c-5.48-.67-10.84,1.78-12.65,7.25-1.69,5.14.54,10.47,4.77,13.6,5.47,4,12.83,3.39,18.56.26,1.69-.92.18-3.51-1.52-2.59-4,2.18-9,3.09-13.27,1.09-3.62-1.69-6.3-5.12-6.1-9.23a7.76,7.76,0,0,1,7.3-7.47,16,16,0,0,1,6.36.94c1.19.41,5.2,1.81,4.05,3.74-.45.75-1.72.9-2.49,1-1.42.25-2.86.39-4.3.51a70.55,70.55,0,0,1-9.31.15c-1.93-.1-1.92,2.9,0,3Z"/><path class="cls-1" d="M353.14,65c.44,6.52.57,13.06,1,19.58.13,1.9,3.05,1.94,3,0-.06-2.72,0-5.44.19-8.15.07-1.4.17-2.79.3-4.18a16,16,0,0,1,.66-3.89c.51-1.4,1.75-1.78,3.13-1.89a17.79,17.79,0,0,1,4.89,0c3,.59,4.38,3.15,4.88,5.94.72,4-.53,8.1,0,12.14a1.54,1.54,0,0,0,1.5,1.5,1.51,1.51,0,0,0,1.5-1.5c-.54-4.17.62-8.35,0-12.52-.51-3.32-2.23-6.6-5.45-8a14,14,0,0,0-6.06-.72,9.86,9.86,0,0,0-5,1.14c-2.9,1.88-2.87,6.1-3.11,9.18a106.6,106.6,0,0,0-.37,10.87h3c-.43-6.52-.56-13.06-1-19.58-.12-1.91-3.12-1.93-3,0Z"/><path class="cls-1" d="M102.93,68.7a9.88,9.88,0,0,0,.8,12,11,11,0,0,0,12.08,2.67,12.73,12.73,0,0,0,7.66-9.78c.63-4.3-1-9.12-5-11.27-5-2.66-10.78-.59-14.45,3.27-1.34,1.4.78,3.52,2.12,2.12,2.47-2.6,6-4.36,9.64-3.27,3.28,1,4.88,4.25,4.8,7.5A9.86,9.86,0,0,1,115.9,80a8.25,8.25,0,0,1-9-.45,6.89,6.89,0,0,1-1.35-9.35,1.51,1.51,0,0,0-.54-2,1.53,1.53,0,0,0-2,.53Z"/><path class="cls-1" d="M94.43,67c-2.17-4.1-6.9-5.69-11.29-4.87a14,14,0,0,0-9.55,7.19c-1.94,3.62-2.41,8.32-.29,12,2.23,3.85,7.07,5.31,11.25,5.61,4.68.33,10.32-2.35,10.11-7.75-.08-1.92-3.08-1.93-3,0,.13,3.4-3.51,4.84-6.37,4.78-3.07-.06-7.12-1-9.05-3.6s-1.62-6.1-.4-8.82a11.37,11.37,0,0,1,6.29-6c3.55-1.28,7.83-.55,9.71,3,.9,1.7,3.49.19,2.59-1.52Z"/><path class="cls-1" d="M60.28,141.45a70.05,70.05,0,0,1-.44,13,1.51,1.51,0,0,0,1.5,1.5,1.53,1.53,0,0,0,1.5-1.5,70.05,70.05,0,0,0,.44-13,1.54,1.54,0,0,0-1.5-1.5,1.51,1.51,0,0,0-1.5,1.5Z"/><path class="cls-1" d="M61.86,141.89l.49-.1c.17,0,.16,0,0,0l.25,0a6.19,6.19,0,0,1,.86,0c.15,0,.36,0,.09,0a2.73,2.73,0,0,1,.48.1,1.46,1.46,0,0,1,.46.15l-.17-.07a.7.7,0,0,1,.17.09,3.79,3.79,0,0,1,.34.2c.27.17-.19-.19,0,0l.28.28c.11.12.09.1,0-.08a.91.91,0,0,0,.11.16l.14.26c.07.14.06.11,0-.1a1.06,1.06,0,0,1,.06.19,2.29,2.29,0,0,0,.07.28c0-.24,0-.28,0-.11a1.76,1.76,0,0,1,0,.23c0,.18,0,.16,0-.05a1,1,0,0,1,0,.17.89.89,0,0,1-.12.39c.08-.18.09-.19,0,0l-.11.21-.18.3-.12.17,0,0a3.2,3.2,0,0,1-.25.27l-.26.26-.16.14.05,0a1.92,1.92,0,0,0-.26.17l-.36.22-.33.16c-.11,0-.07,0,.11-.05l-.2.07a5.71,5.71,0,0,1-.71.19l-.2,0H62a1.5,1.5,0,0,0,0,3,6.7,6.7,0,0,0,5.79-3.38,4.38,4.38,0,0,0,.21-4,4.72,4.72,0,0,0-2.45-2.29,7.23,7.23,0,0,0-4.46-.21,1.5,1.5,0,0,0,.8,2.89Z"/><path class="cls-1" d="M71.45,140.5l-.25,14.05c0,1.93,3,1.93,3,0l.25-14.05c0-1.93-3-1.93-3,0Z"/><path class="cls-1" d="M74.05,141.27c1.28.09,4.07.37,3.7,2.18s-2.59,2.24-4.12,2.4a1.52,1.52,0,0,0-1.06,2.56,80.17,80.17,0,0,0,7.06,6.1,1.5,1.5,0,0,0,2.05-.54,1.53,1.53,0,0,0-.54-2.05,76.45,76.45,0,0,1-6.45-5.63l-1.06,2.56c3.08-.32,6.61-1.56,7.1-5.09A4.34,4.34,0,0,0,79,139.67a8.88,8.88,0,0,0-4.9-1.4,1.51,1.51,0,0,0-1.5,1.5,1.54,1.54,0,0,0,1.5,1.5Z"/><path class="cls-1" d="M310.07,140.5l-.24,14.05c0,1.93,3,1.93,3,0l.24-14.05c0-1.93-3-1.93-3,0Z"/><path class="cls-1" d="M312.68,141.27c1.28.09,4.06.37,3.69,2.18s-2.59,2.24-4.11,2.4a1.52,1.52,0,0,0-1.06,2.56,80,80,0,0,0,7.05,6.1,1.51,1.51,0,0,0,2.06-.54,1.54,1.54,0,0,0-.54-2.05,73.43,73.43,0,0,1-6.45-5.63l-1.06,2.56c3.07-.32,6.61-1.56,7.09-5.09a4.34,4.34,0,0,0-1.78-4.09,8.85,8.85,0,0,0-4.89-1.4,1.51,1.51,0,0,0-1.5,1.5,1.53,1.53,0,0,0,1.5,1.5Z"/><path class="cls-1" d="M85.46,139.5l.13,15.32a1.5,1.5,0,0,0,3,0l-.13-15.32a1.5,1.5,0,0,0-3,0Z"/><path class="cls-1" d="M244.1,139.5l.13,15.32a1.5,1.5,0,0,0,3,0l-.13-15.32a1.5,1.5,0,0,0-3,0Z"/><path class="cls-1" d="M91.44,141.13a98.7,98.7,0,0,0,4.73,12.25,1.49,1.49,0,0,0,1.5.72A1.56,1.56,0,0,0,98.91,153l5.26-12.62a1.51,1.51,0,0,0-1-1.85,1.54,1.54,0,0,0-1.84,1L96,152.23l2.74-.36a90,90,0,0,1-4.42-11.54c-.57-1.84-3.47-1.05-2.9.8Z"/><path class="cls-1" d="M185.91,141.13a97.15,97.15,0,0,0,4.73,12.25,1.49,1.49,0,0,0,1.5.72,1.56,1.56,0,0,0,1.24-1.08l5.26-12.62a1.52,1.52,0,0,0-1-1.85,1.54,1.54,0,0,0-1.84,1l-5.26,12.63,2.74-.36a91.52,91.52,0,0,1-4.43-11.54c-.56-1.84-3.46-1.05-2.89.8Z"/><path class="cls-1" d="M107.2,153.16l4.15-14.24-2.74.35q3.69,8,6.6,16.24c.64,1.81,3.53,1,2.89-.8q-3-8.64-6.9-17c-.56-1.22-2.4-.79-2.74.36l-4.15,14.24a1.5,1.5,0,0,0,2.89.8Z"/><path class="cls-1" d="M107,149.59l7.14.24a1.51,1.51,0,0,0,1.5-1.5,1.53,1.53,0,0,0-1.5-1.5l-7.14-.24a1.5,1.5,0,0,0-1.5,1.5,1.52,1.52,0,0,0,1.5,1.5Z"/><path class="cls-1" d="M268.56,153.16l4.16-14.24-2.75.35q3.69,8,6.6,16.24c.64,1.81,3.54,1,2.89-.8q-3-8.64-6.9-17c-.56-1.22-2.4-.79-2.74.36l-4.15,14.24a1.5,1.5,0,0,0,2.89.8Z"/><path class="cls-1" d="M268.36,149.59l7.14.24a1.5,1.5,0,0,0,0-3l-7.14-.24a1.5,1.5,0,0,0-1.5,1.5,1.53,1.53,0,0,0,1.5,1.5Z"/><path class="cls-1" d="M129.8,138.22l-13.45.3c-1.92,0-1.93,3,0,3l13.45-.3c1.93,0,1.93-3,0-3Z"/><path class="cls-1" d="M122.84,140.52a70.94,70.94,0,0,0,.79,15.54,1.52,1.52,0,0,0,1.84,1.05,1.54,1.54,0,0,0,1-1.85,67.33,67.33,0,0,1-.68-14.74c.11-1.93-2.89-1.93-3,0Z"/><path class="cls-1" d="M240.18,138.22l-13.45.3c-1.92,0-1.93,3,0,3l13.45-.3c1.93,0,1.93-3,0-3Z"/><path class="cls-1" d="M233.22,140.52a70.94,70.94,0,0,0,.79,15.54,1.51,1.51,0,0,0,1.84,1.05,1.54,1.54,0,0,0,1.05-1.85,66.72,66.72,0,0,1-.68-14.74c.11-1.93-2.89-1.93-3,0Z"/><path class="cls-1" d="M132.09,141c0,1.95,0,3.91.14,5.86a32.84,32.84,0,0,0,.65,5.68,3.6,3.6,0,0,0,1.29,2.09,3.75,3.75,0,0,0,2.89.47c1.91-.27,3.82-.61,5.73-.92a1.51,1.51,0,0,0,1.05-1.84,1.52,1.52,0,0,0-1.84-1.05l-4.81.77-.95.15c-.27,0-.2.07-.35,0,0,0-.07-.24-.12-.42a7.45,7.45,0,0,1-.14-.8,66.17,66.17,0,0,1-.54-9.95c0-1.93-3-1.93-3,0Z"/><path class="cls-1" d="M135.76,147.63a36.89,36.89,0,0,0,8.05-.73,1.5,1.5,0,0,0,1-1.85,1.52,1.52,0,0,0-1.84-1c-.63.12-1.27.23-1.9.32s.29,0-.19,0l-.44,0-1,.1a33.74,33.74,0,0,1-3.76.12,1.5,1.5,0,0,0,0,3Z"/><path class="cls-1" d="M134.23,142.37l6.81-.86a1.63,1.63,0,0,0,1.06-.44,1.54,1.54,0,0,0,.44-1.06c0-.73-.67-1.6-1.5-1.5l-6.81.86a1.61,1.61,0,0,0-1.06.44,1.5,1.5,0,0,0-.44,1.06c0,.73.66,1.6,1.5,1.5Z"/><path class="cls-1" d="M199.24,141c0,1.95,0,3.91.14,5.86a32.84,32.84,0,0,0,.65,5.68,3.56,3.56,0,0,0,1.3,2.09,3.72,3.72,0,0,0,2.88.47c1.91-.27,3.82-.61,5.73-.92a1.5,1.5,0,0,0,1.05-1.84,1.52,1.52,0,0,0-1.84-1.05l-4.81.77-1,.15c-.27,0-.2.07-.34,0s-.08-.24-.13-.42-.1-.53-.14-.8a66.17,66.17,0,0,1-.54-9.95c0-1.93-3-1.93-3,0Z"/><path class="cls-1" d="M202.91,147.63a36.89,36.89,0,0,0,8.05-.73,1.52,1.52,0,0,0,1-1.85,1.53,1.53,0,0,0-1.85-1c-.63.12-1.26.23-1.9.32-.48.08.29,0-.19,0l-.44,0-1,.1a33.66,33.66,0,0,1-3.76.12,1.5,1.5,0,1,0,0,3Z"/><path class="cls-1" d="M201.38,142.37l6.81-.86a1.63,1.63,0,0,0,1.06-.44,1.54,1.54,0,0,0,.44-1.06c0-.73-.67-1.6-1.5-1.5l-6.81.86a1.63,1.63,0,0,0-1.06.44,1.5,1.5,0,0,0-.44,1.06c0,.73.67,1.6,1.5,1.5Z"/><path class="cls-1" d="M165.13,138.65l.73,15.06c.09,1.92,3.09,1.93,3,0l-.73-15.06c-.09-1.92-3.09-1.93-3,0Z"/><path class="cls-1" d="M175.53,152.81l-.06-13.07-2.79.76a80.62,80.62,0,0,0,9.58,14.09,1.51,1.51,0,0,0,2.56-1.06,137.5,137.5,0,0,1-.35-14.5c.06-1.93-2.94-1.93-3,0a137.5,137.5,0,0,0,.35,14.5l2.56-1.06A77.32,77.32,0,0,1,175.27,139a1.51,1.51,0,0,0-2.8.76l.06,13.07a1.5,1.5,0,0,0,3,0Z"/><path class="cls-1" d="M222.05,137.39c-2.59-1-5.76-1.2-7.88.9a4.5,4.5,0,0,0,.16,6.77,7.19,7.19,0,0,0,3.3,1.46,21.71,21.71,0,0,1,4.34.7c.68.28,1.5.93,1.52,1.58,0,.81-1,1.41-1.75,1.73a8.1,8.1,0,0,1-7.34-.53,1.5,1.5,0,0,0-1.51,2.59,11.26,11.26,0,0,0,7.79,1.37c2.42-.42,5.38-1.88,5.76-4.58.42-3-2.47-5-5.09-5.39a25.35,25.35,0,0,1-4-.62c-.78-.26-1.6-.77-1.71-1.56a1.77,1.77,0,0,1,.38-1.12,2.6,2.6,0,0,1,1-.81c1.33-.56,2.91-.08,4.18.4a1.5,1.5,0,1,0,.8-2.89Z"/><path class="cls-1" d="M263.29,139.42a8.57,8.57,0,0,0-13.57,7.38,8.66,8.66,0,0,0,5,7.34c2.79,1.29,7,1.18,8.59-1.92a7.3,7.3,0,0,0,.67-3.06,4.59,4.59,0,0,0-.58-2.88c-1.32-1.91-3.69-1.74-5.67-1.26s-1.09,3.35.79,2.89a4.82,4.82,0,0,1,1.88-.23c-.2,0,.42.17.27.1.07,0,.27.19.25.15a3.61,3.61,0,0,1,0,1.67,2.69,2.69,0,0,1-.41,1.41,3,3,0,0,1-2,.94,5.12,5.12,0,0,1-2.76-.65,5.62,5.62,0,0,1-3-4.59,5.59,5.59,0,0,1,9.06-4.7,1.51,1.51,0,0,0,2.05-.54,1.53,1.53,0,0,0-.54-2.05Z"/><path class="cls-1" d="M276.78,140.22l16.34.2c1.93,0,1.93-3,0-3l-16.34-.2a1.5,1.5,0,0,0,0,3Z"/><path class="cls-1" d="M283.31,139.92a115.41,115.41,0,0,0-.08,13.54,1.5,1.5,0,1,0,3,0,115.41,115.41,0,0,1,.08-13.54,1.5,1.5,0,0,0-3,0Z"/><path class="cls-1" d="M293.64,142.79c-1,3-1.83,6.6.6,9.16a7.35,7.35,0,0,0,4.06,1.93,13.51,13.51,0,0,0,4.86.31c3.18-.58,5-3.92,4.65-6.95a8.83,8.83,0,0,0-5.26-7.08,8.61,8.61,0,0,0-5.64-.7,5.26,5.26,0,0,0-3.69,3.41,1.52,1.52,0,0,0,1,1.85,1.54,1.54,0,0,0,1.85-1.05,2.24,2.24,0,0,1,1.7-1.34,5.46,5.46,0,0,1,3.23.43,6,6,0,0,1,3.73,4.29c.35,1.74-.37,3.85-2.2,4.2a8.53,8.53,0,0,1-3.1-.2,6.53,6.53,0,0,1-2.78-.91c-2-1.46-.84-4.57-.16-6.55a1.5,1.5,0,1,0-2.89-.8Z"/><path class="cls-2" d="M51.1,147.53q54.65,1.38,109.31,2,54.38.65,108.76.53,30.69,0,61.36-.35a1.5,1.5,0,0,0,0-3q-39-1.49-77.91-3.83t-77.81-5.56q-21.87-1.8-43.7-3.88c-1.92-.18-1.9,2.82,0,3q38.83,3.69,77.74,6.53t77.86,4.8q21.9,1.11,43.82,1.94v-3q-54.66.52-109.33.3-54.37-.22-108.76-1.19-30.68-.54-61.34-1.32c-1.93-.05-1.93,2.95,0,3Z"/><path class="cls-2" d="M329.66,117.51a10.41,10.41,0,0,1,5.23-5c.66-.28,1.81-.87,2.15,0a8.45,8.45,0,0,1,0,3.54,5.69,5.69,0,0,1-1.49,3.49c-.94,1-2,1.83-2.89,2.9-1.77,2.25-2.1,5.41.37,7.28a1.51,1.51,0,0,0,2.05-.54,1.53,1.53,0,0,0-.54-2c-.87-.66,0-2.2.43-2.79,1-1.23,2.29-2.11,3.27-3.33a8.67,8.67,0,0,0,1.75-4.52,14.63,14.63,0,0,0,0-4.23,3.71,3.71,0,0,0-2.4-3c-1.51-.5-3.15.15-4.51.79a13.15,13.15,0,0,0-6.07,6c-.86,1.72,1.73,3.25,2.59,1.52Z"/><path class="cls-2" d="M336.17,135.37a1.5,1.5,0,0,0,0-3,1.5,1.5,0,0,0,0,3Z"/><path class="cls-2" d="M346.33,126.31A4.24,4.24,0,0,1,351,123.2a5.67,5.67,0,0,1,3.08,1.43c.73.66,1.66,1.78,1.2,2.82s-2,1.94-2.85,2.66l-3.62,3-7.23,6c-1.49,1.23.64,3.35,2.12,2.13l7.1-5.87,3.61-3a18.27,18.27,0,0,0,3.05-2.77c1.75-2.32.73-5.27-1.26-7.07a8.46,8.46,0,0,0-7.16-2.19,7.13,7.13,0,0,0-5.57,5.19c-.46,1.87,2.43,2.67,2.89.8Z"/><path class="cls-2" d="M345.1,148.26a1.5,1.5,0,0,0,0-3,1.5,1.5,0,0,0,0,3Z"/></svg>