<svg id="Layer_1" data-name="Layer 1" xmlns="http://www.w3.org/2000/svg" viewBox="0 0 380.35 144.41"><defs><style>.cls-1{fill:#fff;}</style></defs><path class="cls-1" d="M54.84,42.57c0-8.41-3-17.07-9.84-22.35a20,20,0,0,0-22.13-2C16,22,10.63,29.3,7.61,36.42c-1.71,4-2.3,8.44-.42,12.54,1.72,3.74,5,6.56,8.25,9C29,67.91,46.8,69.84,60.06,80.37c6.41,5.08,11,11.83,11.69,20.12a41.88,41.88,0,0,1-.83,13.44c-1,4.06-3.07,7.56-6.83,9.57-6.73,3.59-15.63,2.55-22.51,0A36.06,36.06,0,0,1,24.1,109.61a34.27,34.27,0,0,1-2.7-5c-.78-1.76-3.37-.24-2.59,1.52,6.1,13.8,21.09,23.19,36.2,22.55a23.54,23.54,0,0,0,11.59-3.18,16.63,16.63,0,0,0,6.91-9.63A42.41,42.41,0,0,0,74.9,103,31.63,31.63,0,0,0,72,90.15c-7-14.84-24.15-20.35-38.23-26C26.11,61,17.72,57.36,12.13,51a12.39,12.39,0,0,1-2.89-5.23,12.07,12.07,0,0,1,.5-6.57A36.54,36.54,0,0,1,15.9,28.41C20.57,22.46,27.53,17.35,35.5,19c8.51,1.76,14,9.18,15.74,17.36a31.57,31.57,0,0,1,.6,6.21,1.5,1.5,0,0,0,3,0Z"/><path class="cls-1" d="M129.92,21.56q1.68,36.51,1.16,73.08-.15,10.44-.47,20.88c-.06,1.93,2.94,1.93,3,0q1.14-36.52.09-73.09-.3-10.44-.78-20.87c-.09-1.92-3.09-1.93-3,0Z"/><path class="cls-1" d="M153,17.82q-.66,39.53.23,79.07.25,11.19.63,22.37c.06,1.93,3.06,1.94,3,0q-1.34-39.51-1.11-79.06.06-11.19.25-22.38a1.5,1.5,0,0,0-3,0Z"/><path class="cls-1" d="M302.27,23.86q1.49,37.44,1,74.92-.14,10.57-.42,21.15c-.06,1.93,2.94,1.93,3,0q1-37.46.08-74.93-.27-10.57-.69-21.14c-.07-1.93-3.07-1.94-3,0Z"/><path class="cls-1" d="M315.28,20q-.57,40.39.2,80.79.22,11.48.56,22.94c.06,1.92,3.06,1.93,3,0q-1.17-40.38-1-80.79.06-11.47.22-22.94c0-1.93-3-1.93-3,0Z"/><path class="cls-1" d="M107.24,53.17l63.32-1.47c1.93-.05,1.93-3.05,0-3l-63.32,1.47c-1.93,0-1.94,3,0,3Z"/><path class="cls-1" d="M209,127.22q-.84-41.41.64-82.82.42-11.71,1-23.43l-2.95.4A305.94,305.94,0,0,0,226.9,63.88q3.21,5.88,6.7,11.63a1.52,1.52,0,0,0,2.59,0A286.78,286.78,0,0,0,258.67,22.8h-2.89a723.37,723.37,0,0,1,8.42,78.38q.54,11.05.63,22.14a1.5,1.5,0,0,0,3,0,640.42,640.42,0,0,0-5.9-79Q260.45,33.14,258.67,22c-.25-1.55-2.49-1.29-2.89,0A282.72,282.72,0,0,1,233.6,74h2.59a301.05,301.05,0,0,1-25.54-53.42,1.51,1.51,0,0,0-3,.4q-2.13,41.36-2,82.8.06,11.73.3,23.45c0,1.93,3,1.94,3,0Z"/><path class="cls-1" d="M271.41,65.5c-.84,7.08.93,15.34,7.58,19.13a12.63,12.63,0,0,0,9.47,1.4,11.65,11.65,0,0,0,7.3-6.82c1.89-4.34,1.59-9.11,1.2-13.71-.16-1.91-3.16-1.93-3,0,.48,5.72,1.1,14.43-5.33,17.3-5.32,2.37-11.13-1.77-13.12-6.62a21.44,21.44,0,0,1-1.1-10.68,1.5,1.5,0,0,0-1.5-1.5,1.54,1.54,0,0,0-1.5,1.5Z"/><path class="cls-1" d="M327.28,75a71.2,71.2,0,0,0,10.12-.22c2.53-.24,6.1-.23,8-2.22,2.22-2.3.78-5.61-1.54-7.17a18.83,18.83,0,0,0-8-2.66C330.4,62,325,64.49,323.23,70c-1.69,5.14.54,10.47,4.77,13.6,5.47,4,12.83,3.39,18.56.27,1.69-.93.18-3.52-1.52-2.59-4,2.17-9,3.08-13.27,1.08-3.62-1.69-6.3-5.12-6.1-9.23a7.76,7.76,0,0,1,7.3-7.47,15.83,15.83,0,0,1,6.36.95c1.19.4,5.2,1.8,4.05,3.73-.45.75-1.72.9-2.49,1-1.42.24-2.86.38-4.3.5a70.55,70.55,0,0,1-9.31.15c-1.93-.1-1.92,2.9,0,3Z"/><path class="cls-1" d="M353.14,64.79c.44,6.52.57,13.06,1,19.58.13,1.9,3.05,1.95,3,0-.06-2.72,0-5.44.19-8.15.07-1.4.17-2.79.3-4.18a16,16,0,0,1,.66-3.89c.51-1.4,1.75-1.78,3.13-1.89a17.79,17.79,0,0,1,4.89,0c3,.58,4.38,3.14,4.88,5.93.72,4-.53,8.11,0,12.14a1.54,1.54,0,0,0,1.5,1.5,1.51,1.51,0,0,0,1.5-1.5c-.54-4.17.62-8.35,0-12.52-.51-3.32-2.23-6.6-5.45-7.95a14,14,0,0,0-6.06-.72,10,10,0,0,0-5,1.14c-2.9,1.89-2.87,6.1-3.11,9.18a106.6,106.6,0,0,0-.37,10.87h3c-.43-6.52-.56-13.06-1-19.58-.12-1.91-3.12-1.93-3,0Z"/><path class="cls-1" d="M102.93,68.51a9.89,9.89,0,0,0,.8,12,11,11,0,0,0,12.08,2.67,12.76,12.76,0,0,0,7.66-9.79c.63-4.3-1-9.12-5-11.26-5-2.67-10.78-.6-14.45,3.26-1.34,1.4.78,3.52,2.12,2.12,2.47-2.6,6-4.36,9.64-3.27,3.28,1,4.88,4.25,4.8,7.5a9.86,9.86,0,0,1-4.72,8.07,8.24,8.24,0,0,1-9-.45A6.89,6.89,0,0,1,105.52,70a1.51,1.51,0,0,0-.54-2,1.52,1.52,0,0,0-2,.54Z"/><path class="cls-1" d="M94.43,66.75c-2.17-4.09-6.9-5.69-11.29-4.87a14,14,0,0,0-9.55,7.19c-1.94,3.62-2.41,8.32-.29,12,2.23,3.85,7.07,5.31,11.25,5.61,4.68.33,10.32-2.34,10.11-7.75-.08-1.92-3.08-1.93-3,0,.13,3.4-3.51,4.84-6.37,4.78-3.07-.06-7.12-1-9.05-3.6s-1.62-6.1-.4-8.82a11.37,11.37,0,0,1,6.29-6c3.55-1.28,7.83-.55,9.71,3,.9,1.71,3.49.19,2.59-1.52Z"/></svg>