<svg id="Layer_1" data-name="Layer 1" xmlns="http://www.w3.org/2000/svg" viewBox="0 0 380.35 173.05"><defs><style>.cls-1{fill:#fff;}.cls-2{fill:#c1272d;}</style></defs><path class="cls-1" d="M54.84,35.59c0-8.4-3-17.07-9.84-22.35a20,20,0,0,0-22.13-2C16,15.06,10.63,22.32,7.61,29.44,5.9,33.49,5.31,37.88,7.19,42c1.72,3.75,5,6.57,8.25,9C29,60.93,46.8,62.87,60.06,73.39c6.41,5.08,11,11.83,11.69,20.12A41.86,41.86,0,0,1,70.92,107c-1,4.06-3.07,7.56-6.83,9.57-6.73,3.59-15.63,2.55-22.51,0A36.12,36.12,0,0,1,24.1,102.64a34.91,34.91,0,0,1-2.7-5c-.78-1.76-3.37-.23-2.59,1.52C24.91,113,39.9,122.35,55,121.71a23.44,23.44,0,0,0,11.59-3.18,16.64,16.64,0,0,0,6.91-9.62A42.48,42.48,0,0,0,74.9,96.06,31.67,31.67,0,0,0,72,83.17c-7-14.84-24.15-20.35-38.23-26C26.11,54.05,17.72,50.39,12.13,44a12.41,12.41,0,0,1-2.89-5.22,12.1,12.1,0,0,1,.5-6.58,36.49,36.49,0,0,1,6.16-10.8c4.67-6,11.63-11.07,19.6-9.42,8.51,1.77,14,9.18,15.74,17.37a31.4,31.4,0,0,1,.6,6.2,1.5,1.5,0,0,0,3,0Z"/><path class="cls-1" d="M129.92,14.59q1.68,36.51,1.16,73.07-.15,10.44-.47,20.88c-.06,1.93,2.94,1.93,3,0q1.14-36.53.09-73.08-.3-10.44-.78-20.87c-.09-1.93-3.09-1.94-3,0Z"/><path class="cls-1" d="M153,10.84q-.66,39.54.23,79.07.25,11.19.63,22.37c.06,1.93,3.06,1.94,3,0q-1.34-39.51-1.11-79.06.06-11.19.25-22.38c0-1.93-3-1.93-3,0Z"/><path class="cls-1" d="M302.27,16.88q1.49,37.44,1,74.92-.14,10.58-.42,21.15c-.06,1.94,2.94,1.93,3,0q1-37.44.08-74.92-.27-10.58-.69-21.15c-.07-1.92-3.07-1.93-3,0Z"/><path class="cls-1" d="M315.28,13.05q-.57,40.39.2,80.8.22,11.46.56,22.93c.06,1.93,3.06,1.93,3,0q-1.17-40.38-1-80.79.06-11.46.22-22.94c0-1.93-3-1.93-3,0Z"/><path class="cls-1" d="M107.24,46.19l63.32-1.47c1.93,0,1.93-3,0-3l-63.32,1.47c-1.93,0-1.94,3,0,3Z"/><path class="cls-1" d="M209,120.24q-.84-41.4.64-82.82.42-11.72,1-23.43l-2.95.4A305.94,305.94,0,0,0,226.9,56.9q3.21,5.88,6.7,11.63a1.52,1.52,0,0,0,2.59,0,286.69,286.69,0,0,0,22.48-52.7h-2.89A723.18,723.18,0,0,1,264.2,94.2q.54,11.07.63,22.14a1.5,1.5,0,0,0,3,0,640.56,640.56,0,0,0-5.9-79Q260.45,26.17,258.67,15c-.25-1.56-2.49-1.29-2.89,0A282.92,282.92,0,0,1,233.6,67h2.59a301.05,301.05,0,0,1-25.54-53.42,1.51,1.51,0,0,0-3,.4q-2.13,41.37-2,82.8.06,11.73.3,23.45c0,1.93,3,1.94,3,0Z"/><path class="cls-1" d="M271.41,58.52c-.84,7.08.93,15.34,7.58,19.13a12.58,12.58,0,0,0,9.47,1.4,11.62,11.62,0,0,0,7.3-6.82c1.89-4.34,1.59-9.1,1.2-13.71-.16-1.91-3.16-1.93-3,0,.48,5.73,1.1,14.43-5.33,17.3-5.32,2.37-11.13-1.77-13.12-6.62a21.43,21.43,0,0,1-1.1-10.68,1.5,1.5,0,0,0-1.5-1.5,1.54,1.54,0,0,0-1.5,1.5Z"/><path class="cls-1" d="M327.28,68a69.75,69.75,0,0,0,10.12-.22c2.53-.24,6.1-.23,8-2.21,2.22-2.31.78-5.61-1.54-7.17a18.71,18.71,0,0,0-8-2.67C330.4,55.07,325,57.52,323.23,63c-1.69,5.15.54,10.47,4.77,13.61,5.47,4,12.83,3.38,18.56.26,1.69-.93.18-3.52-1.52-2.59-4,2.18-9,3.08-13.27,1.08-3.62-1.69-6.3-5.12-6.1-9.23a7.76,7.76,0,0,1,7.3-7.47,16,16,0,0,1,6.36,1c1.19.4,5.2,1.8,4.05,3.73-.45.75-1.72.9-2.49,1-1.42.24-2.86.38-4.3.5a70.55,70.55,0,0,1-9.31.15c-1.93-.09-1.92,2.91,0,3Z"/><path class="cls-1" d="M353.14,57.82c.44,6.52.57,13.05,1,19.57.13,1.91,3.05,2,3,0-.06-2.72,0-5.44.19-8.15.07-1.39.17-2.79.3-4.18a15.92,15.92,0,0,1,.66-3.88c.51-1.41,1.75-1.78,3.13-1.9a17.79,17.79,0,0,1,4.89,0c3,.58,4.38,3.15,4.88,5.94.72,4-.53,8.1,0,12.13a1.54,1.54,0,0,0,1.5,1.5,1.51,1.51,0,0,0,1.5-1.5c-.54-4.17.62-8.35,0-12.51-.51-3.32-2.23-6.6-5.45-8a13.82,13.82,0,0,0-6.06-.71,9.86,9.86,0,0,0-5,1.14c-2.9,1.88-2.87,6.09-3.11,9.17a106.6,106.6,0,0,0-.37,10.87h3c-.43-6.52-.56-13-1-19.57-.12-1.92-3.12-1.93-3,0Z"/><path class="cls-1" d="M102.93,61.53a9.88,9.88,0,0,0,.8,12,11,11,0,0,0,12.08,2.67,12.75,12.75,0,0,0,7.66-9.79c.63-4.3-1-9.12-5-11.26-5-2.67-10.78-.6-14.45,3.26-1.34,1.4.78,3.53,2.12,2.12,2.47-2.59,6-4.35,9.64-3.27,3.28,1,4.88,4.26,4.8,7.5a9.86,9.86,0,0,1-4.72,8.07,8.23,8.23,0,0,1-9-.44A6.9,6.9,0,0,1,105.52,63a1.51,1.51,0,0,0-.54-2,1.52,1.52,0,0,0-2,.54Z"/><path class="cls-1" d="M94.43,59.78c-2.17-4.1-6.9-5.7-11.29-4.88a14.1,14.1,0,0,0-9.55,7.19c-1.94,3.63-2.41,8.33-.29,12,2.23,3.85,7.07,5.31,11.25,5.61,4.68.34,10.32-2.34,10.11-7.74-.08-1.93-3.08-1.94-3,0,.13,3.4-3.51,4.83-6.37,4.78-3.07-.06-7.12-1-9.05-3.61s-1.62-6.1-.4-8.81a11.34,11.34,0,0,1,6.29-6c3.55-1.29,7.83-.56,9.71,3,.9,1.71,3.49.19,2.59-1.51Z"/><path class="cls-1" d="M60.28,134.28a70.08,70.08,0,0,1-.44,13,1.52,1.52,0,0,0,1.5,1.5,1.54,1.54,0,0,0,1.5-1.5,70.08,70.08,0,0,0,.44-13,1.54,1.54,0,0,0-1.5-1.5,1.51,1.51,0,0,0-1.5,1.5Z"/><path class="cls-1" d="M61.86,134.72l.49-.1c.17,0,.16,0,0,0l.25,0a5,5,0,0,1,.86,0c.15,0,.36,0,.09,0a4.1,4.1,0,0,1,.48.1,1.77,1.77,0,0,1,.46.15l-.17-.07.17.09a3.87,3.87,0,0,1,.34.21c.27.16-.19-.2,0,0l.28.27c.11.13.09.1,0-.07l.11.16.14.25q.1.22,0-.09a1.27,1.27,0,0,1,.06.18,2.29,2.29,0,0,0,.07.28c0-.24,0-.27,0-.11a1.92,1.92,0,0,1,0,.24c0,.17,0,.15,0-.06a4.32,4.32,0,0,1-.16.56c.08-.17.09-.19,0,0l-.11.21-.18.3-.12.17c.13-.16.14-.18,0-.06a3.33,3.33,0,0,1-.25.28,3.07,3.07,0,0,1-.26.25l-.16.14.05,0a1.35,1.35,0,0,0-.26.18l-.36.21-.33.16.11-.05-.2.07a4.38,4.38,0,0,1-.71.19l-.2,0c.22,0,.25,0,.08,0l-.42,0a1.51,1.51,0,0,0-1.5,1.5,1.53,1.53,0,0,0,1.5,1.5,6.72,6.72,0,0,0,5.79-3.38,4.4,4.4,0,0,0,.21-4A4.72,4.72,0,0,0,65.52,132a7.3,7.3,0,0,0-4.46-.21,1.52,1.52,0,0,0-1,1.85,1.54,1.54,0,0,0,1.84,1.05Z"/><path class="cls-1" d="M71.45,133.33l-.25,14c0,1.93,3,1.93,3,0l.25-14c0-1.93-3-1.93-3,0Z"/><path class="cls-1" d="M74.05,134.09c1.28.1,4.07.37,3.7,2.19s-2.59,2.24-4.12,2.4a1.52,1.52,0,0,0-1.06,2.56,83.66,83.66,0,0,0,7.06,6.1,1.5,1.5,0,1,0,1.51-2.59,78.29,78.29,0,0,1-6.45-5.63l-1.06,2.56c3.08-.33,6.61-1.56,7.1-5.09a4.36,4.36,0,0,0-1.78-4.1,8.88,8.88,0,0,0-4.9-1.4,1.51,1.51,0,0,0-1.5,1.5,1.53,1.53,0,0,0,1.5,1.5Z"/><path class="cls-1" d="M310.07,133.33l-.24,14c0,1.93,3,1.93,3,0l.24-14c0-1.93-3-1.93-3,0Z"/><path class="cls-1" d="M312.68,134.09c1.28.1,4.06.37,3.69,2.19s-2.59,2.24-4.11,2.4a1.52,1.52,0,0,0-1.06,2.56,83.53,83.53,0,0,0,7.05,6.1,1.5,1.5,0,1,0,1.52-2.59,75.13,75.13,0,0,1-6.45-5.63l-1.06,2.56c3.07-.33,6.61-1.56,7.09-5.09a4.36,4.36,0,0,0-1.78-4.1,8.85,8.85,0,0,0-4.89-1.4,1.5,1.5,0,0,0,0,3Z"/><path class="cls-1" d="M85.46,132.32l.13,15.32a1.5,1.5,0,0,0,3,0l-.13-15.32a1.5,1.5,0,0,0-3,0Z"/><path class="cls-1" d="M244.1,132.32l.13,15.32a1.5,1.5,0,0,0,3,0l-.13-15.32a1.5,1.5,0,0,0-3,0Z"/><path class="cls-1" d="M91.44,134a99.45,99.45,0,0,0,4.73,12.26,1.49,1.49,0,0,0,1.5.71,1.53,1.53,0,0,0,1.24-1.07l5.26-12.63a1.5,1.5,0,0,0-1-1.84,1.53,1.53,0,0,0-1.84,1.05L96,145.05l2.74-.36a89.83,89.83,0,0,1-4.42-11.53c-.57-1.84-3.47-1.06-2.9.79Z"/><path class="cls-1" d="M185.91,134a97.88,97.88,0,0,0,4.73,12.26,1.49,1.49,0,0,0,1.5.71,1.53,1.53,0,0,0,1.24-1.07l5.26-12.63a1.51,1.51,0,0,0-1-1.84,1.53,1.53,0,0,0-1.84,1.05l-5.26,12.62,2.74-.36a91.38,91.38,0,0,1-4.43-11.53c-.56-1.84-3.46-1.06-2.89.79Z"/><path class="cls-1" d="M107.2,146l4.15-14.24-2.74.36q3.69,8,6.6,16.23c.64,1.81,3.53,1,2.89-.8q-3-8.62-6.9-16.95c-.56-1.22-2.4-.79-2.74.36l-4.15,14.24a1.5,1.5,0,0,0,2.89.8Z"/><path class="cls-1" d="M107,142.41l7.14.24a1.5,1.5,0,0,0,1.5-1.5,1.54,1.54,0,0,0-1.5-1.5l-7.14-.24a1.5,1.5,0,0,0,0,3Z"/><path class="cls-1" d="M268.56,146l4.16-14.24-2.75.36q3.69,8,6.6,16.23c.64,1.81,3.54,1,2.89-.8q-3-8.62-6.9-16.95c-.56-1.22-2.4-.79-2.74.36l-4.15,14.24a1.5,1.5,0,0,0,2.89.8Z"/><path class="cls-1" d="M268.36,142.41l7.14.24a1.5,1.5,0,0,0,1.5-1.5,1.53,1.53,0,0,0-1.5-1.5l-7.14-.24a1.5,1.5,0,0,0-1.5,1.5,1.52,1.52,0,0,0,1.5,1.5Z"/><path class="cls-1" d="M129.8,131.05l-13.45.29c-1.92,0-1.93,3,0,3l13.45-.29c1.93-.05,1.93-3.05,0-3Z"/><path class="cls-1" d="M122.84,133.34a70.91,70.91,0,0,0,.79,15.54,1.51,1.51,0,0,0,1.84,1.05,1.53,1.53,0,0,0,1-1.85,67.33,67.33,0,0,1-.68-14.74c.11-1.93-2.89-1.92-3,0Z"/><path class="cls-1" d="M240.18,131.05l-13.45.29c-1.92,0-1.93,3,0,3l13.45-.29c1.93-.05,1.93-3.05,0-3Z"/><path class="cls-1" d="M233.22,133.34a70.91,70.91,0,0,0,.79,15.54,1.51,1.51,0,0,0,1.84,1.05,1.53,1.53,0,0,0,1.05-1.85,66.72,66.72,0,0,1-.68-14.74c.11-1.93-2.89-1.92-3,0Z"/><path class="cls-1" d="M132.09,133.85c0,2,0,3.91.14,5.86a32.84,32.84,0,0,0,.65,5.69,3.6,3.6,0,0,0,1.29,2.08,3.71,3.71,0,0,0,2.89.48c1.91-.28,3.82-.62,5.73-.92a1.52,1.52,0,0,0,1.05-1.85,1.53,1.53,0,0,0-1.84-1.05l-4.81.78-.95.14c-.27,0-.2.08-.35,0,0,0-.07-.23-.12-.42a7,7,0,0,1-.14-.8,66.1,66.1,0,0,1-.54-10c0-1.93-3-1.93-3,0Z"/><path class="cls-1" d="M135.76,140.46a37.53,37.53,0,0,0,8.05-.74,1.5,1.5,0,0,0,1-1.84,1.54,1.54,0,0,0-1.84-1c-.63.13-1.27.23-1.9.33l-.19,0-.44.05-1,.09a36.34,36.34,0,0,1-3.76.13,1.5,1.5,0,0,0-1.5,1.5,1.54,1.54,0,0,0,1.5,1.5Z"/><path class="cls-1" d="M134.23,135.19l6.81-.85a1.74,1.74,0,0,0,1.06-.44,1.56,1.56,0,0,0,.44-1.06c0-.73-.67-1.61-1.5-1.5l-6.81.85a1.61,1.61,0,0,0-1.06.44,1.52,1.52,0,0,0-.44,1.06c0,.73.66,1.61,1.5,1.5Z"/><path class="cls-1" d="M199.24,133.85q-.06,2.94.14,5.86a32.84,32.84,0,0,0,.65,5.69,3.57,3.57,0,0,0,1.3,2.08,3.68,3.68,0,0,0,2.88.48c1.91-.28,3.82-.62,5.73-.92a1.51,1.51,0,0,0,1.05-1.85,1.53,1.53,0,0,0-1.84-1.05l-4.81.78-1,.14c-.27,0-.2.08-.34,0s-.08-.23-.13-.42-.1-.53-.14-.8a66.1,66.1,0,0,1-.54-10c0-1.93-3-1.93-3,0Z"/><path class="cls-1" d="M202.91,140.46a37.53,37.53,0,0,0,8.05-.74,1.51,1.51,0,0,0,1-1.84,1.55,1.55,0,0,0-1.85-1c-.63.13-1.26.23-1.9.33l-.19,0-.44.05-1,.09a36.24,36.24,0,0,1-3.76.13,1.51,1.51,0,0,0-1.5,1.5,1.54,1.54,0,0,0,1.5,1.5Z"/><path class="cls-1" d="M201.38,135.19l6.81-.85a1.74,1.74,0,0,0,1.06-.44,1.56,1.56,0,0,0,.44-1.06c0-.73-.67-1.61-1.5-1.5l-6.81.85a1.63,1.63,0,0,0-1.06.44,1.52,1.52,0,0,0-.44,1.06c0,.73.67,1.61,1.5,1.5Z"/><path class="cls-1" d="M165.13,131.47l.73,15.06c.09,1.93,3.09,1.94,3,0l-.73-15.06c-.09-1.92-3.09-1.93-3,0Z"/><path class="cls-1" d="M175.53,145.64l-.06-13.08-2.79.76a80.7,80.7,0,0,0,9.58,14.1,1.51,1.51,0,0,0,2.56-1.06,137.76,137.76,0,0,1-.35-14.51c.06-1.93-2.94-1.93-3,0a137.76,137.76,0,0,0,.35,14.51l2.56-1.06a77.32,77.32,0,0,1-9.11-13.49,1.51,1.51,0,0,0-2.8.75l.06,13.08a1.5,1.5,0,0,0,3,0Z"/><path class="cls-1" d="M222.05,130.21c-2.59-1-5.76-1.2-7.88.9a4.5,4.5,0,0,0,.16,6.77,7.31,7.31,0,0,0,3.3,1.47,21.71,21.71,0,0,1,4.34.7c.68.27,1.5.92,1.52,1.57,0,.81-1,1.42-1.75,1.74a8.14,8.14,0,0,1-7.34-.54,1.5,1.5,0,0,0-1.51,2.59,11.27,11.27,0,0,0,7.79,1.38c2.42-.43,5.38-1.88,5.76-4.59.42-3-2.47-5-5.09-5.38a25.37,25.37,0,0,1-4-.63c-.78-.26-1.6-.77-1.71-1.55a1.78,1.78,0,0,1,.38-1.13,2.69,2.69,0,0,1,1-.81c1.33-.56,2.91-.08,4.18.4a1.51,1.51,0,0,0,1.85-1,1.53,1.53,0,0,0-1-1.84Z"/><path class="cls-1" d="M263.29,132.25a8.56,8.56,0,1,0-8.6,14.72c2.79,1.29,7,1.17,8.59-1.92A7.33,7.33,0,0,0,264,142a4.57,4.57,0,0,0-.58-2.88c-1.32-1.91-3.69-1.75-5.67-1.26s-1.09,3.35.79,2.89a4.83,4.83,0,0,1,1.88-.24c-.2,0,.42.18.27.1.07,0,.27.2.25.15a3.62,3.62,0,0,1,0,1.67,2.67,2.67,0,0,1-.41,1.41,2.87,2.87,0,0,1-2,.94,5,5,0,0,1-2.76-.64,5.63,5.63,0,0,1-3-4.6,5.58,5.58,0,0,1,9.06-4.69,1.5,1.5,0,0,0,1.51-2.59Z"/><path class="cls-1" d="M276.78,133.05l16.34.2a1.5,1.5,0,0,0,0-3l-16.34-.2c-1.93,0-1.93,3,0,3Z"/><path class="cls-1" d="M283.31,132.74a115.41,115.41,0,0,0-.08,13.54,1.53,1.53,0,0,0,1.5,1.5,1.51,1.51,0,0,0,1.5-1.5,115.41,115.41,0,0,1,.08-13.54,1.5,1.5,0,0,0-3,0Z"/><path class="cls-1" d="M293.64,135.61c-1,3-1.83,6.6.6,9.17a7.34,7.34,0,0,0,4.06,1.92,13.29,13.29,0,0,0,4.86.31c3.18-.58,5-3.91,4.65-6.95a8.8,8.8,0,0,0-5.26-7.07,8.62,8.62,0,0,0-5.64-.71,5.25,5.25,0,0,0-3.69,3.42,1.51,1.51,0,0,0,1,1.84,1.54,1.54,0,0,0,1.85-1,2.26,2.26,0,0,1,1.7-1.34,5.54,5.54,0,0,1,3.23.43,6,6,0,0,1,3.73,4.3c.35,1.74-.37,3.84-2.2,4.2a9,9,0,0,1-3.1-.2,6.68,6.68,0,0,1-2.78-.92c-2-1.46-.84-4.57-.16-6.55a1.5,1.5,0,1,0-2.89-.8Z"/><path class="cls-2" d="M51.1,140.35q54.65,1.4,109.31,2,54.38.65,108.76.54,30.69-.06,61.36-.35a1.5,1.5,0,0,0,0-3q-39-1.48-77.91-3.83t-77.81-5.56q-21.87-1.81-43.7-3.89c-1.92-.18-1.9,2.82,0,3q38.83,3.69,77.74,6.53t77.86,4.8q21.9,1.11,43.82,1.95v-3q-54.66.51-109.33.3-54.37-.23-108.76-1.19-30.68-.56-61.34-1.33c-1.93,0-1.93,3,0,3Z"/><path class="cls-2" d="M329.66,110.33a10.45,10.45,0,0,1,5.23-5c.66-.28,1.81-.86,2.15,0a8.49,8.49,0,0,1,0,3.55,5.72,5.72,0,0,1-1.49,3.49c-.94,1-2,1.82-2.89,2.9-1.77,2.24-2.1,5.4.37,7.27a1.5,1.5,0,0,0,2.05-.53,1.55,1.55,0,0,0-.54-2.06c-.87-.66,0-2.2.43-2.79,1-1.23,2.29-2.11,3.27-3.33A8.61,8.61,0,0,0,340,109.3a14.56,14.56,0,0,0,0-4.22,3.72,3.72,0,0,0-2.4-3c-1.51-.5-3.15.15-4.51.79a13.17,13.17,0,0,0-6.07,6c-.86,1.72,1.73,3.24,2.59,1.51Z"/><path class="cls-2" d="M336.17,128.19a1.5,1.5,0,0,0,0-3,1.5,1.5,0,0,0,0,3Z"/><path class="cls-2" d="M346.33,119.13A4.23,4.23,0,0,1,351,116a5.66,5.66,0,0,1,3.08,1.42c.73.66,1.66,1.78,1.2,2.82s-2,1.94-2.85,2.67l-3.62,3-7.23,6c-1.49,1.23.64,3.34,2.12,2.12l7.1-5.87,3.61-3a17.84,17.84,0,0,0,3.05-2.77c1.75-2.32.73-5.26-1.26-7.07a8.49,8.49,0,0,0-7.16-2.19,7.15,7.15,0,0,0-5.57,5.19c-.46,1.88,2.43,2.68,2.89.8Z"/><path class="cls-2" d="M345.1,141.09a1.5,1.5,0,0,0,0-3,1.5,1.5,0,0,0,0,3Z"/><path class="cls-2" d="M206.85,149.17a8.64,8.64,0,0,0-10.2,3.91c-1.07,1.91-1.34,4.24.11,6a7.12,7.12,0,0,0,5,2.27,8.81,8.81,0,0,0,5.95-1.7,1.55,1.55,0,0,0,.54-2.05,1.52,1.52,0,0,0-2.06-.54,7.74,7.74,0,0,1-.87.58l-.46.23c-.16.08,0,0,0,0l-.27.11a8.94,8.94,0,0,1-1,.29l-.29,0s-.25,0-.1,0h-.1l-.37,0a9,9,0,0,1-1,0c-.18,0,0,0,0,0l-.23,0-.58-.13-.5-.16-.27-.1s.19.09,0,0a3.68,3.68,0,0,1-.44-.23c-.07,0-.47-.32-.27-.16a2.82,2.82,0,0,1-.36-.33l-.13-.15s.11.17,0,0-.23-.43-.14-.2a2.63,2.63,0,0,1-.09-.3c0-.07-.05-.24,0-.07a1.84,1.84,0,0,1,.07-.88,3.5,3.5,0,0,1,.17-.55c.06-.16,0,0,0,0l.12-.26a9.61,9.61,0,0,1,.53-.87s.17-.23,0,0a1.15,1.15,0,0,0,.14-.17c.13-.14.26-.29.4-.42s.24-.24.37-.35l.17-.14,0,0a6.52,6.52,0,0,1,.87-.53l.26-.13.07,0a6.45,6.45,0,0,1,.62-.21l.64-.14c.26-.05-.19,0,.08,0l.33,0c.22,0,.43,0,.65,0h.25l.29,0a7.62,7.62,0,0,1,1.23.31,1.5,1.5,0,0,0,1.84-1,1.53,1.53,0,0,0-1.05-1.85Z"/><path class="cls-2" d="M212.45,162.25a61.08,61.08,0,0,1,2.2-9.16h-2.9a46.24,46.24,0,0,0,3.43,7.51,1.52,1.52,0,0,0,2.59,0l4.22-7.1-2.8-.76.58,6.44a1.54,1.54,0,0,0,1.5,1.5,1.51,1.51,0,0,0,1.5-1.5l-.58-6.44a1.54,1.54,0,0,0-1.1-1.44,1.52,1.52,0,0,0-1.69.68l-4.22,7.1h2.59a40.83,40.83,0,0,1-3.12-6.79,1.52,1.52,0,0,0-2.9,0,62.6,62.6,0,0,0-2.19,9.16,1.55,1.55,0,0,0,1.05,1.85,1.52,1.52,0,0,0,1.84-1.05Z"/><path class="cls-2" d="M224.49,151.9l0,4.45c0,1.53-.07,3.3,1.51,4.12a10.48,10.48,0,0,0,4.28.65c1.51,0,3,0,4.53-.08a1.53,1.53,0,0,0,1.5-1.5,1.51,1.51,0,0,0-1.5-1.5c-1.33.09-2.67.12-4,.09q-1,0-1.92-.09l-1-.08c-.29,0,.14,0,0,0s-.24-.07-.36-.09.22.11,0,0,.14.18-.06-.06c.1.12.13.28.09.05,0,.22,0,0,0-.1,0-.63,0-1.27,0-1.9l0-3.94a1.51,1.51,0,0,0-1.5-1.5,1.54,1.54,0,0,0-1.5,1.5Z"/><path class="cls-2" d="M227.15,157.3a19.22,19.22,0,0,1,3.89-1l-.4.05.58-.06a1.66,1.66,0,0,0,1.06-.44,1.52,1.52,0,0,0,.44-1.06,1.54,1.54,0,0,0-.44-1.06,1.44,1.44,0,0,0-1.06-.44,20.29,20.29,0,0,0-4.87,1.07,1.62,1.62,0,0,0-.89.69,1.57,1.57,0,0,0-.16,1.16,1.52,1.52,0,0,0,1.85,1Z"/><path class="cls-2" d="M226,153.4a37.64,37.64,0,0,0,6.79-.56,1.51,1.51,0,0,0,1-1.85,1.55,1.55,0,0,0-1.84-1.05l-.79.13-.43.06.15,0-.24,0c-.51.07-1,.12-1.53.16-1,.08-2.1.11-3.15.1a1.5,1.5,0,0,0,0,3Z"/><path class="cls-2" d="M236.62,151.52l1.06,9.31a1.54,1.54,0,0,0,1.5,1.5c.74,0,1.6-.66,1.5-1.5l-1.06-9.31a1.5,1.5,0,1,0-3,0Z"/><path class="cls-2" d="M238.77,159.09a29.23,29.23,0,0,1,3-.93c.5-.12,1-.23,1.49-.33l.81-.14.35-.05.23,0c-.2,0-.22,0,0,0a1.59,1.59,0,0,0,1.06-.44,1.5,1.5,0,0,0,.44-1.06c0-.72-.66-1.6-1.5-1.5A31,31,0,0,0,238,156.2a1.5,1.5,0,1,0,.8,2.89Z"/><path class="cls-2" d="M243,150.11l.12,10.47a1.5,1.5,0,0,0,3,0L246,150.11a1.5,1.5,0,0,0-3,0Z"/><path class="cls-2" d="M247.46,152.79V158c0,.85,0,1.71,0,2.55a2,2,0,0,0,2.5,1.95,6.75,6.75,0,0,0,2.22-1.73c.6-.57,1.19-1.15,1.77-1.73,1.16-1.18,2.27-2.39,3.35-3.65l-2.56-1.06-.26,7.27a1.5,1.5,0,0,0,1.5,1.5,1.52,1.52,0,0,0,1.5-1.5l.26-7.27a1.52,1.52,0,0,0-2.56-1.06q-1.53,1.78-3.18,3.47c-.54.55-1.08,1.09-1.64,1.62l-.84.79-.43.39-.24.22a.76.76,0,0,1,.74-.14l.66.38a.84.84,0,0,1,.21.55v-.12c0-.17,0-.35,0-.52v-7.12a1.5,1.5,0,0,0-3,0Z"/><path class="cls-2" d="M261.8,153.3l.11,8.3a1.5,1.5,0,0,0,3,0l-.11-8.3a1.5,1.5,0,0,0-3,0Z"/><path class="cls-2" d="M259.05,153.4h9.44a1.5,1.5,0,0,0,0-3h-9.44a1.5,1.5,0,0,0,0,3Z"/><path class="cls-2" d="M272,151.77a87.73,87.73,0,0,0-.39,9.45,1.5,1.5,0,0,0,3,0,87.73,87.73,0,0,1,.39-9.45,1.5,1.5,0,0,0-1.5-1.5,1.54,1.54,0,0,0-1.5,1.5Z"/><path class="cls-2" d="M273,158.8c1.21-.12,2.44-.19,3.66-.21h.84l.37,0s.22,0,0,0,.08,0,.1,0l.15,0c.16,0-.11,0-.12-.06.15.08,0,.09-.05-.06a.43.43,0,0,0,.1.09c.12.09-.11-.1-.09-.12l.09.16s-.1-.3-.06-.15a1.21,1.21,0,0,0,.05.18,1.62,1.62,0,0,0,0,.19c0,.16,0-.16,0-.16a2,2,0,0,0,0,.34c0,.22,0,.45,0,.68l0,.35c0,.27.06-.33,0,0a5.39,5.39,0,0,1-.18.66c0,.15.06-.13.06-.13a1.31,1.31,0,0,0-.09.17,1.94,1.94,0,0,0-.15.24c.09-.23.16-.18.05-.08l-.1.1c-.09.11.08-.07.11-.08s-.15.11-.21.14a.4.4,0,0,0-.13.07s.34-.12.08,0l-.29.09a1.2,1.2,0,0,0-.2,0s.31,0,.14,0l-.41,0c-.26,0-.53-.07-.78-.05.05,0,.35.06,0,0l-.25,0-.52-.09a8.15,8.15,0,0,0-2.31-.15,1.66,1.66,0,0,0-1.06.44,1.52,1.52,0,0,0-.44,1.06c0,.73.67,1.61,1.5,1.5a5,5,0,0,1,1,0,1.15,1.15,0,0,1,.26,0c-.05,0-.32,0,0,0l.58.09a10.35,10.35,0,0,0,2.08.23,4.07,4.07,0,0,0,3.65-2,6.8,6.8,0,0,0,.58-3.85,3.17,3.17,0,0,0-.95-2,3.57,3.57,0,0,0-2.32-.83,32.91,32.91,0,0,0-4.76.2,1.53,1.53,0,0,0-1.5,1.5,1.51,1.51,0,0,0,1.5,1.5Z"/></svg>