<svg id="Layer_1" data-name="Layer 1" xmlns="http://www.w3.org/2000/svg" viewBox="0 0 591.8 170.14"><defs><style>.cls-1{fill:#fff;}</style></defs><path class="cls-1" d="M18.08,138.13H0V54.34H21.54v47.28l34.6-47.28H74.81v115.8H53.27V90.36Z"/><path class="cls-1" d="M112.4,150.17H90.85V54.34h21.43l21.19,32.2,21.3-32.2h21.31V162.15H154.65V87l-15,22.51H127.84L112.4,87Z"/><path class="cls-1" d="M213.66,170.14H192.12V54.34h72.54V155H243.11V73.25H213.66Z"/><path class="cls-1" d="M296.74,139.8q-9,0-15-3.23V118.14a22.52,22.52,0,0,0,11,2.63,12.54,12.54,0,0,0,7.3-1.92q2.76-1.91,5.39-6.94L274,54.34h23.82l18.32,36.39,16-36.39H355l-30.76,65.35q-5.86,12.69-14.48,16.76A30.77,30.77,0,0,1,296.74,139.8Z"/><path class="cls-1" d="M357.54,138.84c-4.06,0-7.14-.55-9.21-1.67V117.42a14.65,14.65,0,0,0,6.34,1.56q6.22,0,8-7.67,2-7.77,2.16-31.72l.24-25.25h62.6v98.22H406.14V73.25H386l-.24,9.21q-.94,33.65-6.46,43.82Q372.51,138.84,357.54,138.84Z"/><path class="cls-1" d="M480.36,138.13H443.73V54.34h21.54V80.19h15.09q15.19,0,24.42,8.14t9.22,21q0,12.81-9.1,20.82T480.36,138.13ZM465.27,97.67v22H479q6.1,0,9.64-2.93a9.81,9.81,0,0,0,3.53-8,10.12,10.12,0,0,0-3.53-8.14q-3.54-3-9.64-3Z"/><path class="cls-1" d="M568.82,139.8q-20.12,0-33.4-12.21T522.14,96.23q0-19.16,13.16-31.36t33.4-12.21a48.26,48.26,0,0,1,21.66,4.79V78.64a39.69,39.69,0,0,0-21.42-6.11,24.52,24.52,0,0,0-17.6,6.71,22.43,22.43,0,0,0-7.06,17q0,10.53,7.18,17.12t18.32,6.58q13.15,0,22-6.7v21.31A49.71,49.71,0,0,1,568.82,139.8Z"/><path class="cls-1" d="M204.22,34.85A17.64,17.64,0,0,1,191.55,30a16.8,16.8,0,0,1-5-12.53,16.67,16.67,0,0,1,5-12.48A17.28,17.28,0,0,1,204.22,0a18.12,18.12,0,0,1,9.12,2.26V7.58a16.34,16.34,0,0,0-9.07-2.64,12.09,12.09,0,0,0-12.34,12.48A12.08,12.08,0,0,0,204.46,29.9a14.87,14.87,0,0,0,9.6-3.07v5.33A17.92,17.92,0,0,1,204.22,34.85Z"/><path class="cls-1" d="M218.38,22.42a12.26,12.26,0,0,1,3.36-8.84A11.61,11.61,0,0,1,230.48,10,10,10,0,0,1,236.67,12q5,3.56,5,10.66V24h-18a6.8,6.8,0,0,0,2.86,4.66,10.17,10.17,0,0,0,6,1.68,14.69,14.69,0,0,0,7.59-2.11v4.36a14.78,14.78,0,0,1-8.69,2.31,13.35,13.35,0,0,1-9.27-3.46A11.65,11.65,0,0,1,218.38,22.42Zm5.28-2.4h12.77a5.85,5.85,0,0,0-6.19-5.62A6.57,6.57,0,0,0,225.7,16,6,6,0,0,0,223.66,20Z"/><path class="cls-1" d="M258.56,34.85a12.63,12.63,0,0,1-9-3.51,11.91,11.91,0,0,1-3.69-9,11.61,11.61,0,0,1,3.69-8.88A12.88,12.88,0,0,1,258.6,10a15,15,0,0,1,7.11,1.63v4.47a14.58,14.58,0,0,0-6.34-1.54,8.46,8.46,0,0,0-6,2.21,7.39,7.39,0,0,0-2.4,5.62,7.44,7.44,0,0,0,2.4,5.66,8.46,8.46,0,0,0,6,2.21,12.64,12.64,0,0,0,6.72-1.78v4.42A14.9,14.9,0,0,1,258.56,34.85Z"/><path class="cls-1" d="M283,34.85a12.63,12.63,0,0,1-9-3.51,11.91,11.91,0,0,1-3.69-9A11.61,11.61,0,0,1,274,13.49,12.88,12.88,0,0,1,283.08,10a15,15,0,0,1,7.11,1.63v4.47a14.58,14.58,0,0,0-6.34-1.54,8.46,8.46,0,0,0-6,2.21,7.39,7.39,0,0,0-2.4,5.62,7.44,7.44,0,0,0,2.4,5.66,8.46,8.46,0,0,0,6,2.21,12.64,12.64,0,0,0,6.72-1.78v4.42A14.9,14.9,0,0,1,283,34.85Z"/><path class="cls-1" d="M301.8,34.22H297V10.66h5.18v16l12.72-16h4.85V34.22h-5.19v-16Z"/><path class="cls-1" d="M331,34.22h-6l6.68-9.16a6.7,6.7,0,0,1-3.87-2.45,7.33,7.33,0,0,1-1.37-4.51,6.89,6.89,0,0,1,2.28-5.43q2.28-2,6.6-2h12.39V34.22H342.6V26.11h-5.71Zm5.08-12.28h6.48V14.83h-6.48a4.84,4.84,0,0,0-3.19.94,3.2,3.2,0,0,0-1.13,2.61A3.22,3.22,0,0,0,332.93,21,4.89,4.89,0,0,0,336.12,21.94Z"/><path class="cls-1" d="M380.91,34.85a12.36,12.36,0,0,1-10.28-5,20.11,20.11,0,0,1-3.84-12.39,20,20,0,0,1,3.84-12.33A12.33,12.33,0,0,1,380.91,0a12.15,12.15,0,0,1,10.27,5.09,19.72,19.72,0,0,1,3.89,12.33,19.81,19.81,0,0,1-3.89,12.39A12.18,12.18,0,0,1,380.91,34.85Zm0-5a7.46,7.46,0,0,0,6.43-3.6,15.44,15.44,0,0,0,2.45-8.88,15.44,15.44,0,0,0-2.45-8.88,7.48,7.48,0,0,0-12.82.05,15.37,15.37,0,0,0-2.45,8.83,15.71,15.71,0,0,0,2.45,8.88A7.42,7.42,0,0,0,380.91,29.9Z"/><path class="cls-1" d="M401.93,34.61a3.39,3.39,0,1,1,2.35-5.79,3.18,3.18,0,0,1,1,2.38,3.3,3.3,0,0,1-1,2.42A3.24,3.24,0,0,1,401.93,34.61Z"/></svg>