<svg id="Layer_1" data-name="Layer 1" xmlns="http://www.w3.org/2000/svg" xmlns:xlink="http://www.w3.org/1999/xlink" viewBox="0 0 913.71 625.57"><defs><style>.cls-1{fill:none;stroke:#fff;stroke-miterlimit:10;}.cls-2{clip-path:url(#clip-path);}.cls-3{fill:#333;}.cls-4{fill:#fff;}</style><clipPath id="clip-path"><rect class="cls-1" width="913.71" height="625.57" rx="69.78"/></clipPath></defs><g class="cls-2"><rect class="cls-3" x="-55.91" y="-92.92" width="1148.34" height="931.34"/></g><rect class="cls-1" width="913.71" height="625.57" rx="69.78"/><path d="M367.7,328.35V306.86q23.37-3.69,23.37-11.25c0-3.9-3.61-5.77-11-5.77a52.47,52.47,0,0,0-27.26,7.5V272c8.8-5.91,19.33-8.8,31.87-8.8,10.53,0,19.33,2.46,26.54,7.5s10.82,12.26,10.82,22.07c0,7.07-2.45,12.84-7.5,17.31a48.09,48.09,0,0,1-18,10.1v8.22Zm27.41,9.95a16.56,16.56,0,0,1,5.19,12.4,17.72,17.72,0,0,1-17.6,17.74,17.56,17.56,0,0,1-12.54-5.19A17.1,17.1,0,0,1,365,350.7a16.56,16.56,0,0,1,5.2-12.4,17.59,17.59,0,0,1,24.95,0Z"/><path d="M440.11,328.35V306.86q23.37-3.69,23.37-11.25c0-3.9-3.61-5.77-11-5.77a52.47,52.47,0,0,0-27.26,7.5V272c8.8-5.91,19.33-8.8,31.88-8.8,10.53,0,19.33,2.46,26.54,7.5s10.82,12.26,10.82,22.07c0,7.07-2.46,12.84-7.51,17.31a48,48,0,0,1-18,10.1v8.22Zm27.4,9.95a16.53,16.53,0,0,1,5.2,12.4,17.74,17.74,0,0,1-17.6,17.74,17.58,17.58,0,0,1-12.55-5.19,17.09,17.09,0,0,1-5.19-12.55,16.56,16.56,0,0,1,5.19-12.4,17.59,17.59,0,0,1,24.95,0Z"/><path d="M512.52,328.35V306.86q23.36-3.69,23.36-11.25c0-3.9-3.6-5.77-11-5.77a52.47,52.47,0,0,0-27.26,7.5V272c8.8-5.91,19.33-8.8,31.87-8.8,10.53,0,19.33,2.46,26.54,7.5s10.82,12.26,10.82,22.07c0,7.07-2.45,12.84-7.5,17.31a48.09,48.09,0,0,1-18,10.1v8.22Zm27.4,9.95a16.56,16.56,0,0,1,5.19,12.4,17.72,17.72,0,0,1-17.59,17.74A17.57,17.57,0,0,1,515,363.25a17.09,17.09,0,0,1-5.19-12.55A16.56,16.56,0,0,1,515,338.3a17.59,17.59,0,0,1,24.95,0Z"/><path class="cls-4" d="M361.67,322.32V300.83Q385,297.14,385,289.58c0-3.9-3.61-5.77-11-5.77a52.47,52.47,0,0,0-27.26,7.5V265.92c8.8-5.91,19.33-8.8,31.87-8.8,10.53,0,19.33,2.46,26.54,7.5s10.82,12.26,10.82,22.07c0,7.07-2.45,12.84-7.5,17.31a48.09,48.09,0,0,1-18,10.1v8.22Zm27.41,9.95a16.56,16.56,0,0,1,5.19,12.4,17.72,17.72,0,0,1-17.6,17.74,17.56,17.56,0,0,1-12.54-5.19,17.1,17.1,0,0,1-5.2-12.55,16.56,16.56,0,0,1,5.2-12.4,17.59,17.59,0,0,1,24.95,0Z"/><path class="cls-4" d="M434.08,322.32V300.83q23.37-3.69,23.37-11.25c0-3.9-3.61-5.77-11-5.77a52.47,52.47,0,0,0-27.26,7.5V265.92c8.8-5.91,19.33-8.8,31.88-8.8,10.53,0,19.33,2.46,26.54,7.5s10.82,12.26,10.82,22.07c0,7.07-2.46,12.84-7.51,17.31a48,48,0,0,1-18,10.1v8.22Zm27.4,9.95a16.53,16.53,0,0,1,5.2,12.4,17.74,17.74,0,0,1-17.6,17.74,17.58,17.58,0,0,1-12.55-5.19,17.09,17.09,0,0,1-5.19-12.55,16.56,16.56,0,0,1,5.19-12.4,17.59,17.59,0,0,1,25,0Z"/><path class="cls-4" d="M506.49,322.32V300.83q23.35-3.69,23.36-11.25c0-3.9-3.6-5.77-11-5.77a52.47,52.47,0,0,0-27.26,7.5V265.92c8.8-5.91,19.33-8.8,31.87-8.8,10.53,0,19.33,2.46,26.54,7.5s10.82,12.26,10.82,22.07c0,7.07-2.45,12.84-7.5,17.31a48.09,48.09,0,0,1-18,10.1v8.22Zm27.4,9.95a16.56,16.56,0,0,1,5.19,12.4,17.72,17.72,0,0,1-17.59,17.74,17.57,17.57,0,0,1-12.55-5.19,17.09,17.09,0,0,1-5.19-12.55,16.56,16.56,0,0,1,5.19-12.4,17.59,17.59,0,0,1,24.95,0Z"/></svg>