<svg id="Layer_1" data-name="Layer 1" xmlns="http://www.w3.org/2000/svg" viewBox="0 0 1920 1080"><defs><style>.cls-1{fill:#f7931e;}</style></defs><polygon class="cls-1" points="73.74 389.99 -479.17 623 -479.65 568.95 73.26 335.93 73.74 389.99"/><polygon points="73.74 389.99 46.09 401.64 45.61 347.58 73.26 335.93 73.74 389.99"/><polygon points="15.38 414.58 -12.27 426.23 -12.75 372.18 14.9 360.53 15.38 414.58"/><polygon class="cls-1" points="599 168.62 46.09 401.64 45.61 347.58 598.52 114.57 599 168.62"/><polygon points="73.74 389.99 46.09 401.64 45.61 347.58 73.26 335.93 73.74 389.99"/><polygon points="599 168.62 571.36 180.27 570.87 126.22 598.52 114.57 599 168.62"/><polygon points="540.64 193.22 512.99 204.87 512.51 150.81 540.16 139.16 540.64 193.22"/><polygon points="482.28 217.81 454.63 229.47 454.15 175.41 481.8 163.76 482.28 217.81"/><polygon points="423.91 242.41 396.27 254.06 395.79 200 423.43 188.35 423.91 242.41"/><polygon points="365.55 267.01 337.91 278.66 337.43 224.6 365.07 212.95 365.55 267.01"/><polygon points="307.19 291.6 279.54 303.25 279.06 249.2 306.71 237.55 307.19 291.6"/><polygon points="248.83 316.2 221.18 327.85 220.7 273.79 248.35 262.14 248.83 316.2"/><polygon points="190.47 340.79 162.82 352.44 162.34 298.39 189.98 286.74 190.47 340.79"/><polygon points="132.1 365.39 104.46 377.04 103.98 322.99 131.62 311.33 132.1 365.39"/><polygon class="cls-1" points="1124.26 -52.74 571.36 180.27 570.87 126.22 1123.78 -106.8 1124.26 -52.74"/><polygon points="599 168.62 571.36 180.27 570.87 126.22 598.52 114.57 599 168.62"/><polygon points="1007.54 -3.55 979.89 8.1 979.41 -45.95 1007.05 -57.6 1007.54 -3.55"/><polygon points="949.17 21.05 921.53 32.7 921.05 -21.36 948.69 -33.01 949.17 21.05"/><polygon points="890.81 45.64 863.17 57.29 862.68 3.24 890.33 -8.41 890.81 45.64"/><polygon points="832.45 70.24 804.8 81.89 804.32 27.83 831.97 16.18 832.45 70.24"/><polygon points="774.09 94.83 746.44 106.49 745.96 52.43 773.61 40.78 774.09 94.83"/><polygon points="715.73 119.43 688.08 131.08 687.6 77.03 715.24 65.38 715.73 119.43"/><polygon points="657.36 144.03 629.72 155.68 629.24 101.62 656.88 89.97 657.36 144.03"/><polygon class="cls-1" points="1015.85 805.85 753.03 1345.22 717.08 1304.85 979.9 765.47 1015.85 805.85"/><polygon points="1015.85 805.85 1002.71 832.82 966.76 792.44 979.9 765.47 1015.85 805.85"/><polygon points="988.11 862.78 974.97 889.75 939.02 849.38 952.16 822.41 988.11 862.78"/><polygon points="960.37 919.72 947.23 946.68 911.28 906.31 924.42 879.34 960.37 919.72"/><polygon points="932.62 976.65 919.48 1003.62 883.54 963.24 896.68 936.27 932.62 976.65"/><polygon points="904.88 1033.58 891.74 1060.55 855.79 1020.18 868.93 993.21 904.88 1033.58"/><polygon points="877.14 1090.52 864 1117.49 828.05 1077.11 841.19 1050.14 877.14 1090.52"/><polygon class="cls-1" points="1265.53 293.44 1002.71 832.82 966.76 792.44 1229.58 253.07 1265.53 293.44"/><polygon points="1015.85 805.85 1002.71 832.82 966.76 792.44 979.9 765.47 1015.85 805.85"/><polygon points="1265.53 293.44 1252.39 320.41 1216.44 280.04 1229.58 253.07 1265.53 293.44"/><polygon points="1237.79 350.38 1224.65 377.34 1188.7 336.97 1201.84 310 1237.79 350.38"/><polygon points="1210.05 407.31 1196.9 434.28 1160.96 393.9 1174.1 366.94 1210.05 407.31"/><polygon points="1182.3 464.24 1169.16 491.21 1133.21 450.84 1146.36 423.87 1182.3 464.24"/><polygon points="1154.56 521.18 1141.42 548.15 1105.47 507.77 1118.61 480.8 1154.56 521.18"/><polygon points="1126.82 578.11 1113.68 605.08 1077.73 564.71 1090.87 537.74 1126.82 578.11"/><polygon points="1099.08 635.05 1085.93 662.01 1049.99 621.64 1063.13 594.67 1099.08 635.05"/><polygon points="1071.33 691.98 1058.19 718.95 1022.25 678.57 1035.39 651.61 1071.33 691.98"/><polygon points="1043.59 748.91 1030.45 775.88 994.5 735.51 1007.65 708.54 1043.59 748.91"/><polygon class="cls-1" points="1515.21 -218.97 1252.39 320.41 1216.44 280.04 1479.26 -259.34 1515.21 -218.97"/><polygon points="1265.53 293.44 1252.39 320.41 1216.44 280.04 1229.58 253.07 1265.53 293.44"/><polygon points="1404.24 8.77 1391.1 35.74 1355.15 -4.63 1368.29 -31.6 1404.24 8.77"/><polygon points="1376.5 65.7 1363.36 92.67 1327.41 52.3 1340.55 25.33 1376.5 65.7"/><polygon points="1348.76 122.64 1335.61 149.61 1299.67 109.23 1312.81 82.26 1348.76 122.64"/><polygon points="1321.01 179.57 1307.87 206.54 1271.93 166.17 1285.07 139.2 1321.01 179.57"/><polygon points="1293.27 236.51 1280.13 263.48 1244.18 223.1 1257.33 196.13 1293.27 236.51"/><polygon class="cls-1" points="321.2 745.15 -249.35 559.49 -214.34 518.3 356.21 703.97 321.2 745.15"/><polygon points="321.2 745.15 292.67 735.87 327.69 694.68 356.21 703.97 321.2 745.15"/><polygon points="260.98 725.55 232.45 716.27 267.46 675.08 295.99 684.37 260.98 725.55"/><polygon points="200.75 705.96 172.22 696.67 207.24 655.49 235.76 664.77 200.75 705.96"/><polygon points="140.53 686.36 112 677.08 147.01 635.89 175.54 645.17 140.53 686.36"/><polygon points="80.3 666.76 51.77 657.48 86.79 616.29 115.31 625.57 80.3 666.76"/><polygon points="20.08 647.16 -8.45 637.88 26.56 596.69 55.09 605.98 20.08 647.16"/><polygon class="cls-1" points="863.22 921.53 292.67 735.87 327.69 694.68 898.24 880.35 863.22 921.53"/><polygon points="321.2 745.15 292.67 735.87 327.69 694.68 356.21 703.97 321.2 745.15"/><polygon points="863.22 921.53 834.7 912.25 869.71 871.07 898.24 880.35 863.22 921.53"/><polygon points="803 901.94 774.47 892.65 809.49 851.47 838.01 860.75 803 901.94"/><polygon points="742.77 882.34 714.25 873.06 749.26 831.87 777.79 841.15 742.77 882.34"/><polygon points="682.55 862.74 654.02 853.46 689.03 812.27 717.56 821.55 682.55 862.74"/><polygon points="622.33 843.14 593.8 833.86 628.81 792.67 657.34 801.96 622.33 843.14"/><polygon points="562.1 823.54 533.57 814.26 568.59 773.07 597.11 782.36 562.1 823.54"/><polygon points="501.88 803.95 473.35 794.66 508.36 753.48 536.89 762.76 501.88 803.95"/><polygon points="441.65 784.35 413.12 775.07 448.14 733.88 476.66 743.16 441.65 784.35"/><polygon points="381.43 764.75 352.9 755.47 387.91 714.28 416.44 723.56 381.43 764.75"/><polygon class="cls-1" points="1405.25 1097.92 834.7 912.25 869.71 871.07 1440.26 1056.73 1405.25 1097.92"/><polygon points="863.22 921.53 834.7 912.25 869.71 871.07 898.24 880.35 863.22 921.53"/><polygon points="1405.25 1097.92 1376.72 1088.63 1411.73 1047.45 1440.26 1056.73 1405.25 1097.92"/><polygon points="1345.02 1078.32 1316.49 1069.04 1351.51 1027.85 1380.04 1037.13 1345.02 1078.32"/><polygon points="1284.8 1058.72 1256.27 1049.44 1291.28 1008.25 1319.81 1017.53 1284.8 1058.72"/><polygon points="1224.57 1039.12 1196.05 1029.84 1231.06 988.65 1259.59 997.94 1224.57 1039.12"/><polygon points="1164.35 1019.53 1135.82 1010.24 1170.83 969.05 1199.36 978.34 1164.35 1019.53"/><polygon points="1104.12 999.93 1075.6 990.64 1110.61 949.46 1139.14 958.74 1104.12 999.93"/><polygon points="1043.9 980.33 1015.37 971.05 1050.38 929.86 1078.91 939.14 1043.9 980.33"/><polygon points="983.67 960.73 955.15 951.45 990.16 910.26 1018.69 919.54 983.67 960.73"/><polygon points="923.45 941.13 894.92 931.85 929.93 890.66 958.46 899.95 923.45 941.13"/><polygon class="cls-1" points="1947.27 1274.3 1376.72 1088.63 1411.73 1047.45 1982.28 1233.11 1947.27 1274.3"/><polygon points="1405.25 1097.92 1376.72 1088.63 1411.73 1047.45 1440.26 1056.73 1405.25 1097.92"/><polygon points="1465.47 1117.52 1436.94 1108.23 1471.96 1067.05 1500.48 1076.33 1465.47 1117.52"/></svg>