<svg xmlns="http://www.w3.org/2000/svg" viewBox="0 0 595.02 595.02"><defs><style>.cls-1{fill:#fff;}</style></defs><g id="Layer_2" data-name="Layer 2"><path class="cls-1" d="M595,347.34V247.68H545.41A251.58,251.58,0,0,0,508,157.53l35.16-35.16L472.65,51.9,437.49,87.06a251.38,251.38,0,0,0-90.15-37.44V0H247.68V49.62a251.38,251.38,0,0,0-90.15,37.44L122.37,51.9,51.9,122.37l35.16,35.16a251.38,251.38,0,0,0-37.44,90.15H0v99.66H49.62a251.31,251.31,0,0,0,37.44,90.15L51.9,472.65l70.47,70.47L157.53,508a251.58,251.58,0,0,0,90.15,37.45V595h99.66V545.41A251.58,251.58,0,0,0,437.49,508l35.16,35.16,70.47-70.47L508,437.49a251.5,251.5,0,0,0,37.45-90.15ZM297.51,450.69c-84.46,0-153.18-68.72-153.18-153.18s68.72-153.18,153.18-153.18,153.18,68.72,153.18,153.18S382,450.69,297.51,450.69Z"/></g></svg>