<svg xmlns="http://www.w3.org/2000/svg" viewBox="0 0 1011.05 157.52"><defs><style>.cls-1{fill:#fff;}</style></defs><g id="Layer_2" data-name="Layer 2"><polygon class="cls-1" points="375.39 64.48 368.02 94.45 386.26 93.31 375.39 64.48"/><path class="cls-1" d="M487.7,5.27l-13.81.86,1.38,22.14,13.81-.87c7.79-.49,12.82-5.42,12.41-12S495.31,4.79,487.7,5.27Z"/><path class="cls-1" d="M998.53,5.73c.36,5.85-.91,11.08-4,15.36s-6.12,7.32-9.38,9.12c5.19.71,10.52,3.73,15.84,9.06V0h-3.22A39,39,0,0,1,998.53,5.73Z"/><path class="cls-1" d="M958.12,70.12c6.9-.43,11.08-4.61,10.7-10.8s-5.44-10.15-12-9.74l-20,1.25,1.29,20.54Z"/><path class="cls-1" d="M963,14.53c-.33-5.13-4.44-8.43-9.58-8.11l-19.3,1.21,1,16.64,19.3-1.21C959.6,22.74,963.27,19,963,14.53Z"/><polygon class="cls-1" points="160.01 60.39 152.64 90.36 170.88 89.22 160.01 60.39"/><polygon class="cls-1" points="536.34 122.12 538.55 157.52 568.48 157.52 536.34 122.12"/><path class="cls-1" d="M840.82,56.12a27,27,0,0,0-39.31,2.46c-4.79,5.81-7,13-6.46,21.73s3.64,15.59,9.13,20.94a27.43,27.43,0,0,0,39.31-2.46c4.78-6,7-13.23,6.45-21.91S846.3,61.29,840.82,56.12Z"/><path class="cls-1" d="M999.78,88.31c-7.91,7.07-18.68,11.12-32.31,12L902,104.38,895.43,0H661.62l2.31,37,37.89-2.37L700.08,6.73l38.07-2.38,7.74,123.94-38.07,2.38-3.93-63L666,70.07l3,48.87L631,121.32,623.4,0H608.52l3.34,53.41L616.08,121l2.28,36.57H1001V87.19C1000.58,87.57,1000.19,87.94,999.78,88.31Zm-127,33c-11.78,13.36-27.16,20.54-46.28,21.74s-35.45-4.19-48.81-16S757.2,100.45,756.1,82.75C755,64.86,760.24,49.43,772,36.07s27.32-20.73,46.44-21.92,35.28,4.19,48.64,16,20.5,26.44,21.61,44.33S884.59,108,872.8,121.31Z"/><polygon class="cls-1" points="37.28 84.02 11.39 85.64 11.39 157.52 41.88 157.52 37.28 84.02"/><path class="cls-1" d="M35.23,51.26l73.66-4.6,2,32.75L75.35,81.64l4.74,75.88h179.2l-4.8-76.77L219.26,83l-2-32.75L326.1,43.39l2,32.75-35.59,2.23,4.95,79.15H501.94l-6.06-96.86,32.4-2,51.17,56.84L572.23,0H538.08a41.49,41.49,0,0,1,2.26,11.4c.73,11.69-2.91,21.69-11.11,29.85-8,8.14-19.12,12.57-33.29,13.45L477,55.89l2.7,43.2-38.07,2.38L435.29,0H11.39V52.75Zm356.2-31.51,59,121.45-40.9,2.56-10.31-22.64-40.37,2.52-7.58,23.76-39.3,2.46L355.14,22ZM176.06,15.66l59,121.45-40.9,2.56L183.81,117l-40.37,2.52-7.58,23.76-39.3,2.46,43.2-127.84Z"/></g></svg>