<svg xmlns="http://www.w3.org/2000/svg" viewBox="0 0 2435.74 802.72"><defs><style>.cls-1,.cls-2,.cls-4{fill:#fff;}.cls-2,.cls-4{font-size:112.48px;font-family:Geometria-Bold, Geometria;font-weight:700;}.cls-3{letter-spacing:-0.02em;}.cls-4{letter-spacing:-0.04em;}.cls-5{letter-spacing:0em;}</style></defs><g id="Layer_2" data-name="Layer 2"><polygon class="cls-1" points="877.36 303.46 858.33 367.73 898.01 367.11 877.36 303.46"/><polygon class="cls-1" points="410.48 272.77 391.45 337.04 431.14 336.42 410.48 272.77"/><path class="cls-1" d="M1097,186.85l.76,48.15,30-.47c17-.27,28.35-10.47,28.13-24.72s-12.32-23.7-28.89-23.44Z"/><path class="cls-1" d="M2157.3,254.62c-.17-11.17-8.77-18.74-19.94-18.57l-42,.66.57,36.22,42-.66C2149.1,272.09,2157.45,264.25,2157.3,254.62Z"/><path class="cls-1" d="M2235.29,239.13c.2,12.72-3.09,23.95-10.27,32.92s-14,15.25-21.29,18.83c11.54,2.12,23.17,9.59,34.5,22.41l4-84.34-7.8-.38A84.63,84.63,0,0,1,2235.29,239.13Z"/><path class="cls-1" d="M2141.08,374.73c15-.24,24.53-8.87,24.31-22.35s-10.76-22.57-25-22.35l-43.54.69.71,44.69Z"/><polygon class="cls-1" points="1220.72 444.83 1221.93 521.48 1286.6 524.56 1220.72 444.83"/><polygon class="cls-1" points="141.81 311.59 85.24 312.48 77.87 466.88 144.31 470.05 141.81 311.59"/><path class="cls-1" d="M1845,314.65q-26,.42-42.47,19.17c-11,12.12-16.52,27.62-16.22,46.5s6.32,34.2,17.69,46.35c11.36,11.77,25.71,17.71,43,17.43s31.49-6.66,42.48-18.78c11-12.5,16.51-28,16.21-46.88s-6.32-34.2-17.68-46Q1871,314.25,1845,314.65Z"/><path class="cls-1" d="M140.69,240.32,301,237.79l1.13,71.27-77.44,1.23L227.23,474,616,492.56l-2.62-166-76.67,1.21-1.12-71.28,236.94-3.74L773.68,324l-77.44,1.22,2.7,171.32,443.54,21.17-3.31-210.31,70.5-1.11,105.25,128.52-4-250.29L1237.14,181a90.11,90.11,0,0,1,3.48,24c.4,25.42-8.51,46.76-27.13,63.62-18.23,16.86-42.76,25.34-73.58,25.83l-41.22.65,1.48,94-82.84,1.31-3.47-220.1L94.12,126.42,88.65,241.14ZM916.7,208l115.62,269.48-89,1.4-20.05-50.17-87.85,1.39-18.85,50.78L731,482.27l106.68-273ZM449.82,177.35,565.44,446.82l-89,1.41-20.06-50.17-87.85,1.39-18.85,50.78-85.53,1.35,106.68-273Z"/><path class="cls-1" d="M2229.64,418.42c-17.89,14.54-41.66,22.24-71.32,22.7l-142.55,2.25L2012.21,218l-507.29-24.21,1.25,79.22,82.44-1.3-.95-60.62,82.83-1.3,4.26,269.69-82.84,1.3-2.16-137L1507.3,345,1509,451.36l-82.83,1.31L1422,189.8l-32.29-1.54,1.81,115.14,2.32,147,1.25,79.37L2226,569.4l7.36-154.22C2232.17,416.28,2230.93,417.37,2229.64,418.42ZM1950.8,477.15c-26.93,27.79-61,41.81-102.61,42.47S1771.68,507,1743.9,480s-41.79-59.85-42.4-98.37c-.61-38.92,12.35-71.88,39.28-99.66s61.38-42.2,103-42.86,76.12,12.67,103.91,39.6,41.78,59.45,42.4,98.37S1977.72,449.37,1950.8,477.15Z"/><text class="cls-2" transform="translate(985.89 645.93)"><tspan class="cls-3">a</tspan><tspan x="65.91" y="0">yppp</tspan></text><text class="cls-4" transform="translate(2272.39 290.53)">‘<tspan class="cls-5" x="27.9" y="0">s</tspan></text></g></svg>