<svg xmlns="http://www.w3.org/2000/svg" viewBox="0 0 1011.05 157.52"><defs><style>.cls-1{fill:#fff;}</style></defs><g id="Layer_2" data-name="Layer 2"><path class="cls-1" d="M96.56,145.77l43.2-127.84,36.3-2.27,59,121.45-40.9,2.56L183.81,117l-40.37,2.52-7.58,23.76Zm56.08-55.41,18.24-1.14L160,60.39Z"/><path class="cls-1" d="M217.21,50.2,326.1,43.39l2,32.75-35.59,2.23,5.7,91.19-38.07,2.37-5.7-91.18L219.26,83Z"/><path class="cls-1" d="M311.94,149.86,355.14,22l36.29-2.27,59,121.45-40.9,2.56-10.31-22.64-40.37,2.52-7.58,23.76ZM368,94.45l18.24-1.14L375.39,64.48Z"/><path class="cls-1" d="M490.9-26c14.16-.88,25.73,2.13,34.7,9.21,9.15,7.07,14,16.37,14.74,28.23.73,11.69-2.91,21.69-11.11,29.85-8,8.14-19.12,12.57-33.29,13.45L477,55.89l2.7,43.2-38.07,2.38L433.89-22.47ZM489.08,27.4c7.79-.49,12.82-5.42,12.41-12S495.31,4.79,487.7,5.27l-13.81.86,1.38,22.14Z"/><polygon class="cls-1" points="700.08 6.73 701.82 34.59 663.93 36.96 661.3 -5 623.24 -2.62 630.99 121.32 669.05 118.94 666 70.07 703.89 67.7 707.83 130.67 745.89 128.29 738.14 4.35 700.08 6.73"/><path class="cls-1" d="M772,36.07c11.79-13.36,27.32-20.73,46.44-21.92s35.28,4.19,48.64,16,20.5,26.44,21.61,44.33S884.59,108,872.8,121.31s-27.16,20.54-46.28,21.74-35.45-4.19-48.81-16S757.2,100.45,756.1,82.75C755,64.86,760.24,49.43,772,36.07Zm52.33,72.27a25.88,25.88,0,0,0,19.14-9.55c4.78-6,7-13.23,6.45-21.91s-3.64-15.59-9.12-20.76a27,27,0,0,0-39.31,2.46c-4.79,5.81-7,13-6.46,21.73s3.64,15.59,9.13,20.94A25.84,25.84,0,0,0,824.35,108.34Z"/><path class="cls-1" d="M902,104.38,894.21-19.56l62.85-3.93c11.51-.72,21.06,1.35,28.84,6.37,7.77,4.85,12,12.41,12.63,22.85.36,5.85-.91,11.08-4,15.36s-6.12,7.32-9.38,9.12c5.38.73,10.91,3.94,16.42,9.64,5.5,5.52,8.62,12.79,9.17,21.65a31.61,31.61,0,0,1-10.94,26.81c-7.91,7.07-18.68,11.12-32.31,12Zm33.2-80.11,19.3-1.21c5.14-.32,8.81-4.1,8.54-8.53-.33-5.13-4.44-8.43-9.58-8.11l-19.3,1.21Zm3,47.1,20-1.25c6.9-.43,11.08-4.61,10.7-10.8s-5.44-10.15-12-9.74l-20,1.25Z"/><polygon class="cls-1" points="35.23 51.26 0 53.46 2.05 86.22 37.28 84.02 42.98 175.2 81.05 172.82 75.35 81.64 110.94 79.41 108.89 46.66 35.23 51.26"/><polygon class="cls-1" points="571.43 -12.78 579.45 115.48 528.28 58.64 495.88 60.66 503.63 184.6 540.1 182.32 536.34 122.12 588.26 179.31 619.6 177.35 616.08 120.95 611.86 53.41 607.58 -15.04 571.43 -12.78"/></g></svg>