<svg xmlns="http://www.w3.org/2000/svg" viewBox="0 0 1010.71 167.95"><defs><style>.cls-1{fill:#fff;}</style></defs><g id="Layer_2" data-name="Layer 2"><polygon class="cls-1" points="374.29 70.55 366.94 100.51 385.17 99.36 374.29 70.55"/><polygon class="cls-1" points="159.01 66.54 151.66 96.5 169.88 95.35 159.01 66.54"/><path class="cls-1" d="M472.73,12.2l1.39,22.12,13.8-.87c7.79-.49,12.81-5.42,12.4-12s-6.18-10.63-13.79-10.15Z"/><path class="cls-1" d="M961.61,20.42c-.32-5.13-4.43-8.43-9.57-8.11l-19.29,1.22,1,16.63L953.09,29C958.22,28.63,961.89,24.84,961.61,20.42Z"/><path class="cls-1" d="M997.13,11.61c.37,5.84-.91,11.08-4,15.36s-6.12,7.31-9.38,9.11c5.35.73,10.86,3.91,16.34,9.56l0-38.86h-3.59A40,40,0,0,1,997.13,11.61Z"/><path class="cls-1" d="M956.76,76c6.9-.43,11.08-4.6,10.69-10.8S962,55,955.47,55.45l-20,1.26,1.29,20.53Z"/><polygon class="cls-1" points="535.19 128.11 537.4 163.32 567.2 163.34 535.19 128.11"/><polygon class="cls-1" points="36.35 90.2 10.36 91.83 10.31 162.96 40.92 162.98 36.35 90.2"/><path class="cls-1" d="M819.33,54.77a25.38,25.38,0,0,0-19.11,9.73c-4.79,5.81-7,13-6.45,21.73s3.64,15.58,9.13,20.92a27.42,27.42,0,0,0,39.29-2.47c4.78-6,7-13.23,6.44-21.9S845,67.19,839.51,62A25.4,25.4,0,0,0,819.33,54.77Z"/><path class="cls-1" d="M34.29,57.46l73.62-4.63L110,85.57,74.4,87.81,79.13,163l179.12.12-4.79-76.28-35.22,2.22-2.06-32.74L325,49.49l2.06,32.74-35.57,2.23,4.95,78.7,204.34.14-6.07-96.61,32.39-2,51.16,56.8-7.23-115-34,0a41.38,41.38,0,0,1,2.12,11c.74,11.68-2.9,21.68-11.09,29.83-8,8.15-19.11,12.57-33.27,13.46l-18.93,1.19,2.71,43.19-38.05,2.39L434.17,6.4,10.42,6.11l0,52.85Zm356-31.62,59,121.37-40.88,2.57-10.3-22.62-40.35,2.53-7.57,23.75-39.29,2.47L354,28.12ZM175,21.83,234,143.2l-40.88,2.57-10.3-22.63-40.36,2.54-7.56,23.75L95.62,151.9,138.76,24.11Z"/><path class="cls-1" d="M998.41,94.15c-7.91,7.07-18.67,11.12-32.3,12l-65.48,4.12L894.12,6.71,660.4,6.55l2.29,36.39,37.87-2.38-1.75-27.84,38.05-2.4,7.79,123.89-38,2.39-4-62.95L664.77,76l3.07,48.84-38.05,2.39L622.2,6.52H607.32l3.33,52.89,4.24,67.51,2.29,36.46,382.82.26,0-71C999.52,93.11,999,93.64,998.41,94.15Zm-126.91,33c-11.78,13.36-27.14,20.54-46.25,21.74s-35.44-4.17-48.8-15.94S756,106.37,754.83,88.67C753.71,70.8,759,55.37,770.73,42S798,21.29,817.15,20.08s35.26,4.18,48.62,16,20.49,26.43,21.62,44.3S883.27,113.83,871.5,127.18Z"/></g></svg>