<svg id="Layer_1" data-name="Layer 1" xmlns="http://www.w3.org/2000/svg" xmlns:xlink="http://www.w3.org/1999/xlink" viewBox="0 0 471.39 284.82"><defs><style>.cls-1{fill:#fbb03b;}.cls-2{fill:#d81919;}.cls-3{fill:url(#linear-gradient);}.cls-4{fill:url(#linear-gradient-2);}.cls-5{fill:url(#linear-gradient-3);}</style><linearGradient id="linear-gradient" x1="345.65" y1="36.89" x2="443.14" y2="180.29" gradientUnits="userSpaceOnUse"><stop offset="0" stop-color="#fbb03b"/><stop offset="1" stop-color="#d81919"/></linearGradient><linearGradient id="linear-gradient-2" x1="349.11" y1="34.53" x2="446.6" y2="177.94" gradientTransform="matrix(0.79, 0.68, -0.62, 0.86, 151.5, -253.52)" xlink:href="#linear-gradient"/><linearGradient id="linear-gradient-3" x1="351.9" y1="32.63" x2="449.4" y2="176.04" gradientTransform="translate(181.72 -233.68) rotate(38.11)" xlink:href="#linear-gradient"/></defs><path d="M81,65.33l-4.62.39c-1.06-5.11-2.25-8.82-3.59-11.1a12.19,12.19,0,0,0-6.12-5.12,19.49,19.49,0,0,0-9.21-1.25q-7.25.63-11.53,5a14,14,0,0,0-4.29,10.11,11.52,11.52,0,0,0,3.53,8.53q3.47,3.47,17,8.07T80.45,90.31a20.64,20.64,0,0,1,4.8,13.54,26.1,26.1,0,0,1-3.62,13.23,28.66,28.66,0,0,1-10.89,10.48,37.47,37.47,0,0,1-15.67,4.91,60.13,60.13,0,0,1-11.46-.11,103.89,103.89,0,0,1-13.78-2.58A227,227,0,0,0,30.74,107l4.68-.41q2,9,4.17,12.42a14.26,14.26,0,0,0,6.53,5.43,19,19,0,0,0,9.59,1.52,22.24,22.24,0,0,0,12.58-5.11A15.3,15.3,0,0,0,69.8,98.94q-4-4.17-17.13-8.72T35.06,80.81a16.9,16.9,0,0,1-4.44-12A23.62,23.62,0,0,1,34.21,56.6a27.77,27.77,0,0,1,10.55-9.9,35.49,35.49,0,0,1,14.45-4.56q9-.78,21.78,2.44-.3,8.91-.3,10.73Q80.69,59,81,65.33Z"/><path d="M141.58,84l-4.07,0q-.24-7.68-3.87-11.06t-9.88-2.84a17.86,17.86,0,0,0-8.64,3.21,18.37,18.37,0,0,0-6.48,8.6,33.9,33.9,0,0,0-2.34,12.84q0,11.32,5.5,17.22t12.75,5.27q7.61-.66,18.31-7.6l2.25,3.45a104.56,104.56,0,0,1-15.88,11.29,19.67,19.67,0,0,1-7.42,2q-10.65.92-17.21-4.73-8.7-7.45-8.7-21.51,0-14.55,9.12-24.7a33.12,33.12,0,0,1,22.51-11.31,34.06,34.06,0,0,1,17.58,3.17c-.28,1.41-.69,3.23-1.21,5.46Q142.87,77.15,141.58,84Z"/><path d="M152.29,93.86q0-14.73,8.35-24t21.92-10.47q12.84-1.11,20.37,6t7.52,21q0,15-8.44,24.43t-21.83,10.61q-13,1.11-20.43-6T152.29,93.86ZM164,87.56q0,10,1.28,14.61,2,7.5,6.37,11a13.76,13.76,0,0,0,10.15,3,17,17,0,0,0,12.31-6.75q4.8-6.11,4.81-18.69,0-14.11-5.45-20.43t-12.83-5.68a16.7,16.7,0,0,0-12,6.35Q164,76.67,164,87.56Z"/><path d="M233,42.25l3.53-.3-1.4,15.63L252,55.94l.49.93a50.31,50.31,0,0,0-2.8,5.54q-7.19.3-14.54.83l-.55,31.31v.37c0,4.82.54,8.26,1.61,10.29s2.91,3,5.51,2.72q3.22-.27,8.52-3.47l1.76,3.32a71.83,71.83,0,0,1-10.1,6.31,18.72,18.72,0,0,1-6,1.83,10.33,10.33,0,0,1-6.81-1.51,8.86,8.86,0,0,1-3.71-5.49q-.56-2-.55-12.61,0-11.31.67-32.24c-2.84.32-5.78.71-8.82,1.19V62a31.2,31.2,0,0,0,8.85-7.07A53.12,53.12,0,0,0,233,42.25Z"/><path d="M270.62,39l3.53-.3-1.4,15.63L289.6,52.7l.48.93a52.09,52.09,0,0,0-2.79,5.54q-7.19.3-14.54.83l-.55,31.31v.37q0,7.25,1.61,10.29c1.08,2,2.91,3,5.51,2.72q3.23-.27,8.51-3.47l1.77,3.32a71.83,71.83,0,0,1-10.1,6.31,18.72,18.72,0,0,1-6,1.83,10.38,10.38,0,0,1-6.82-1.51,8.94,8.94,0,0,1-3.71-5.49q-.54-2-.55-12.61,0-11.31.67-32.24c-2.84.32-5.78.71-8.82,1.19V58.73a30.93,30.93,0,0,0,8.85-7.07A53.11,53.11,0,0,0,270.62,39Z"/><path d="M5.77,151.79V148.2q10.15-.21,15.45-.67,6-.51,13-1.78,2.49,6.18,4,9.39,2,4.34,15.85,32.79,5.88,12.09,11.9,23.56l26-56.89q2.37-5.26,5.66-14.31c5.43,0,9.6-.16,12.48-.41q4-.34,13.57-1.84v3.59c-1.22.43-2.13.73-2.74.91q-8.46,2.43-9.43,3.3c-1,.91-1.58,3-1.58,6.29v.79l-.25,19.3q0,36.39.31,44.14a3,3,0,0,0,.94,2.36q.89.71,10.37,1.72a22.43,22.43,0,0,1,2.38.34v3.59q-11,.27-19.29,1-8.52.73-20.14,2.41v-3.59c1.59-.54,2.78-.93,3.59-1.16,5-1.36,7.78-2.27,8.49-2.71a3.3,3.3,0,0,0,1.43-1.74c.37-1.2.55-4.51.55-9.9V155.56q-5.53,11.43-25,54.9-5.34,12-7.89,18.26l-3.47.3Q48.27,200,28.52,161.57l.79,56.63q0,6.75,1.1,7.63c.73.59,3.79,1.11,9.18,1.58.61.07,1.54.19,2.8.37v3.59q-10.53.24-17,.8T8.14,234.32v-3.59a23.93,23.93,0,0,1,2.62-.83q8-2.28,9-3.52,1.45-1.83,1.52-8.46l.3-13.72q.32-18.76.31-36.34l-.06-7.42q0-4.44-.55-5.52a2.84,2.84,0,0,0-1.76-1.46c-1.55-.47-5-.89-10.35-1.24C8.4,152.17,7.27,152,5.77,151.79Z"/><path d="M126.47,171.62v-3.4a132,132,0,0,0,20.38-4.44l1.52,1a219.77,219.77,0,0,0-1.28,25.66q0,13.08.82,16.63a8.49,8.49,0,0,0,3.56,5.38A9.93,9.93,0,0,0,158,214a16.67,16.67,0,0,0,8.24-3.08,14.63,14.63,0,0,0,5.39-6.49q1.52-3.78,1.52-11.38,0-.92-.37-20.47c-.2-1.73-.72-2.86-1.55-3.4s-3.13-.74-6.9-.62h-2.19v-3.41a146.51,146.51,0,0,0,20.32-4.43l1.58,1q-.56,5.1-.82,12.69t-.28,17.7q0,12.72.67,15c.45,1.54,1.58,2.24,3.41,2.08a56.81,56.81,0,0,0,6.39-1.28v3.41a100.34,100.34,0,0,0-10.56,4.25,75.8,75.8,0,0,0-9.09,5.29L172,219.72a62.77,62.77,0,0,0,.91-9.09q-7.17,7.32-10.76,9.45a18.76,18.76,0,0,1-8,2.52q-8.4.72-12.54-3.06t-4.19-12.11V186.14q-.06-11.37-1.31-13c-.83-1.06-3.32-1.56-7.45-1.49Q127.87,171.68,126.47,171.62Z"/><path d="M196.61,140v-3.41A140.72,140.72,0,0,0,216.2,127l1.64,1q-1.46,11.56-1.46,42.65,0,31.38.25,34.68c.16,2.2.61,3.64,1.36,4.33s3.68,1.51,8.79,2.49v3.41q-9.76.18-15.17.64-5.78.49-14.94,1.95v-3.4q8.22-3.27,9-4.06c.48-.53.78-1.73.91-3.6q.18-3.73.18-33.54l-.12-28.89v-.85c0-2.23-.31-3.66-.92-4.3a3.34,3.34,0,0,0-2.85-.79A44.09,44.09,0,0,0,196.61,140Z"/><path d="M230.37,137.12v-3.41A140.72,140.72,0,0,0,250,124.05l1.65,1q-1.47,11.56-1.46,42.65,0,31.4.24,34.68c.16,2.2.62,3.64,1.37,4.33s3.68,1.51,8.79,2.49v3.41q-9.78.18-15.18.64-5.76.49-14.94,2v-3.41q8.23-3.27,8.95-4.06c.48-.53.79-1.73.91-3.6q.18-3.73.18-33.54l-.12-28.89v-.85c0-2.23-.3-3.66-.91-4.3a3.37,3.37,0,0,0-2.86-.79A44.4,44.4,0,0,0,230.37,137.12Z"/><path d="M313.78,193.26l2.31,3.39-12.12,10a20.45,20.45,0,0,1-5.18,2.94,29.27,29.27,0,0,1-8,1.84,20.05,20.05,0,0,1-17-6.5q-7-7.36-7-20.93,0-14.61,8.44-24.15a30.12,30.12,0,0,1,20.62-10.6q9.45-.81,14.59,3.94t5.27,15.46a24.81,24.81,0,0,0-4.66,4l-5.42.4q-16.12,1.4-28.07,2.91-.06,13.63,4.63,20.22t12.53,6a26,26,0,0,0,8.27-2.26A63.09,63.09,0,0,0,313.78,193.26ZM305,167.38c-.24-4-1.14-7-2.68-8.9a10,10,0,0,0-9.21-3.77,14.29,14.29,0,0,0-8.9,4.21q-3.9,3.77-5.8,11.84c1.51-.09,2.65-.17,3.42-.23Q291.79,169.66,305,167.38Z"/><path d="M321.08,158.93V155.4A78.54,78.54,0,0,0,340.91,146l1.65.89a83.51,83.51,0,0,0-1,10.73l7.73-8.33a16.6,16.6,0,0,1,4.56-3.07,22.3,22.3,0,0,1,7.48-2q8.7-.75,13.14,4.65,3,3.57,3,12.94l-.19,14.74c0,9.86.12,15.66.37,17.43a3.78,3.78,0,0,0,1.15,2.45q.86.66,5.78,1.39c.61.11,1.52.26,2.74.44v3.4q-7.2,0-12.8.44-4.87.42-16.71,2.1v-3.4c4.74-1.79,7.41-2.95,8-3.49a3.72,3.72,0,0,0,1.08-2.46,184.24,184.24,0,0,0,.67-18.5q0-13.26-.55-16a9.28,9.28,0,0,0-3.59-5.89,9.48,9.48,0,0,0-6.57-1.63,17.47,17.47,0,0,0-13.66,9.82q-1.85,4.11-1.85,11.84,0,21.9.91,23.61t7.12,2.77c.53.07,1.3.21,2.31.41v3.4q-8.16,0-13.72.52c-3.57.3-8.9,1-16,2v-3.41c4.82-1.55,7.56-2.61,8.21-3.2A4.46,4.46,0,0,0,331,198a147.58,147.58,0,0,0,.67-15.81q0-20.62-.43-22.35c-.45-1.67-1.64-2.41-3.59-2.25a33.58,33.58,0,0,0-4.2.79Q322.67,158.62,321.08,158.93Z"/><path d="M402.56,110.77a58.78,58.78,0,1,1,10-82.53A58.84,58.84,0,0,1,402.56,110.77ZM336.41,26.44a48.4,48.4,0,1,0,67.95,8.21A48.45,48.45,0,0,0,336.41,26.44Z"/><rect x="396.35" y="105.01" width="15.69" height="15.69" transform="translate(16.52 273.54) rotate(-38.11)"/><rect x="419.3" y="110.1" width="31.15" height="83.72" rx="3.89" transform="translate(-1.08 300.81) rotate(-38.11)"/><path class="cls-1" d="M75.22,59.56,70.6,60Q69,52.28,67,48.85a12.26,12.26,0,0,0-6.11-5.12,19.65,19.65,0,0,0-9.22-1.25q-7.24.63-11.53,5a14,14,0,0,0-4.29,10.11,11.52,11.52,0,0,0,3.53,8.53q3.47,3.47,17,8.07T74.69,84.55a20.65,20.65,0,0,1,4.79,13.54,26,26,0,0,1-3.62,13.23A28.71,28.71,0,0,1,65,121.79a37.28,37.28,0,0,1-15.66,4.91,60.23,60.23,0,0,1-11.47-.1A102.79,102.79,0,0,1,24.06,124,227,227,0,0,0,25,101.18l4.69-.4q2,9,4.16,12.41a14.26,14.26,0,0,0,6.53,5.43,19,19,0,0,0,9.6,1.52A22.23,22.23,0,0,0,62.52,115,15.31,15.31,0,0,0,64,93.17q-4-4.15-17.13-8.72T29.29,75a16.87,16.87,0,0,1-4.44-12,23.65,23.65,0,0,1,3.59-12.26A27.81,27.81,0,0,1,39,40.93a35.44,35.44,0,0,1,14.44-4.56q9-.78,21.78,2.44-.3,8.91-.3,10.74Q74.92,53.26,75.22,59.56Z"/><path class="cls-1" d="M135.82,78.19l-4.08,0q-.24-7.67-3.86-11.06T118,64.33a18,18,0,0,0-8.64,3.21,18.5,18.5,0,0,0-6.48,8.6A33.9,33.9,0,0,0,100.53,89q0,11.34,5.51,17.22t12.74,5.27q7.6-.66,18.31-7.6l2.26,3.46a105.6,105.6,0,0,1-15.88,11.28,19.36,19.36,0,0,1-7.43,2q-10.64.91-17.21-4.72-8.7-7.47-8.7-21.52,0-14.53,9.12-24.69a33.14,33.14,0,0,1,22.51-11.31,33.88,33.88,0,0,1,17.59,3.17c-.29,1.4-.69,3.22-1.22,5.45Q137.1,71.38,135.82,78.19Z"/><path class="cls-1" d="M146.52,88.09q0-14.72,8.35-24t21.92-10.46q12.86-1.11,20.37,6t7.52,21q0,15-8.43,24.42t-21.83,10.61q-13,1.11-20.43-6T146.52,88.09Zm11.68-6.3q0,10,1.28,14.61,2,7.5,6.37,11a13.72,13.72,0,0,0,10.15,3,17,17,0,0,0,12.31-6.75q4.81-6.09,4.81-18.69,0-14.12-5.45-20.43t-12.83-5.68a16.72,16.72,0,0,0-12,6.36Q158.2,70.89,158.2,81.79Z"/><path class="cls-1" d="M227.25,36.48l3.53-.3-1.4,15.63,16.85-1.63.49.92a52.13,52.13,0,0,0-2.8,5.54q-7.17.3-14.54.83l-.54,31.32v.36c0,4.83.53,8.26,1.61,10.3s2.91,2.94,5.5,2.72q3.23-.28,8.52-3.48l1.76,3.32a71.87,71.87,0,0,1-10.09,6.31,18.52,18.52,0,0,1-6,1.83,10.35,10.35,0,0,1-6.81-1.51,8.9,8.9,0,0,1-3.71-5.49q-.56-2-.55-12.61,0-11.31.67-32.24c-2.84.32-5.78.71-8.82,1.19V56.2a30.76,30.76,0,0,0,8.85-7.07A52.92,52.92,0,0,0,227.25,36.48Z"/><path class="cls-1" d="M264.85,33.24l3.53-.3L267,48.57l16.85-1.63.49.92a50.31,50.31,0,0,0-2.8,5.54q-7.18.3-14.54.83l-.55,31.32v.36q0,7.25,1.61,10.3c1.08,2,2.91,2.94,5.51,2.72q3.22-.29,8.52-3.48l1.76,3.32a73.1,73.1,0,0,1-10.1,6.32,18.42,18.42,0,0,1-6,1.82,10.33,10.33,0,0,1-6.81-1.51,8.91,8.91,0,0,1-3.72-5.49q-.54-2-.54-12.61,0-11.31.67-32.24c-2.84.32-5.78.71-8.82,1.19V53a31,31,0,0,0,8.85-7.07A52.92,52.92,0,0,0,264.85,33.24Z"/><path class="cls-2" d="M0,146v-3.59q10.15-.21,15.46-.66,6-.53,13-1.79,2.47,6.18,4,9.4,2,4.34,15.85,32.78,5.9,12.09,11.9,23.57l26-56.9q2.39-5.27,5.66-14.31,8.16,0,12.48-.4,4-.36,13.57-1.84v3.59c-1.22.43-2.13.73-2.74.9q-8.46,2.43-9.43,3.31-1.58,1.35-1.58,6.28v.79l-.24,19.31q0,36.38.3,44.14a3,3,0,0,0,.94,2.35q.89.7,10.38,1.72c.52,0,1.32.15,2.37.34v3.59q-10.95.28-19.29,1-8.51.72-20.13,2.4v-3.59c1.58-.54,2.78-.93,3.59-1.16,4.95-1.36,7.77-2.26,8.48-2.71a3.28,3.28,0,0,0,1.43-1.73q.56-1.81.55-9.91V149.79q-5.53,11.43-25,54.9-5.35,12-7.9,18.26l-3.47.3Q42.52,194.2,22.75,155.8l.79,56.63c0,4.5.37,7,1.1,7.63s3.79,1.12,9.18,1.58c.61.07,1.55.2,2.8.37v3.59q-10.51.24-17,.8T2.37,228.55V225A26.4,26.4,0,0,1,5,224.13q8-2.28,9-3.51c1-1.22,1.48-4.05,1.52-8.47l.31-13.71q.3-18.76.3-36.35l-.06-7.42q0-4.44-.55-5.52a2.87,2.87,0,0,0-1.76-1.46q-2.31-.7-10.34-1.23C2.64,146.4,1.5,146.26,0,146Z"/><path class="cls-2" d="M120.7,165.86v-3.41A132,132,0,0,0,141.08,158l1.52,1a219.77,219.77,0,0,0-1.28,25.66q0,13.08.82,16.63a8.5,8.5,0,0,0,3.56,5.38,10,10,0,0,0,6.57,1.5,16.74,16.74,0,0,0,8.25-3.08,14.5,14.5,0,0,0,5.38-6.49q1.51-3.78,1.52-11.38,0-.91-.36-20.47c-.21-1.73-.72-2.86-1.56-3.4s-3.13-.74-6.9-.62h-2.19v-3.41a146.51,146.51,0,0,0,20.32-4.43l1.58,1q-.54,5.1-.82,12.7t-.27,17.69q0,12.72.66,15c.45,1.55,1.59,2.24,3.41,2.08a53.71,53.71,0,0,0,6.39-1.28v3.41a100.34,100.34,0,0,0-10.56,4.25,78,78,0,0,0-9.09,5.29L166.2,214a62.8,62.8,0,0,0,.92-9.08q-7.19,7.31-10.77,9.44a18.72,18.72,0,0,1-8,2.52q-8.4.72-12.53-3.06t-4.2-12.11V180.37q-.06-11.37-1.31-13t-7.45-1.49C122.34,165.92,121.63,165.9,120.7,165.86Z"/><path class="cls-2" d="M190.84,134.26v-3.41a141.84,141.84,0,0,0,19.59-9.65l1.64,1q-1.45,11.57-1.46,42.65,0,31.39.25,34.69c.16,2.19.62,3.63,1.37,4.32s3.68,1.52,8.79,2.5v3.4q-9.78.18-15.18.64-5.76.5-14.94,2V208.9q8.22-3.26,8.95-4.06c.48-.52.79-1.73.91-3.6q.18-3.74.18-33.54l-.12-28.89V138c0-2.23-.3-3.66-.91-4.3a3.37,3.37,0,0,0-2.86-.79A44.09,44.09,0,0,0,190.84,134.26Z"/><path class="cls-2" d="M224.61,131.35v-3.41a141.84,141.84,0,0,0,19.59-9.65l1.64.95q-1.46,11.57-1.46,42.65,0,31.4.24,34.69c.16,2.19.62,3.63,1.37,4.32s3.68,1.52,8.79,2.5v3.4c-6.52.12-11.57.33-15.18.64q-5.76.5-14.93,2V206c5.48-2.17,8.46-3.53,9-4.05s.78-1.74.9-3.61q.18-3.74.19-33.54l-.13-28.88v-.86c0-2.23-.3-3.66-.91-4.3a3.4,3.4,0,0,0-2.86-.79A44.37,44.37,0,0,0,224.61,131.35Z"/><path class="cls-2" d="M308,187.49l2.32,3.39-12.13,10a20.4,20.4,0,0,1-5.17,2.94,29.29,29.29,0,0,1-8,1.85,20,20,0,0,1-17-6.51q-7-7.36-7-20.93,0-14.61,8.43-24.15a30.14,30.14,0,0,1,20.62-10.6q9.45-.81,14.59,3.95T310,162.87a25.45,25.45,0,0,0-4.66,4c-2.88.21-4.69.34-5.42.41q-16.12,1.38-28.06,2.9-.06,13.64,4.62,20.23t12.53,6a25.72,25.72,0,0,0,8.28-2.26A63.46,63.46,0,0,0,308,187.49Zm-8.82-25.88c-.24-4-1.14-7-2.68-8.9a10,10,0,0,0-9.21-3.77,14.31,14.31,0,0,0-8.9,4.21q-3.9,3.76-5.79,11.84c1.5-.08,2.64-.16,3.41-.23Q286,163.91,299.19,161.61Z"/><path class="cls-2" d="M315.31,153.16v-3.53a78.43,78.43,0,0,0,19.84-9.43l1.64.89a85.68,85.68,0,0,0-1,10.74l7.73-8.33a16.38,16.38,0,0,1,4.56-3.07,22.61,22.61,0,0,1,7.49-2q8.7-.75,13.14,4.65,3,3.57,3,12.94l-.18,14.74q0,14.79.36,17.43a3.79,3.79,0,0,0,1.16,2.46c.56.43,2.49.9,5.78,1.38.6.11,1.52.26,2.73.44v3.4q-7.19,0-12.8.44-4.87.42-16.7,2.11V195c4.73-1.79,7.4-3,8-3.49a3.74,3.74,0,0,0,1.07-2.46,184.15,184.15,0,0,0,.67-18.49q0-13.26-.55-16a9.26,9.26,0,0,0-3.59-5.89A9.53,9.53,0,0,0,351,147.1a16.42,16.42,0,0,0-7.9,3,16.15,16.15,0,0,0-5.75,6.79q-1.86,4.11-1.86,11.84,0,21.9.91,23.62t7.12,2.76c.53.08,1.3.21,2.31.41V199q-8.16,0-13.72.51-5.36.47-16,2v-3.4c4.81-1.55,7.55-2.62,8.2-3.2a4.42,4.42,0,0,0,.86-2.63,145.18,145.18,0,0,0,.67-15.82q0-20.62-.43-22.35-.66-2.49-3.59-2.24a32.7,32.7,0,0,0-4.19.78C317.16,152.78,316.37,153,315.31,153.16Z"/><path class="cls-3" d="M396.79,105a58.77,58.77,0,1,1,10-82.52A58.84,58.84,0,0,1,396.79,105ZM330.65,20.68a48.39,48.39,0,1,0,67.94,8.2A48.44,48.44,0,0,0,330.65,20.68Z"/><rect class="cls-4" x="391.04" y="99.09" width="15.69" height="17.16" transform="translate(18.59 269.15) rotate(-38.11)"/><rect class="cls-5" x="413.53" y="104.33" width="31.15" height="83.72" rx="3.89" transform="translate(1.25 296.02) rotate(-38.11)"/><path d="M20.47,284.82V256.43l12.25-1q10.41-.88,10.42,7.45t-11.59,9.41l-2.85.24v11.63Zm8.23-14.95,1.85-.16q4.5-.37,4.5-6.33,0-5.56-4.5-5.19l-1.85.16Z"/><path d="M45.9,282.65V254.26l12.21-1a12.32,12.32,0,0,1,7.61,1.36,5.69,5.69,0,0,1,2.85,5.14q0,5.16-6.11,7.24c2.09.59,3.45,1.33,4.06,2.21s1,2.64,1.26,5.3c.27,3.16.8,5.23,1.6,6.18l-8.94.77a11.93,11.93,0,0,1-.85-4.86l0-1.68,0-2.12c0-3.27-1.31-4.8-4-4.57l-1.41.12V282ZM54.14,266l1.66-.14q4.68-.4,4.68-5.29c0-3.26-1.56-4.75-4.68-4.49l-1.66.14Z"/><path d="M81.07,251.27v28.39l-8.23.7V252Z"/><path d="M106.47,249.11,98.23,278.2l-7.38.63-7.53-27.75,8.32-.71,5.61,21,6.14-22Z"/><path d="M121.52,247.82l7.91,27.72-8.28.71-1.68-6-8.55.73-1.81,6.31-3.23.28,8.41-29.11ZM111.73,268l7-.59-3.35-12.3Z"/><path d="M151.58,245.26v2.85l-7,.6v25.54l-8.73.74V249.45l-7,.6V247.2Z"/><path d="M172.11,243.52v2.85l-10.17.86v8.59l8.54-.73v2.85l-8.54.73v11.25l11.89-1v2.85l-20.13,1.71V245.08Z"/><path d="M197.44,241.36v28.39l-8.24.7V242.06Z"/><path d="M223.12,239.17v28.39l-6.3.54-11.85-17v18l-2.77.23V241l5.22-.44,12.94,18.3v-19.4Z"/><path d="M248.33,237l-8.23,29.09-7.39.63L225.18,239l8.32-.71,5.62,21,6.13-22Z"/><path d="M268.88,235.27v2.85l-10.17.87v8.59l8.55-.73v2.85l-8.55.73v11.25l11.9-1v2.85l-20.14,1.71V236.84Z"/><path d="M291.74,241.27l-3.83,1a9.42,9.42,0,0,0,.25-1.94q0-5-6-4.44-4.74.4-4.74,3.82c0,1.7,1.77,3,5.3,3.93Q293,246.33,293,253.21a8.83,8.83,0,0,1-2.87,6.72,12.3,12.3,0,0,1-7.64,3.1q-10.54.9-10.54-7.28a16,16,0,0,1,.1-1.65l4-1.21a13.73,13.73,0,0,0-.45,3.18c0,3.52,2,5.11,6.05,4.77q4.85-.42,4.84-4.22,0-2.84-5.8-4.48-8.39-2.37-8.38-9.12a8.36,8.36,0,0,1,2.8-6.41,11.91,11.91,0,0,1,7.35-3Q291.74,232.84,291.74,241.27Z"/><path d="M316.49,231.22v2.85l-7,.59V260.2l-8.73.75V235.41l-7,.59v-2.85Z"/><path d="M326.89,230.33v28.39l-8.24.7V231Z"/><path d="M342.92,242l11.69-1v15.33l-2.62.23-.89-1.88a13.47,13.47,0,0,1-7.26,3c-4.2.36-7.46-.63-9.79-2.94s-3.48-5.77-3.48-10.35a16.79,16.79,0,0,1,3.69-11.11,13.52,13.52,0,0,1,9.66-5q7.86-.66,9.57,7.22l-3.87,2.09V237l-.06-1.54c-.27-3.31-1.81-4.85-4.64-4.61a4.67,4.67,0,0,0-4.26,3q-1.16,2.76-1.15,10,0,6.78.93,9.14a3.14,3.14,0,0,0,3.52,2.13q3.06-.27,3.06-3.67v-7l-4.1.35Z"/><path d="M371.56,226.53l7.91,27.71-8.28.71-1.69-6-8.55.73-1.8,6.31-3.23.27,8.4-29.1Zm-9.79,20.22,7-.6-3.35-12.29Z"/><path d="M401.62,224v2.85l-7,.59V253l-8.74.75V228.16l-7,.59V225.9Z"/><path d="M415.36,222.3q12.4-1.05,12.4,13.63t-12.63,15.76q-12.61,1.06-12.62-13.95Q402.51,223.4,415.36,222.3Zm-.23,2.29a3.52,3.52,0,0,0-3.15,2.83c-.54,1.76-.82,5.07-.82,9.92s.28,8.11.82,9.78a2.87,2.87,0,0,0,3.15,2.3,3.53,3.53,0,0,0,3.16-2.84c.54-1.76.82-5.06.82-9.92s-.28-8.09-.82-9.76S416.69,224.45,415.13,224.59Z"/><path d="M431.4,249.82V221.43l12.21-1q4.75-.4,7.61,1.36a5.69,5.69,0,0,1,2.85,5.14c0,3.43-2,5.85-6.12,7.23,2.1.6,3.45,1.34,4.07,2.22s1,2.64,1.26,5.3c.26,3.16.8,5.22,1.6,6.18l-8.94.76a11.87,11.87,0,0,1-.86-4.85l0-1.68,0-2.12c0-3.27-1.32-4.8-3.95-4.57l-1.41.12v13.64Zm8.24-16.69,1.66-.15q4.68-.39,4.68-5.28t-4.68-4.49l-1.66.14Z"/><path class="cls-1" d="M17.24,281.6V253.21l12.25-1.05q10.43-.89,10.42,7.46T28.33,269l-2.85.24V280.9Zm8.24-15,1.85-.16c3-.25,4.49-2.36,4.49-6.33,0-3.72-1.49-5.45-4.49-5.19l-1.85.16Z"/><path class="cls-1" d="M42.68,279.43V251l12.21-1q4.76-.41,7.61,1.36a5.68,5.68,0,0,1,2.85,5.13q0,5.16-6.12,7.24c2.1.6,3.45,1.34,4.07,2.21s1,2.65,1.26,5.3c.26,3.17.8,5.23,1.6,6.19l-8.94.76a11.88,11.88,0,0,1-.85-4.85l0-1.69,0-2.11q0-4.92-4-4.57l-1.41.12v13.64Zm8.24-16.69,1.66-.15q4.68-.39,4.68-5.28t-4.68-4.49l-1.66.14Z"/><path class="cls-1" d="M77.85,248.05v28.39l-8.24.7V248.75Z"/><path class="cls-1" d="M103.24,245.88,95,275l-7.39.63L80.1,247.85l8.31-.7,5.62,21,6.14-22Z"/><path class="cls-1" d="M118.3,244.6l7.91,27.72-8.28.7-1.69-6-8.54.73-1.81,6.31-3.23.27,8.4-29.1Zm-9.79,20.22,7-.6-3.35-12.29Z"/><path class="cls-1" d="M148.36,242v2.85l-7,.59V271l-8.74.75V246.23l-7,.59V244Z"/><path class="cls-1" d="M168.88,240.29v2.85l-10.17.87v8.59l8.55-.73v2.85l-8.55.73V266.7l11.9-1v2.84l-20.13,1.72V241.86Z"/><path class="cls-1" d="M194.22,238.13v28.39l-8.24.71V238.84Z"/><path class="cls-1" d="M219.9,236v28.39l-6.3.53-11.86-17v18l-2.76.24V237.73l5.22-.45,12.94,18.31V236.18Z"/><path class="cls-1" d="M245.11,233.8l-8.24,29.09-7.38.63L222,235.77l8.32-.71,5.62,21,6.13-22Z"/><path class="cls-1" d="M265.66,232.05v2.85l-10.17.87v8.59l8.55-.73v2.85l-8.55.72v11.26l11.89-1v2.85L247.25,262V233.62Z"/><path class="cls-1" d="M288.52,238.05l-3.83,1a9.34,9.34,0,0,0,.25-1.93q0-5-6-4.44-4.74.4-4.74,3.81c0,1.71,1.76,3,5.3,3.94q10.23,2.64,10.23,9.53a8.8,8.8,0,0,1-2.87,6.72,12.32,12.32,0,0,1-7.63,3.09q-10.55.9-10.55-7.27a16.35,16.35,0,0,1,.11-1.65l4-1.21a13.8,13.8,0,0,0-.46,3.17q0,5.29,6.06,4.77,4.84-.41,4.84-4.22,0-2.82-5.8-4.47-8.38-2.37-8.38-9.13a8.36,8.36,0,0,1,2.79-6.4,12,12,0,0,1,7.36-3Q288.52,229.63,288.52,238.05Z"/><path class="cls-1" d="M313.27,228v2.84l-7,.6V257l-8.74.74V232.18l-7,.6v-2.85Z"/><path class="cls-1" d="M323.66,227.11V255.5l-8.23.7V227.81Z"/><path class="cls-1" d="M339.7,238.81l11.69-1v15.33l-2.62.22-.9-1.88a13.26,13.26,0,0,1-7.25,3.05q-6.31.54-9.79-2.94t-3.48-10.34A16.82,16.82,0,0,1,331,230.13a13.55,13.55,0,0,1,9.66-4.95q7.86-.68,9.57,7.21l-3.87,2.1v-.69l-.06-1.53c-.27-3.32-1.81-4.86-4.64-4.62a4.72,4.72,0,0,0-4.27,3q-1.14,2.76-1.14,10,0,6.78.93,9.13a3.15,3.15,0,0,0,3.52,2.14c2-.18,3.06-1.4,3.06-3.68v-7l-4.1.34Z"/><path class="cls-1" d="M368.34,223.3l7.9,27.72-8.27.71-1.69-6-8.55.73-1.81,6.31-3.22.28,8.4-29.11Zm-9.8,20.22,7-.59-3.35-12.3Z"/><path class="cls-1" d="M398.39,220.75v2.84l-7,.6v25.54l-8.74.74V224.93l-7,.6v-2.85Z"/><path class="cls-1" d="M412.14,219.08q12.39-1.07,12.4,13.62t-12.63,15.76q-12.63,1.08-12.62-13.94Q399.29,220.16,412.14,219.08Zm-.23,2.28a3.53,3.53,0,0,0-3.15,2.84c-.55,1.76-.82,5.06-.82,9.92s.27,8.11.82,9.77,1.6,2.44,3.15,2.3a3.52,3.52,0,0,0,3.15-2.83q.82-2.64.82-9.92c0-4.84-.27-8.09-.82-9.77A2.87,2.87,0,0,0,411.91,221.36Z"/><path class="cls-1" d="M428.18,246.6V218.21l12.2-1q4.77-.4,7.62,1.36a5.66,5.66,0,0,1,2.85,5.13q0,5.16-6.12,7.24c2.1.6,3.45,1.34,4.07,2.21s1,2.65,1.26,5.3q.39,4.76,1.6,6.19l-9,.76a12.1,12.1,0,0,1-.85-4.86l0-1.68,0-2.12q0-4.9-3.95-4.57l-1.42.12V245.9Zm8.23-16.7,1.67-.14c3.12-.26,4.68-2,4.68-5.29s-1.56-4.75-4.68-4.48l-1.67.14Z"/></svg>