<svg id="Layer_1" data-name="Layer 1" xmlns="http://www.w3.org/2000/svg" xmlns:xlink="http://www.w3.org/1999/xlink" viewBox="0 0 471.39 304.2"><defs><style>.cls-1{fill:#d81919;}.cls-2{fill:#fbb03b;}.cls-3{fill:url(#linear-gradient);}.cls-4{fill:url(#linear-gradient-2);}.cls-5{fill:url(#linear-gradient-3);}</style><linearGradient id="linear-gradient" x1="345.65" y1="56.27" x2="443.14" y2="199.68" gradientUnits="userSpaceOnUse"><stop offset="0" stop-color="#fbb03b"/><stop offset="1" stop-color="#d81919"/></linearGradient><linearGradient id="linear-gradient-2" x1="330.02" y1="29.58" x2="427.51" y2="172.99" gradientTransform="matrix(0.79, 0.68, -0.62, 0.86, 163.46, -216.98)" xlink:href="#linear-gradient"/><linearGradient id="linear-gradient-3" x1="351.9" y1="52.02" x2="449.4" y2="195.42" gradientTransform="translate(193.68 -229.55) rotate(38.11)" xlink:href="#linear-gradient"/></defs><path d="M98.6,37.82l17.16-1.48V41.5l-11,1v6.31l9.41-.82V53.1l-9.41.81V64.49L98.6,65Z"/><path d="M120.46,35.93l17-1.47v5.16l-10.89.94V46l9.27-.8v5.16l-9.27.8v6.26l11.31-1v5.15l-17.46,1.51Z"/><path d="M148.39,33.52l7.36-.64,8.54,26.46-6.51.57-3.56-13.47c-.75-2.66-1.48-5.81-2.21-8.58h-.16c-.66,2.93-1.39,6.17-2.14,9l-3.57,14.08-6.29.55Zm-2.91,16.19,13.09-1.13v4.78l-13.09,1.13Z"/><path d="M169.51,36.85l-7.48.64V32.34l21.12-1.83v5.16l-7.49.65v22l-6.15.53Z"/><path d="M187.24,44.75V30.16l6.15-.53V44.85c0,5.33,1.68,7,4.72,6.76s4.82-2.26,4.82-7.58V28.8l5.93-.51V42.88c0,9.14-3.71,13.43-10.75,14S187.24,53.89,187.24,44.75Z"/><path d="M215.15,27.74l9.79-.84c5.77-.5,10.5,1.09,10.5,7.56,0,6.25-4.73,9.35-10.5,9.85l-3.65.32v9.78l-6.14.53Zm9.29,11.73c3.23-.28,5-1.81,5-4.49s-1.74-3.44-5-3.16l-3.15.28v7.64Zm-.62,3.32,4.25-4.31,8.68,14.6-6.88.59Z"/><path d="M240.73,25.53l6.14-.53V52.2l-6.14.53Z"/><path d="M253.29,24.45l6.3-.55,7.09,12.92,2.69,5.74.17,0c-.29-2.85-.78-6.62-.78-9.82V23.11l5.85-.51V49.8l-6.3.55-7.09-13-2.69-5.71-.17,0c.29,3,.79,6.57.79,9.78v9.65l-5.86.51Z"/><path d="M279.75,35.92c0-9,6-14.78,13.26-15.41a10.86,10.86,0,0,1,8.58,2.79l-3.24,4.22a6.53,6.53,0,0,0-5.14-1.72c-4.18.37-7.16,3.91-7.16,9.36,0,5.6,2.53,8.63,7.65,8.18a5.18,5.18,0,0,0,2.88-1.06V37.59l-4.5.39V33l10-.86V44.64a14.38,14.38,0,0,1-9,4.07C285.58,49.36,279.75,45.08,279.75,35.92Z"/><path class="cls-1" d="M93.34,32.57l17.16-1.49v5.16l-11,.95V43.5l9.41-.82v5.16l-9.41.82V59.24l-6.15.53Z"/><path class="cls-1" d="M115.21,30.68l17-1.48v5.16l-10.9.94v5.46l9.28-.8v5.16l-9.28.8v6.27l11.31-1v5.16l-17.45,1.51Z"/><path class="cls-1" d="M143.13,28.26l7.36-.64L159,54.09l-6.51.56L149,41.18c-.76-2.65-1.49-5.81-2.21-8.58h-.17c-.66,2.93-1.38,6.18-2.14,9l-3.57,14.09-6.29.54Zm-2.91,16.19,13.09-1.13V48.1l-13.09,1.13Z"/><path class="cls-1" d="M164.26,31.59l-7.49.65V27.08l21.12-1.83v5.16l-7.48.65v22l-6.15.53Z"/><path class="cls-1" d="M182,39.5V24.9l6.15-.53V39.59c0,5.33,1.67,7,4.72,6.76s4.82-2.26,4.82-7.58V23.54L203.6,23v14.6c0,9.13-3.71,13.42-10.74,14S182,48.63,182,39.5Z"/><path class="cls-1" d="M209.89,22.49l9.79-.85c5.77-.5,10.5,1.1,10.5,7.56,0,6.25-4.73,9.35-10.5,9.85l-3.64.32v9.79l-6.15.53Zm9.29,11.72c3.24-.28,5-1.81,5-4.49s-1.73-3.43-5-3.15l-3.14.27v7.65Zm-.62,3.32,4.25-4.3,8.68,14.59-6.88.59Z"/><path class="cls-1" d="M235.47,20.28l6.15-.54v27.2l-6.15.54Z"/><path class="cls-1" d="M248,19.19l6.3-.55,7.1,12.92,2.69,5.74h.16c-.29-2.85-.78-6.62-.78-9.83V17.85l5.86-.5v27.2l-6.3.54-7.1-13-2.69-5.71-.17,0c.29,3,.79,6.57.79,9.78v9.65l-5.86.51Z"/><path class="cls-1" d="M274.49,30.66c0-9,6-14.78,13.26-15.4A10.81,10.81,0,0,1,296.33,18l-3.24,4.23A6.44,6.44,0,0,0,288,20.55c-4.19.36-7.17,3.9-7.17,9.36s2.54,8.62,7.66,8.18A5.37,5.37,0,0,0,291.33,37v-4.7l-4.51.39v-5l10-.86V39.38a14.35,14.35,0,0,1-9,4.07C280.32,44.1,274.49,39.82,274.49,30.66Z"/><path d="M81,84.71l-4.62.4Q74.78,77.43,72.78,74a12.21,12.21,0,0,0-6.12-5.13,19.49,19.49,0,0,0-9.21-1.24q-7.25.61-11.53,5a14.06,14.06,0,0,0-4.29,10.11,11.52,11.52,0,0,0,3.53,8.53q3.47,3.48,17,8.08T80.45,109.7a20.6,20.6,0,0,1,4.8,13.54,26.15,26.15,0,0,1-3.62,13.23,28.64,28.64,0,0,1-10.89,10.47,37.32,37.32,0,0,1-15.67,4.91,60.13,60.13,0,0,1-11.46-.1,102.5,102.5,0,0,1-13.78-2.59,227,227,0,0,0,.91-22.83l4.68-.4q2,9,4.17,12.42a14.18,14.18,0,0,0,6.53,5.42,18.91,18.91,0,0,0,9.59,1.52,22.23,22.23,0,0,0,12.58-5.1,15.31,15.31,0,0,0,1.51-21.87q-4-4.16-17.13-8.72t-17.61-9.4a16.91,16.91,0,0,1-4.44-12A23.59,23.59,0,0,1,34.21,76a27.79,27.79,0,0,1,10.55-9.91,35.49,35.49,0,0,1,14.45-4.56q9-.78,21.78,2.44-.3,8.91-.3,10.74Q80.69,78.41,81,84.71Z"/><path d="M141.58,103.34l-4.07,0q-.24-7.66-3.87-11.06t-9.88-2.84a18,18,0,0,0-8.64,3.21,18.37,18.37,0,0,0-6.48,8.6,33.9,33.9,0,0,0-2.34,12.84q0,11.34,5.5,17.22t12.75,5.27q7.61-.66,18.31-7.6l2.25,3.46a105.1,105.1,0,0,1-15.88,11.28,19.31,19.31,0,0,1-7.42,2q-10.65.91-17.21-4.72-8.7-7.47-8.7-21.52Q95.9,105,105,94.81A33.12,33.12,0,0,1,127.53,83.5a33.86,33.86,0,0,1,17.58,3.17c-.28,1.4-.69,3.22-1.21,5.46Q142.87,96.53,141.58,103.34Z"/><path d="M152.29,113.24q0-14.71,8.35-24t21.92-10.46q12.84-1.11,20.37,6t7.52,21q0,15-8.44,24.42t-21.83,10.61q-13,1.13-20.43-6T152.29,113.24Zm11.68-6.3q0,10,1.28,14.62,2,7.48,6.37,11a13.75,13.75,0,0,0,10.15,3,17,17,0,0,0,12.31-6.74q4.8-6.11,4.81-18.7,0-14.11-5.45-20.43T180.61,84a16.68,16.68,0,0,0-12,6.36Q164,96.06,164,106.94Z"/><path d="M233,61.63l3.53-.3L235.15,77,252,75.33l.49.92a50.31,50.31,0,0,0-2.8,5.54q-7.19.3-14.54.83l-.55,31.32v.36q0,7.24,1.61,10.3c1.08,2,2.91,2.94,5.51,2.72q3.22-.28,8.52-3.47l1.76,3.31a73.1,73.1,0,0,1-10.1,6.32,18.42,18.42,0,0,1-6,1.82,10.33,10.33,0,0,1-6.81-1.51,8.86,8.86,0,0,1-3.71-5.49q-.56-2-.55-12.61,0-11.31.67-32.24c-2.84.32-5.78.71-8.82,1.19V81.35a31,31,0,0,0,8.85-7.06A53.22,53.22,0,0,0,233,61.63Z"/><path d="M270.62,58.39l3.53-.3-1.4,15.63,16.85-1.63.48.92a53.06,53.06,0,0,0-2.79,5.54q-7.19.3-14.54.83l-.55,31.32v.36q0,7.25,1.61,10.3c1.08,2,2.91,2.94,5.51,2.72q3.23-.28,8.51-3.47l1.77,3.31a73.1,73.1,0,0,1-10.1,6.32,18.42,18.42,0,0,1-6,1.82,10.38,10.38,0,0,1-6.82-1.51,8.94,8.94,0,0,1-3.71-5.49q-.54-2-.55-12.61,0-11.31.67-32.24-4.26.48-8.82,1.19V78.12a30.93,30.93,0,0,0,8.85-7.07A53.2,53.2,0,0,0,270.62,58.39Z"/><path d="M5.77,171.17v-3.59q10.15-.21,15.45-.66,6-.53,13-1.79,2.49,6.18,4,9.4,2,4.33,15.85,32.78,5.88,12.09,11.9,23.57l26-56.9q2.37-5.26,5.66-14.31c5.43,0,9.6-.16,12.48-.4q4-.35,13.57-1.84V161c-1.22.43-2.13.73-2.74.9q-8.46,2.43-9.43,3.31-1.57,1.35-1.58,6.28v.79l-.25,19.31q0,36.38.31,44.14a3,3,0,0,0,.94,2.35q.89.72,10.37,1.72c.53,0,1.32.15,2.38.34v3.59q-11,.28-19.29,1-8.52.74-20.14,2.4v-3.59c1.59-.54,2.78-.93,3.59-1.16q7.42-2,8.49-2.71A3.24,3.24,0,0,0,97.69,238q.56-1.82.55-9.91V174.94q-5.53,11.43-25,54.9-5.34,12-7.89,18.26l-3.47.3Q48.27,219.35,28.52,181l.79,56.63c0,4.5.37,7,1.1,7.63s3.79,1.12,9.18,1.59c.61.06,1.54.19,2.8.36v3.59q-10.53.24-17,.8T8.14,253.7v-3.59a26.4,26.4,0,0,1,2.62-.83q8-2.28,9-3.51,1.45-1.83,1.52-8.47l.3-13.71q.32-18.76.31-36.35l-.06-7.42q0-4.44-.55-5.51a2.81,2.81,0,0,0-1.76-1.46c-1.55-.48-5-.89-10.35-1.24C8.4,171.55,7.27,171.41,5.77,171.17Z"/><path d="M126.47,191V187.6a132,132,0,0,0,20.38-4.43l1.52,1a219.77,219.77,0,0,0-1.28,25.66q0,13.08.82,16.63a8.46,8.46,0,0,0,3.56,5.38,9.93,9.93,0,0,0,6.57,1.51,16.69,16.69,0,0,0,8.24-3.09,14.56,14.56,0,0,0,5.39-6.48q1.52-3.8,1.52-11.39,0-.91-.37-20.47c-.2-1.73-.72-2.86-1.55-3.4s-3.13-.74-6.9-.62h-2.19v-3.41a145.05,145.05,0,0,0,20.32-4.43l1.58,1q-.56,5.1-.82,12.7t-.28,17.7q0,12.7.67,15c.45,1.55,1.58,2.24,3.41,2.08a54.51,54.51,0,0,0,6.39-1.28v3.41A100.17,100.17,0,0,0,182.89,235a75.65,75.65,0,0,0-9.09,5.28L172,239.1a62.63,62.63,0,0,0,.91-9.08q-7.17,7.3-10.76,9.44a18.62,18.62,0,0,1-8,2.52q-8.4.72-12.54-3.06t-4.19-12.11V205.52q-.06-11.37-1.31-13c-.83-1.06-3.32-1.56-7.45-1.48Q127.87,191.07,126.47,191Z"/><path d="M196.61,159.41V156a141.84,141.84,0,0,0,19.59-9.65l1.64,1q-1.46,11.56-1.46,42.65,0,31.4.25,34.69c.16,2.19.61,3.63,1.36,4.32s3.68,1.52,8.79,2.5v3.4q-9.76.18-15.17.64-5.78.5-14.94,2v-3.41c5.48-2.17,8.47-3.53,9-4.05s.78-1.73.91-3.61q.18-3.73.18-33.54L206.59,164v-.86c0-2.23-.31-3.66-.92-4.3a3.38,3.38,0,0,0-2.85-.79A44.09,44.09,0,0,0,196.61,159.41Z"/><path d="M230.37,156.5v-3.41A141.84,141.84,0,0,0,250,143.44l1.65.95Q250.14,156,250.15,187q0,31.4.24,34.69c.16,2.19.62,3.63,1.37,4.32s3.68,1.52,8.79,2.5V232q-9.78.18-15.18.64-5.76.49-14.94,2v-3.41c5.49-2.17,8.47-3.53,8.95-4s.79-1.73.91-3.61q.18-3.72.18-33.54l-.12-28.88v-.86c0-2.23-.3-3.66-.91-4.3a3.37,3.37,0,0,0-2.86-.78A42.46,42.46,0,0,0,230.37,156.5Z"/><path d="M313.78,212.65l2.31,3.39L304,226a20.45,20.45,0,0,1-5.18,2.94,29.29,29.29,0,0,1-8,1.85,20,20,0,0,1-17-6.51q-7-7.37-7-20.93,0-14.6,8.44-24.15a30.16,30.16,0,0,1,20.62-10.6q9.45-.81,14.59,3.95T315.73,188a24.81,24.81,0,0,0-4.66,4l-5.42.41q-16.12,1.4-28.07,2.9-.06,13.63,4.63,20.23t12.53,6a26,26,0,0,0,8.27-2.27A63.57,63.57,0,0,0,313.78,212.65ZM305,186.76c-.24-4-1.14-7-2.68-8.89a10,10,0,0,0-9.21-3.77,14.22,14.22,0,0,0-8.9,4.2c-2.6,2.52-4.53,6.46-5.8,11.85q2.26-.14,3.42-.24Q291.79,189.06,305,186.76Z"/><path d="M321.08,178.31v-3.53a78.2,78.2,0,0,0,19.83-9.43l1.65.89a83.84,83.84,0,0,0-1,10.74l7.73-8.33a16.38,16.38,0,0,1,4.56-3.07,22.55,22.55,0,0,1,7.48-2q8.7-.75,13.14,4.65,3,3.57,3,12.95l-.19,14.73q0,14.79.37,17.43a3.84,3.84,0,0,0,1.15,2.46q.86.66,5.78,1.39c.61.11,1.52.25,2.74.43V221q-7.2-.06-12.8.43-4.87.42-16.71,2.11v-3.41c4.74-1.79,7.41-2.95,8-3.49a3.7,3.7,0,0,0,1.08-2.46,184,184,0,0,0,.67-18.49q0-13.26-.55-15.95a9.3,9.3,0,0,0-3.59-5.9,9.53,9.53,0,0,0-6.57-1.62,17.43,17.43,0,0,0-13.66,9.81q-1.85,4.11-1.85,11.84,0,21.9.91,23.62t7.12,2.76c.53.08,1.3.21,2.31.41v3.41q-8.16,0-13.72.51-5.36.47-16,2v-3.41q7.23-2.32,8.21-3.2a4.49,4.49,0,0,0,.86-2.63,147.66,147.66,0,0,0,.67-15.82q0-20.61-.43-22.35c-.45-1.66-1.64-2.41-3.59-2.24a33.09,33.09,0,0,0-4.2.78Q322.67,178,321.08,178.31Z"/><path d="M402.56,130.15a58.78,58.78,0,1,1,10-82.52A58.83,58.83,0,0,1,402.56,130.15ZM336.41,45.83A48.39,48.39,0,1,0,404.36,54,48.45,48.45,0,0,0,336.41,45.83Z"/><rect x="396.35" y="124.4" width="15.69" height="15.69" transform="translate(4.56 277.67) rotate(-38.11)"/><rect x="419.3" y="129.48" width="31.15" height="83.72" rx="3.89" transform="translate(-13.04 304.94) rotate(-38.11)"/><path class="cls-2" d="M75.22,78.94l-4.62.4c-1-5.11-2.25-8.82-3.59-11.1a12.21,12.21,0,0,0-6.11-5.12,19.4,19.4,0,0,0-9.22-1.25q-7.24.62-11.53,5A14.07,14.07,0,0,0,35.86,77a11.49,11.49,0,0,0,3.53,8.52q3.47,3.48,17,8.08t18.35,10.33a20.65,20.65,0,0,1,4.79,13.54,26,26,0,0,1-3.62,13.23A28.64,28.64,0,0,1,65,141.17a37.29,37.29,0,0,1-15.66,4.92A60.23,60.23,0,0,1,37.84,146a104.19,104.19,0,0,1-13.78-2.58A227.21,227.21,0,0,0,25,120.56l4.69-.4q2,9,4.16,12.42A14.26,14.26,0,0,0,40.35,138a19,19,0,0,0,9.6,1.51,22.23,22.23,0,0,0,12.57-5.1A15.3,15.3,0,0,0,64,112.56q-4-4.17-17.13-8.72T29.29,94.43a16.9,16.9,0,0,1-4.44-12,23.62,23.62,0,0,1,3.59-12.25A27.65,27.65,0,0,1,39,60.32a35.31,35.31,0,0,1,14.44-4.57q9-.77,21.78,2.45c-.2,5.94-.3,9.51-.3,10.73Q74.92,72.64,75.22,78.94Z"/><path class="cls-2" d="M135.82,97.57l-4.08.05q-.24-7.68-3.86-11.06T118,83.71a17.88,17.88,0,0,0-8.64,3.22,18.5,18.5,0,0,0-6.48,8.6,33.9,33.9,0,0,0-2.34,12.84q0,11.32,5.51,17.21t12.74,5.27q7.6-.65,18.31-7.6l2.26,3.46A105.6,105.6,0,0,1,123.47,138a19.36,19.36,0,0,1-7.43,2q-10.64.92-17.21-4.72-8.7-7.47-8.7-21.52,0-14.53,9.12-24.69a33.14,33.14,0,0,1,22.51-11.31,34,34,0,0,1,17.59,3.17c-.29,1.4-.69,3.22-1.22,5.46Q137.1,90.77,135.82,97.57Z"/><path class="cls-2" d="M146.52,107.48q0-14.73,8.35-24T176.79,73q12.86-1.11,20.37,6t7.52,21q0,15-8.43,24.42t-21.83,10.61q-13,1.13-20.43-6T146.52,107.48Zm11.68-6.3q0,10,1.28,14.61,2,7.49,6.37,11a13.8,13.8,0,0,0,10.15,3A17,17,0,0,0,188.31,123q4.81-6.11,4.81-18.7,0-14.11-5.45-20.43t-12.83-5.67a16.74,16.74,0,0,0-12,6.35Q158.2,90.29,158.2,101.18Z"/><path class="cls-2" d="M227.25,55.87l3.53-.31-1.4,15.64,16.85-1.64.49.92a53.27,53.27,0,0,0-2.8,5.55q-7.17.3-14.54.82l-.54,31.32v.37c0,4.82.53,8.25,1.61,10.29s2.91,2.94,5.5,2.72q3.23-.28,8.52-3.47l1.76,3.31a72.16,72.16,0,0,1-10.09,6.32,18.76,18.76,0,0,1-6,1.83A10.35,10.35,0,0,1,223.3,128a8.84,8.84,0,0,1-3.71-5.49c-.37-1.34-.55-5.55-.55-12.6q0-11.33.67-32.24c-2.84.31-5.78.71-8.82,1.18V75.59a30.93,30.93,0,0,0,8.85-7.07A53.12,53.12,0,0,0,227.25,55.87Z"/><path class="cls-2" d="M264.85,52.63l3.53-.31L267,68l16.85-1.64.49.92a51.38,51.38,0,0,0-2.8,5.55q-7.18.3-14.54.82l-.55,31.32v.37q0,7.23,1.61,10.29c1.08,2,2.91,2.94,5.51,2.72q3.22-.28,8.52-3.47l1.76,3.31a72.12,72.12,0,0,1-10.1,6.32,18.72,18.72,0,0,1-6,1.83,10.34,10.34,0,0,1-6.81-1.52,8.86,8.86,0,0,1-3.72-5.49c-.36-1.34-.54-5.55-.54-12.6q0-11.32.67-32.24c-2.84.31-5.78.71-8.82,1.18V72.35a31.2,31.2,0,0,0,8.85-7.07A53.12,53.12,0,0,0,264.85,52.63Z"/><path class="cls-1" d="M0,165.4v-3.59q10.15-.19,15.46-.66,6-.51,13-1.78,2.47,6.18,4,9.39,2,4.34,15.85,32.78,5.9,12.11,11.9,23.57l26-56.9q2.39-5.27,5.66-14.31,8.16,0,12.48-.4,4-.34,13.57-1.84v3.59c-1.22.43-2.13.73-2.74.9q-8.46,2.44-9.43,3.31c-1,.9-1.58,3-1.58,6.28v.79l-.24,19.31q0,36.38.3,44.14a3,3,0,0,0,.94,2.35q.89.72,10.38,1.72a23,23,0,0,1,2.37.35V238q-10.95.27-19.29,1-8.51.74-20.13,2.4v-3.59c1.58-.54,2.78-.92,3.59-1.16,4.95-1.36,7.77-2.26,8.48-2.71a3.24,3.24,0,0,0,1.43-1.73q.56-1.81.55-9.9V169.18q-5.53,11.43-25,54.89-5.35,12-7.9,18.27l-3.47.3q-13.6-29.07-33.37-67.46l.79,56.64q0,6.75,1.1,7.63T33.82,241c.61.07,1.55.19,2.8.37V245q-10.51.24-17,.8T2.37,247.94v-3.59A24.54,24.54,0,0,1,5,243.51q8-2.26,9-3.51c1-1.22,1.48-4,1.52-8.47l.31-13.71q.3-18.76.3-36.35l-.06-7.41q0-4.44-.55-5.52a2.81,2.81,0,0,0-1.76-1.46q-2.31-.72-10.34-1.24C2.64,165.78,1.5,165.64,0,165.4Z"/><path class="cls-1" d="M120.7,185.24v-3.41a132,132,0,0,0,20.38-4.43l1.52,1a220,220,0,0,0-1.28,25.67q0,13.08.82,16.62a8.55,8.55,0,0,0,3.56,5.39,10,10,0,0,0,6.57,1.5,16.74,16.74,0,0,0,8.25-3.08A14.61,14.61,0,0,0,165.9,218q1.51-3.78,1.52-11.39,0-.91-.36-20.47c-.21-1.72-.72-2.86-1.56-3.39s-3.13-.75-6.9-.62h-2.19v-3.4a148,148,0,0,0,20.32-4.43l1.58,1c-.36,3.39-.64,7.63-.82,12.69s-.27,11-.27,17.7q0,12.7.66,15c.45,1.54,1.59,2.23,3.41,2.08a55.94,55.94,0,0,0,6.39-1.28V225a102.37,102.37,0,0,0-10.56,4.26,76.43,76.43,0,0,0-9.09,5.28l-1.83-1.18a62.52,62.52,0,0,0,.92-9.08q-7.19,7.31-10.77,9.45a18.57,18.57,0,0,1-8,2.51q-8.4.72-12.53-3.05t-4.2-12.11v-21.3q-.06-11.37-1.31-13c-.83-1.07-3.31-1.56-7.45-1.49Q122.1,185.3,120.7,185.24Z"/><path class="cls-1" d="M190.84,153.64v-3.4a143,143,0,0,0,19.59-9.66l1.64.95q-1.45,11.57-1.46,42.65,0,31.4.25,34.69c.16,2.2.62,3.64,1.37,4.32s3.68,1.52,8.79,2.5v3.41q-9.78.17-15.18.64-5.76.49-14.94,1.95v-3.41q8.22-3.25,8.95-4.05c.48-.53.79-1.73.91-3.61q.18-3.72.18-33.53l-.12-28.89v-.85c0-2.23-.3-3.67-.91-4.3a3.37,3.37,0,0,0-2.86-.79A42.18,42.18,0,0,0,190.84,153.64Z"/><path class="cls-1" d="M224.61,150.73v-3.4a143,143,0,0,0,19.59-9.66l1.64,1q-1.46,11.56-1.46,42.65,0,31.39.24,34.69c.16,2.2.62,3.64,1.37,4.32s3.68,1.52,8.79,2.5v3.41c-6.52.11-11.57.33-15.18.64q-5.76.49-14.93,1.95v-3.4q8.22-3.27,9-4.06c.48-.53.78-1.73.9-3.61q.18-3.72.19-33.53l-.13-28.89v-.85c0-2.23-.3-3.67-.91-4.3a3.37,3.37,0,0,0-2.86-.79A42.42,42.42,0,0,0,224.61,150.73Z"/><path class="cls-1" d="M308,206.88l2.32,3.39-12.13,10A20.4,20.4,0,0,1,293,223.2a29.27,29.27,0,0,1-8,1.84,20,20,0,0,1-17-6.51q-7-7.36-7-20.93,0-14.59,8.43-24.15a30.17,30.17,0,0,1,20.62-10.59q9.45-.83,14.59,3.94T310,182.25a25.13,25.13,0,0,0-4.66,4c-2.88.2-4.69.34-5.42.4q-16.12,1.4-28.06,2.91-.06,13.62,4.62,20.22t12.53,6a25.75,25.75,0,0,0,8.28-2.27A63.29,63.29,0,0,0,308,206.88ZM299.19,181c-.24-4-1.14-7-2.68-8.89a10,10,0,0,0-9.21-3.77,14.35,14.35,0,0,0-8.9,4.2q-3.9,3.78-5.79,11.85c1.5-.09,2.64-.17,3.41-.24Q286,183.29,299.19,181Z"/><path class="cls-1" d="M315.31,172.55V169a78.45,78.45,0,0,0,19.84-9.44l1.64.9a85.34,85.34,0,0,0-1,10.73l7.73-8.33a16.38,16.38,0,0,1,4.56-3.07,22.35,22.35,0,0,1,7.49-2q8.7-.75,13.14,4.64,3,3.59,3,12.95l-.18,14.74q0,14.78.36,17.43A3.79,3.79,0,0,0,373,210q.84.66,5.78,1.39c.6.11,1.52.25,2.73.43v3.41q-7.19,0-12.8.43-4.87.42-16.7,2.11V214.4c4.73-1.78,7.4-3,8-3.48a3.76,3.76,0,0,0,1.07-2.47,184,184,0,0,0,.67-18.49q0-13.26-.55-16a9.29,9.29,0,0,0-3.59-5.9,9.53,9.53,0,0,0-6.57-1.62,16.4,16.4,0,0,0-7.9,3,16.21,16.21,0,0,0-5.75,6.79q-1.86,4.13-1.86,11.84,0,21.9.91,23.62t7.12,2.76c.53.08,1.3.22,2.31.41v3.41q-8.16,0-13.72.51-5.36.47-16,2.05v-3.41c4.81-1.55,7.55-2.62,8.2-3.2a4.42,4.42,0,0,0,.86-2.63,145,145,0,0,0,.67-15.81q0-20.62-.43-22.35-.66-2.5-3.59-2.25a33.18,33.18,0,0,0-4.19.79Z"/><path class="cls-3" d="M396.79,124.38a58.77,58.77,0,1,1,10-82.52A58.83,58.83,0,0,1,396.79,124.38ZM330.65,40.06a48.4,48.4,0,1,0,67.94,8.21A48.45,48.45,0,0,0,330.65,40.06Z"/><rect class="cls-4" x="391.04" y="118.47" width="15.69" height="17.16" transform="translate(6.63 273.28) rotate(-38.11)"/><rect class="cls-5" x="413.53" y="123.72" width="31.15" height="83.72" rx="3.89" transform="translate(-10.71 300.15) rotate(-38.11)"/><path d="M20.47,304.2V275.81l12.25-1q10.41-.88,10.42,7.45t-11.59,9.41l-2.85.25V303.5Zm8.23-14.94,1.85-.16q4.5-.39,4.5-6.33,0-5.58-4.5-5.19l-1.85.15Z"/><path d="M45.9,302V273.65l12.21-1c3.18-.27,5.71.18,7.61,1.36a5.66,5.66,0,0,1,2.85,5.13q0,5.16-6.11,7.24c2.09.6,3.45,1.34,4.06,2.21s1,2.65,1.26,5.3q.41,4.75,1.6,6.19l-8.94.76a11.93,11.93,0,0,1-.85-4.86l0-1.68,0-2.12c0-3.27-1.31-4.79-4-4.57l-1.41.12v13.65Zm8.24-16.7,1.66-.14c3.12-.26,4.68-2,4.68-5.29s-1.56-4.75-4.68-4.48l-1.66.14Z"/><path d="M81.07,270.65V299l-8.23.7V271.35Z"/><path d="M106.47,268.49l-8.24,29.09-7.38.63-7.53-27.75,8.32-.71,5.61,21,6.14-22Z"/><path d="M121.52,267.21l7.91,27.71-8.28.71-1.68-6-8.55.72-1.81,6.32-3.23.27,8.41-29.11Zm-9.79,20.22,7-.6-3.35-12.3Z"/><path d="M151.58,264.65v2.85l-7,.59v25.54l-8.73.75V268.84l-7,.59v-2.85Z"/><path d="M172.11,262.9v2.85l-10.17.87v8.59l8.54-.73v2.85l-8.54.72v11.26l11.89-1v2.85l-20.13,1.72V264.47Z"/><path d="M197.44,260.74v28.39l-8.24.7V261.44Z"/><path d="M223.12,258.55v28.39l-6.3.54-11.85-17v18l-2.77.24V260.34l5.22-.45,12.94,18.3v-19.4Z"/><path d="M248.33,256.41,240.1,285.5l-7.39.63-7.53-27.75,8.32-.71,5.62,21,6.13-22Z"/><path d="M268.88,254.66v2.85l-10.17.86V267l8.55-.72v2.84l-8.55.73v11.25l11.9-1v2.85l-20.14,1.71V256.23Z"/><path d="M291.74,260.66l-3.83,1a9.34,9.34,0,0,0,.25-1.94q0-5-6-4.43c-3.16.26-4.74,1.54-4.74,3.81q0,2.56,5.3,3.94Q293,265.71,293,272.6a8.83,8.83,0,0,1-2.87,6.72,12.35,12.35,0,0,1-7.64,3.09q-10.54.9-10.54-7.27a16,16,0,0,1,.1-1.66l4-1.21a13.87,13.87,0,0,0-.45,3.18c0,3.52,2,5.11,6.05,4.77,3.23-.28,4.84-1.68,4.84-4.22,0-1.88-1.93-3.38-5.8-4.48q-8.39-2.36-8.38-9.12A8.32,8.32,0,0,1,275,256a12,12,0,0,1,7.35-3Q291.74,252.24,291.74,260.66Z"/><path d="M316.49,250.6v2.85l-7,.6v25.54l-8.73.74V254.79l-7,.6v-2.85Z"/><path d="M326.89,249.72v28.39l-8.24.7V250.42Z"/><path d="M342.92,261.41l11.69-1v15.33L352,276l-.89-1.88a13.4,13.4,0,0,1-7.26,3.05q-6.3.54-9.79-2.94t-3.48-10.34a16.82,16.82,0,0,1,3.69-11.12,13.55,13.55,0,0,1,9.66-5q7.86-.67,9.57,7.21l-3.87,2.1v-.69l-.06-1.53c-.27-3.32-1.81-4.86-4.64-4.62a4.7,4.7,0,0,0-4.26,3q-1.16,2.76-1.15,10c0,4.53.31,7.57.93,9.14a3.14,3.14,0,0,0,3.52,2.13q3.06-.26,3.06-3.67v-7l-4.1.35Z"/><path d="M371.56,245.91l7.91,27.72-8.28.7-1.69-6-8.55.73-1.8,6.31-3.23.27,8.4-29.1Zm-9.79,20.22,7-.59-3.35-12.3Z"/><path d="M401.62,243.35v2.85l-7,.6v25.54l-8.74.74V247.54l-7,.6v-2.85Z"/><path d="M415.36,241.68q12.4-1.05,12.4,13.63t-12.63,15.76q-12.61,1.08-12.62-13.94Q402.51,242.78,415.36,241.68Zm-.23,2.29a3.53,3.53,0,0,0-3.15,2.84c-.54,1.76-.82,5.06-.82,9.91s.28,8.12.82,9.78a2.86,2.86,0,0,0,3.15,2.3,3.53,3.53,0,0,0,3.16-2.83c.54-1.76.82-5.07.82-9.92s-.28-8.1-.82-9.77A2.87,2.87,0,0,0,415.13,244Z"/><path d="M431.4,269.21V240.82l12.21-1a12.34,12.34,0,0,1,7.61,1.35,5.69,5.69,0,0,1,2.85,5.14q0,5.16-6.12,7.24c2.1.6,3.45,1.33,4.07,2.21s1,2.64,1.26,5.3c.26,3.17.8,5.23,1.6,6.19l-8.94.76a11.92,11.92,0,0,1-.86-4.86l0-1.68,0-2.12q0-4.9-3.95-4.57l-1.41.12V268.5Zm8.24-16.7,1.66-.14Q446,252,446,247.08c0-3.26-1.56-4.75-4.68-4.49l-1.66.14Z"/><path class="cls-2" d="M17.24,301V272.59l12.25-1q10.43-.89,10.42,7.45t-11.58,9.41l-2.85.24v11.63Zm8.24-15,1.85-.16c3-.25,4.49-2.36,4.49-6.33,0-3.71-1.49-5.44-4.49-5.19l-1.85.16Z"/><path class="cls-2" d="M42.68,298.81V270.43l12.21-1.05a12.34,12.34,0,0,1,7.61,1.36,5.69,5.69,0,0,1,2.85,5.14q0,5.16-6.12,7.24c2.1.59,3.45,1.33,4.07,2.21s1,2.64,1.26,5.3c.26,3.16.8,5.23,1.6,6.18l-8.94.77a11.93,11.93,0,0,1-.85-4.86l0-1.68,0-2.12c0-3.27-1.32-4.8-4-4.57l-1.41.12v13.64Zm8.24-16.69,1.66-.14q4.68-.41,4.68-5.29c0-3.26-1.56-4.75-4.68-4.49l-1.66.14Z"/><path class="cls-2" d="M77.85,267.43v28.39l-8.24.7V268.13Z"/><path class="cls-2" d="M103.24,265.27,95,294.36l-7.39.63L80.1,267.24l8.31-.71,5.62,21,6.14-22Z"/><path class="cls-2" d="M118.3,264l7.91,27.72-8.28.71-1.69-6-8.54.73-1.81,6.31-3.23.28,8.4-29.11Zm-9.79,20.22,7-.59-3.35-12.3Z"/><path class="cls-2" d="M148.36,261.42v2.85l-7,.6v25.54l-8.74.74V265.61l-7,.6v-2.85Z"/><path class="cls-2" d="M168.88,259.68v2.85l-10.17.86V272l8.55-.73v2.85l-8.55.73v11.25l11.9-1v2.85l-20.13,1.71V261.24Z"/><path class="cls-2" d="M194.22,257.52v28.39l-8.24.7V258.22Z"/><path class="cls-2" d="M219.9,255.33v28.39l-6.3.54-11.86-17v18l-2.76.23V257.11l5.22-.44L217.14,275v-19.4Z"/><path class="cls-2" d="M245.11,253.18l-8.24,29.1-7.38.62L222,255.16l8.32-.71,5.62,21,6.13-22Z"/><path class="cls-2" d="M265.66,251.43v2.85l-10.17.87v8.59L264,263v2.85l-8.55.73v11.25l11.89-1v2.85l-20.13,1.71V253Z"/><path class="cls-2" d="M288.52,257.43l-3.83,1a9.42,9.42,0,0,0,.25-1.94q0-4.95-6-4.44-4.74.41-4.74,3.82c0,1.7,1.76,3,5.3,3.93q10.23,2.66,10.23,9.53a8.8,8.8,0,0,1-2.87,6.72,12.27,12.27,0,0,1-7.63,3.1q-10.55.9-10.55-7.28a16.35,16.35,0,0,1,.11-1.65l4-1.21a13.8,13.8,0,0,0-.46,3.18q0,5.28,6.06,4.77,4.84-.42,4.84-4.22,0-2.83-5.8-4.48-8.38-2.37-8.38-9.12a8.38,8.38,0,0,1,2.79-6.41,12,12,0,0,1,7.36-3Q288.52,249,288.52,257.43Z"/><path class="cls-2" d="M313.27,247.38v2.85l-7,.59v25.54l-8.74.75V251.57l-7,.59v-2.85Z"/><path class="cls-2" d="M323.66,246.49v28.39l-8.23.7V247.2Z"/><path class="cls-2" d="M339.7,258.19l11.69-1v15.33l-2.62.23-.9-1.88a13.41,13.41,0,0,1-7.25,3.05q-6.31.54-9.79-2.94t-3.48-10.35A16.79,16.79,0,0,1,331,249.52a13.52,13.52,0,0,1,9.66-5q7.86-.66,9.57,7.22l-3.87,2.09v-.68l-.06-1.54c-.27-3.31-1.81-4.85-4.64-4.61a4.71,4.71,0,0,0-4.27,3q-1.14,2.76-1.14,10,0,6.78.93,9.14a3.13,3.13,0,0,0,3.52,2.13c2-.17,3.06-1.4,3.06-3.67v-7l-4.1.35Z"/><path class="cls-2" d="M368.34,242.69l7.9,27.72-8.27.7-1.69-6-8.55.73-1.81,6.31-3.22.27,8.4-29.1Zm-9.8,20.22,7-.6L362.16,250Z"/><path class="cls-2" d="M398.39,240.13V243l-7,.59v25.54l-8.74.75V244.32l-7,.59v-2.85Z"/><path class="cls-2" d="M412.14,238.46q12.39-1.05,12.4,13.63t-12.63,15.76q-12.63,1.06-12.62-14Q399.29,239.56,412.14,238.46Zm-.23,2.29a3.52,3.52,0,0,0-3.15,2.83q-.83,2.64-.82,9.92t.82,9.78a2.87,2.87,0,0,0,3.15,2.3,3.53,3.53,0,0,0,3.15-2.84c.55-1.76.82-5.06.82-9.92s-.27-8.09-.82-9.76S413.46,240.61,411.91,240.75Z"/><path class="cls-2" d="M428.18,266V237.59l12.2-1a12.36,12.36,0,0,1,7.62,1.36,5.69,5.69,0,0,1,2.85,5.14c0,3.43-2,5.85-6.12,7.23,2.1.6,3.45,1.34,4.07,2.22s1,2.64,1.26,5.3q.39,4.74,1.6,6.18l-9,.76a12,12,0,0,1-.85-4.85l0-1.68,0-2.12c0-3.27-1.32-4.8-3.95-4.57l-1.42.12v13.64Zm8.23-16.69,1.67-.15q4.68-.39,4.68-5.28t-4.68-4.49l-1.67.14Z"/></svg>