<?xml version="1.0" encoding="utf-8"?>
<!-- Generator: Adobe Illustrator 25.1.0, SVG Export Plug-In . SVG Version: 6.00 Build 0)  -->
<svg version="1.1" id="Layer_1" xmlns="http://www.w3.org/2000/svg" xmlns:xlink="http://www.w3.org/1999/xlink" x="0px" y="0px"
	 viewBox="0 0 471.4 284.8" style="enable-background:new 0 0 471.4 284.8;" xml:space="preserve">
<style type="text/css">
	.st0{fill:url(#SVGID_1_);}
	.st1{fill:url(#SVGID_2_);}
	.st2{fill:url(#SVGID_3_);}
	.st3{fill:url(#SVGID_4_);}
	.st4{fill:url(#SVGID_5_);}
	.st5{fill:url(#SVGID_6_);}
	.st6{fill:url(#SVGID_7_);}
	.st7{fill:url(#SVGID_8_);}
	.st8{fill:url(#SVGID_9_);}
	.st9{fill:url(#SVGID_10_);}
	.st10{fill:url(#SVGID_11_);}
	.st11{fill:url(#SVGID_12_);}
	.st12{fill:url(#SVGID_13_);}
	.st13{fill:url(#SVGID_14_);}
	.st14{fill:url(#SVGID_15_);}
	.st15{fill:url(#SVGID_16_);}
	.st16{fill:url(#SVGID_17_);}
	.st17{fill:url(#SVGID_18_);}
	.st18{fill:url(#SVGID_19_);}
	.st19{fill:url(#SVGID_20_);}
	.st20{fill:url(#SVGID_21_);}
	.st21{fill:url(#SVGID_22_);}
	.st22{fill:url(#SVGID_23_);}
	.st23{fill:url(#SVGID_24_);}
	.st24{fill:url(#SVGID_25_);}
	.st25{fill:url(#SVGID_26_);}
	.st26{fill:url(#SVGID_27_);}
	.st27{fill:url(#SVGID_28_);}
	.st28{fill:url(#SVGID_29_);}
	.st29{fill:url(#SVGID_30_);}
	.st30{fill:url(#SVGID_31_);}
	.st31{fill:url(#SVGID_32_);}
	.st32{fill:url(#SVGID_33_);}
</style>
<g>
	<g>
		<path d="M81,65.3l-4.6,0.4c-1.1-5.1-2.2-8.8-3.6-11.1c-1.4-2.3-3.6-4.1-6.1-5.1c-2.9-1.2-6.1-1.6-9.2-1.2c-4.8,0.4-8.7,2.1-11.5,5
			c-2.7,2.6-4.3,6.3-4.3,10.1c-0.1,3.2,1.2,6.3,3.5,8.5c2.3,2.3,8,5,17,8.1s15.1,6.5,18.3,10.3c3.2,3.8,4.9,8.6,4.8,13.5
			c0,4.7-1.3,9.2-3.6,13.2c-2.6,4.4-6.4,8-10.9,10.5c-4.8,2.8-10.1,4.5-15.7,4.9c-3.8,0.3-7.7,0.3-11.5-0.1
			c-4.6-0.5-9.2-1.4-13.8-2.6c0.7-7.6,1-15.2,0.9-22.8l4.7-0.4c1.3,6,2.7,10.1,4.2,12.4c1.6,2.4,3.9,4.3,6.5,5.4
			c3,1.3,6.3,1.9,9.6,1.5c4.6-0.4,9-2.1,12.6-5.1c6.5-5.5,7.3-15.1,1.8-21.6c-0.1-0.1-0.2-0.2-0.3-0.3c-2.7-2.8-8.4-5.7-17.1-8.7
			S38,84.1,35.1,80.8c-3-3.3-4.6-7.6-4.4-12c0.1-4.3,1.3-8.5,3.6-12.2c2.6-4.2,6.2-7.6,10.5-9.9c4.4-2.5,9.4-4.1,14.5-4.6
			c6-0.5,13.3,0.3,21.8,2.4c-0.2,5.9-0.3,9.5-0.3,10.7C80.7,57.8,80.8,61.1,81,65.3z"/>
		<path d="M141.6,84h-4.1c-0.2-5.1-1.4-8.8-3.9-11.1c-2.4-2.3-5.7-3.2-9.9-2.8c-3.1,0.3-6.1,1.4-8.6,3.2c-3,2.2-5.2,5.2-6.5,8.6
			c-1.6,4.1-2.4,8.4-2.3,12.8c0,7.5,1.8,13.3,5.5,17.2c3.7,3.9,7.9,5.7,12.8,5.3c5.1-0.4,11.2-3,18.3-7.6l2.2,3.4
			c-4.9,4.2-10.2,8-15.9,11.3c-2.3,1.1-4.8,1.8-7.4,2c-7.1,0.6-12.8-1-17.2-4.7c-5.8-5-8.7-12.1-8.7-21.5c0-9.7,3-17.9,9.1-24.7
			c5.7-6.6,13.8-10.7,22.5-11.3c6-0.5,12.1,0.6,17.6,3.2c-0.3,1.4-0.7,3.2-1.2,5.5C143.2,75.7,142.4,79.4,141.6,84z"/>
		<path d="M152.3,93.9c0-9.8,2.8-17.8,8.4-24c5.6-6.2,12.9-9.7,21.9-10.5c8.6-0.7,15.3,1.3,20.4,6s7.5,11.7,7.5,21
			c0,10-2.8,18.1-8.4,24.4c-5.6,6.3-12.9,9.8-21.8,10.6c-8.7,0.7-15.5-1.3-20.4-6C154.8,110.7,152.3,103.5,152.3,93.9z M164,87.6
			c0,6.7,0.4,11.5,1.3,14.6c1.3,5,3.5,8.7,6.4,11c2.8,2.3,6.5,3.4,10.1,3c4.9-0.4,9.4-2.8,12.3-6.8c3.2-4.1,4.8-10.3,4.8-18.7
			c0-9.4-1.8-16.2-5.4-20.4s-7.9-6.1-12.8-5.7c-4.7,0.3-9.1,2.6-12,6.3C165.5,74.8,164,80.3,164,87.6z"/>
		<path d="M233,42.3l3.5-0.3l-1.4,15.6L252,56l0.5,0.9c-1,1.8-2,3.6-2.8,5.5c-4.8,0.2-9.6,0.5-14.5,0.8l-0.6,31.3v0.4
			c0,4.8,0.5,8.3,1.6,10.3s2.9,3,5.5,2.7c2.1-0.2,5-1.3,8.5-3.5l1.8,3.3c-3.2,2.4-6.6,4.5-10.1,6.3c-1.9,0.9-3.9,1.6-6,1.8
			c-2.4,0.3-4.8-0.2-6.8-1.5c-1.9-1.3-3.2-3.2-3.7-5.5c-0.4-1.3-0.6-5.5-0.6-12.6c0-7.5,0.2-18.3,0.7-32.2c-2.8,0.3-5.8,0.7-8.8,1.2
			V62c3.4-1.8,6.4-4.2,8.9-7.1C228.6,51.1,231.1,46.8,233,42.3z"/>
		<path d="M270.6,39l3.5-0.3l-1.4,15.6l16.9-1.6l0.5,0.9c-1,1.8-2,3.6-2.8,5.5c-4.8,0.2-9.6,0.5-14.5,0.8l-0.5,31.3v0.4
			c0,4.8,0.5,8.3,1.6,10.3c1.1,2,2.9,3,5.5,2.7c2.2-0.2,5-1.3,8.5-3.5l1.8,3.3c-3.2,2.4-6.6,4.5-10.1,6.3c-1.9,0.9-3.9,1.6-6,1.8
			c-2.4,0.3-4.8-0.2-6.8-1.5c-1.9-1.3-3.2-3.3-3.7-5.5c-0.4-1.3-0.5-5.5-0.5-12.6c0-7.5,0.2-18.3,0.7-32.2c-2.8,0.3-5.8,0.7-8.8,1.2
			v-3.3c3.4-1.8,6.4-4.2,8.9-7.1C266.2,47.8,268.7,43.6,270.6,39z"/>
		<path d="M5.8,151.8v-3.6c6.8-0.1,11.9-0.4,15.5-0.7c4-0.3,8.3-0.9,13-1.8c1.7,4.1,3,7.2,4,9.4c1.3,2.9,6.6,13.8,15.8,32.8
			C58,196,62,203.9,66,211.5l26-56.9c1.6-3.5,3.5-8.3,5.7-14.3c5.4,0,9.6-0.2,12.5-0.4c2.7-0.2,7.2-0.8,13.6-1.8v3.6
			c-1.2,0.4-2.1,0.7-2.7,0.9c-5.6,1.6-8.8,2.7-9.4,3.3c-1,0.9-1.6,3-1.6,6.3v0.8l-0.2,19.3c0,24.3,0.1,39,0.3,44.1
			c-0.1,0.9,0.3,1.8,0.9,2.4c0.6,0.5,4.1,1,10.4,1.7c0.8,0.1,1.6,0.2,2.4,0.3v3.6c-7.3,0.2-13.8,0.5-19.3,1
			c-5.7,0.5-12.4,1.3-20.1,2.4v-3.6c1.6-0.5,2.8-0.9,3.6-1.2c5-1.4,7.8-2.3,8.5-2.7c0.7-0.4,1.2-1,1.4-1.7c0.4-1.2,0.6-4.5,0.6-9.9
			v-53.1c-3.7,7.6-12,25.9-25,54.9c-3.6,8-6.2,14.1-7.9,18.3l-3.5,0.3c-9.1-19.3-20.3-41.8-33.4-67.4l0.8,56.6c0,4.5,0.4,7,1.1,7.6
			c0.7,0.6,3.8,1.1,9.2,1.6c0.6,0.1,1.5,0.2,2.8,0.4v3.6c-7,0.2-12.7,0.4-17,0.8c-4.3,0.4-10.1,1.1-17.3,2.1v-3.6
			c0.9-0.3,1.7-0.6,2.6-0.8c5.3-1.5,8.3-2.7,9-3.5c1-1.2,1.5-4,1.5-8.5l0.3-13.7c0.2-12.5,0.3-24.6,0.3-36.3l-0.1-7.4
			c0-3-0.2-4.8-0.5-5.5c-0.4-0.7-1-1.2-1.8-1.5c-1.5-0.5-5-0.9-10.4-1.2C8.4,152.2,7.3,152,5.8,151.8z"/>
		<path d="M126.5,171.6v-3.4c6.9-0.9,13.7-2.4,20.4-4.4l1.5,1c-0.9,8.5-1.4,17.1-1.3,25.7c0,8.7,0.3,14.3,0.8,16.6
			c0.4,2.2,1.7,4.1,3.6,5.4c1.9,1.3,4.2,1.8,6.5,1.5c3-0.3,5.8-1.3,8.2-3.1c2.4-1.6,4.3-3.8,5.4-6.5c1-2.5,1.5-6.3,1.5-11.4
			c0-0.6-0.1-7.4-0.4-20.5c-0.2-1.7-0.7-2.9-1.6-3.4s-3.1-0.7-6.9-0.6h-2.2v-3.4c6.9-1,13.7-2.5,20.3-4.4l1.6,1
			c-0.4,3.4-0.6,7.6-0.8,12.7c-0.2,5.1-0.3,11-0.3,17.7c0,8.5,0.2,13.5,0.7,15c0.4,1.5,1.6,2.2,3.4,2.1c2.2-0.3,4.3-0.7,6.4-1.3v3.4
			c-3.6,1.2-7.1,2.6-10.6,4.2c-3.1,1.6-6.2,3.3-9.1,5.3l-1.8-1.1c0.5-3,0.8-6,0.9-9.1c-4.8,4.9-8.4,8-10.8,9.4
			c-2.4,1.4-5.2,2.3-8,2.5c-5.6,0.5-9.8-0.5-12.5-3.1c-2.8-2.5-4.2-6.6-4.2-12.1v-21.3c0-7.6-0.5-11.9-1.3-13
			c-0.8-1.1-3.3-1.6-7.4-1.5C128.1,171.7,127.4,171.7,126.5,171.6z"/>
		<path d="M196.6,140v-3.4c6.8-2.7,13.3-5.9,19.6-9.6l1.6,1c-1,7.7-1.5,21.9-1.5,42.6c0,20.9,0.1,32.5,0.2,34.7
			c0.2,2.2,0.6,3.6,1.4,4.3s3.7,1.5,8.8,2.5v3.4c-6.5,0.1-11.6,0.3-15.2,0.6c-3.9,0.3-8.8,1-14.9,1.9v-3.4c5.5-2.2,8.5-3.5,9-4.1
			c0.5-0.5,0.8-1.7,0.9-3.6c0.1-2.5,0.2-13.7,0.2-33.5l-0.1-28.9v-0.9c0-2.2-0.3-3.7-0.9-4.3c-0.8-0.7-1.8-1-2.9-0.8
			C200.8,139,198.7,139.4,196.6,140z"/>
		<path d="M230.4,137.1v-3.4c6.8-2.7,13.3-5.9,19.6-9.7l1.6,1c-1,7.7-1.5,21.9-1.5,42.7c0,20.9,0.1,32.5,0.2,34.7
			c0.2,2.2,0.6,3.6,1.4,4.3s3.7,1.5,8.8,2.5v3.4c-6.5,0.1-11.6,0.3-15.2,0.6c-3.8,0.3-8.8,1-14.9,2v-3.4c5.5-2.2,8.5-3.5,8.9-4.1
			c0.5-0.5,0.8-1.7,0.9-3.6c0.1-2.5,0.2-13.7,0.2-33.5l-0.1-28.9v-0.9c0-2.2-0.3-3.7-0.9-4.3c-0.8-0.7-1.8-1-2.9-0.8
			C234.5,136.1,232.4,136.5,230.4,137.1z"/>
		<path d="M313.8,193.3l2.3,3.4l-12.1,10c-1.6,1.2-3.3,2.2-5.2,2.9c-2.6,1-5.3,1.6-8,1.8c-6.4,0.7-12.7-1.7-17-6.5
			c-4.7-4.9-7-11.9-7-20.9c0-9.7,2.8-17.8,8.4-24.1c5.2-6.1,12.6-10,20.6-10.6c6.3-0.5,11.2,0.8,14.6,3.9s5.2,8.3,5.3,15.5
			c-1.7,1.1-3.3,2.5-4.7,4l-5.4,0.4c-10.7,0.9-20.1,1.9-28.1,2.9c0,9.1,1.5,15.8,4.6,20.2c3.1,4.4,7.3,6.4,12.5,6
			c2.9-0.3,5.7-1.1,8.3-2.3C306.8,198.1,310.4,195.9,313.8,193.3z M305,167.4c-0.2-4-1.1-7-2.7-8.9c-2.2-2.8-5.7-4.2-9.2-3.8
			c-3.4,0.3-6.5,1.8-8.9,4.2c-2.6,2.5-4.5,6.5-5.8,11.8c1.5-0.1,2.6-0.2,3.4-0.2C288.5,170,296.2,168.9,305,167.4z"/>
		<path d="M321.1,158.9v-3.5c7-2.2,13.7-5.4,19.8-9.4l1.6,0.9c-0.6,3.6-0.9,7.1-1,10.7l7.7-8.3c1.3-1.3,2.9-2.3,4.6-3.1
			c2.4-1.1,4.9-1.8,7.5-2c5.8-0.5,10.2,1,13.1,4.6c2,2.4,3,6.7,3,12.9l-0.2,14.7c0,9.9,0.1,15.7,0.4,17.4c0.1,0.9,0.5,1.8,1.1,2.4
			c0.6,0.4,2.5,0.9,5.8,1.4c0.6,0.1,1.5,0.3,2.7,0.4v3.4c-4.8,0-9.1,0.1-12.8,0.4c-3.2,0.3-8.8,1-16.7,2.1v-3.4
			c4.7-1.8,7.4-2.9,8-3.5c0.7-0.7,1-1.5,1.1-2.5c0.5-6.2,0.8-12.3,0.7-18.5c0-8.8-0.2-14.2-0.5-16c-0.4-2.4-1.7-4.5-3.6-5.9
			c-1.9-1.3-4.3-1.9-6.6-1.6c-5.9,0.7-11.1,4.4-13.7,9.8c-1.2,2.7-1.9,6.7-1.9,11.8c0,14.6,0.3,22.5,0.9,23.6c0.6,1.1,3,2.1,7.1,2.8
			c0.5,0.1,1.3,0.2,2.3,0.4v3.4c-5.4,0-10,0.2-13.7,0.5c-3.6,0.3-8.9,1-16,2v-3.4c4.8-1.6,7.6-2.6,8.2-3.2c0.5-0.8,0.8-1.7,0.8-2.6
			c0.5-5.3,0.7-10.5,0.7-15.8c0-13.7-0.1-21.2-0.4-22.4c-0.5-1.7-1.6-2.4-3.6-2.2c-1.4,0.2-2.8,0.4-4.2,0.8
			C322.9,158.6,322.1,158.7,321.1,158.9z"/>
		<path d="M402.6,110.8c-25.6,20-62.5,15.5-82.5-10c-20-25.6-15.5-62.5,10-82.5c25.5-20,62.5-15.5,82.5,10
			C432.6,53.8,428.1,90.7,402.6,110.8z M336.4,26.5c-21,16.5-24.7,46.9-8.2,68s46.9,24.7,68,8.2c21-16.5,24.7-46.9,8.2-68
			c0,0,0,0,0,0C387.8,13.7,357.4,10,336.4,26.5z"/>
		<rect x="396.4" y="105" transform="matrix(0.7868 -0.6172 0.6172 0.7868 16.4888 273.5275)" width="15.7" height="15.7"/>
		<path d="M399.8,126.3l18.4-14.4c1.7-1.3,4.1-1,5.5,0.7l46.9,59.8c1.3,1.7,1,4.1-0.7,5.5l-18.4,14.4c-1.7,1.3-4.1,1-5.5-0.7
			l-46.9-59.8C397.9,130,398.2,127.6,399.8,126.3z"/>
		<path d="M20.5,284.8v-28.4l12.2-1c6.9-0.6,10.4,1.9,10.4,7.5s-3.9,8.7-11.6,9.4l-2.9,0.2v11.6L20.5,284.8z M28.7,269.9l1.9-0.2
			c3-0.2,4.5-2.4,4.5-6.3c0-3.7-1.5-5.4-4.5-5.2l-1.9,0.2V269.9z"/>
		<path d="M45.9,282.7v-28.4l12.2-1c2.6-0.4,5.3,0.1,7.6,1.4c1.8,1.1,2.9,3,2.8,5.1c0,3.4-2,5.9-6.1,7.2c2.1,0.6,3.5,1.3,4.1,2.2
			s1,2.6,1.3,5.3c0.3,3.2,0.8,5.2,1.6,6.2l-8.9,0.8c-0.6-1.5-0.9-3.2-0.8-4.9v-1.7v-2.1c0-3.3-1.3-4.8-4-4.6l-1.4,0.1V282
			L45.9,282.7z M54.1,266l1.7-0.1c3.1-0.3,4.7-2,4.7-5.3s-1.6-4.8-4.7-4.5l-1.7,0.1V266z"/>
		<path d="M81.1,251.3v28.4l-8.2,0.7V252L81.1,251.3z"/>
		<path d="M106.5,249.1l-8.2,29.1l-7.4,0.6l-7.5-27.8l8.3-0.7l5.6,21l6.1-22L106.5,249.1z"/>
		<path d="M121.5,247.8l7.9,27.7l-8.3,0.7l-1.7-6l-8.6,0.7l-1.8,6.3l-3.2,0.3l8.4-29.1L121.5,247.8z M111.7,268l7-0.6l-3.3-12.3
			L111.7,268z"/>
		<path d="M151.6,245.3v2.9l-7,0.6v25.5l-8.7,0.7v-25.5l-7,0.6v-2.9L151.6,245.3z"/>
		<path d="M172.1,243.5v2.9l-10.2,0.9v8.6l8.5-0.7v2.8l-8.5,0.7v11.2l11.9-1v2.9l-20.1,1.7v-28.4L172.1,243.5z"/>
		<path d="M197.4,241.4v28.4l-8.2,0.7v-28.4L197.4,241.4z"/>
		<path d="M223.1,239.2v28.4l-6.3,0.5l-11.9-17v18l-2.8,0.2V241l5.2-0.4l12.9,18.3v-19.4L223.1,239.2z"/>
		<path d="M248.3,237l-8.2,29.1l-7.4,0.6l-7.5-27.7l8.3-0.7l5.6,21l6.1-22L248.3,237z"/>
		<path d="M268.9,235.3v2.9l-10.2,0.9v8.6l8.5-0.7v2.9l-8.5,0.7v11.2l11.9-1v2.9l-20.1,1.7v-28.4L268.9,235.3z"/>
		<path d="M291.7,241.3l-3.8,1c0.2-0.6,0.2-1.3,0.2-1.9c0-3.3-2-4.8-6-4.4c-3.2,0.3-4.7,1.5-4.7,3.8c0,1.7,1.8,3,5.3,3.9
			c6.9,1.8,10.3,5,10.3,9.6c0.1,2.5-1,5-2.9,6.7c-2.1,1.9-4.8,3-7.6,3.1c-7,0.6-10.5-1.8-10.5-7.3c0-0.6,0-1.1,0.1-1.6l4-1.2
			c-0.3,1-0.4,2.1-0.5,3.2c0,3.5,2,5.1,6,4.8c3.2-0.3,4.8-1.7,4.8-4.2c0-1.9-1.9-3.4-5.8-4.5c-5.6-1.6-8.4-4.6-8.4-9.1
			c0-2.4,1-4.8,2.8-6.4c2-1.8,4.6-2.9,7.4-3C288.6,233.1,291.7,235.7,291.7,241.3z"/>
		<path d="M316.5,231.2v2.9l-7,0.6v25.5l-8.7,0.8v-25.5l-7,0.6v-2.9L316.5,231.2z"/>
		<path d="M326.9,230.3v28.4l-8.2,0.7V231L326.9,230.3z"/>
		<path d="M342.9,242l11.7-1v15.3l-2.6,0.2l-0.9-1.9c-2.1,1.7-4.6,2.7-7.3,3c-4.2,0.4-7.5-0.6-9.8-2.9s-3.5-5.8-3.5-10.4
			c-0.1-4,1.2-8,3.7-11.1c2.4-2.9,5.9-4.8,9.7-5c5.2-0.4,8.4,2,9.6,7.2l-3.9,2.1V237l-0.1-1.5c-0.3-3.3-1.8-4.9-4.6-4.6
			c-1.9,0-3.6,1.2-4.3,3c-0.8,1.8-1.2,5.2-1.1,10c0,4.5,0.3,7.6,0.9,9.1c0.5,1.5,2,2.4,3.5,2.1c2-0.2,3.1-1.4,3.1-3.7v-7l-4.1,0.4
			L342.9,242z"/>
		<path d="M371.6,226.5l7.9,27.7l-8.3,0.7l-1.7-6l-8.5,0.7l-1.8,6.3l-3.2,0.3l8.4-29.1L371.6,226.5z M361.8,246.8l7-0.6l-3.4-12.3
			L361.8,246.8z"/>
		<path d="M401.6,224v2.9l-7,0.6V253l-8.7,0.8v-25.6l-7,0.6v-2.9L401.6,224z"/>
		<path d="M415.4,222.3c8.3-0.7,12.4,3.8,12.4,13.6c0,9.8-4.2,15-12.6,15.8c-8.4,0.7-12.6-3.9-12.6-13.9
			C402.5,228.2,406.8,223,415.4,222.3z M415.1,224.6c-1.6,0.1-2.8,1.3-3.1,2.8c-0.5,1.8-0.8,5.1-0.8,9.9s0.3,8.1,0.8,9.8
			c0.3,1.5,1.7,2.5,3.1,2.3c1.6-0.1,2.9-1.3,3.2-2.8c0.5-1.8,0.8-5.1,0.8-9.9s-0.3-8.1-0.8-9.8S416.7,224.5,415.1,224.6L415.1,224.6
			z"/>
		<path d="M431.4,249.8v-28.4l12.2-1c3.2-0.3,5.7,0.2,7.6,1.4c1.8,1.1,2.9,3,2.9,5.1c0,3.4-2,5.9-6.1,7.2c2.1,0.6,3.5,1.3,4.1,2.2
			s1,2.6,1.3,5.3c0.3,3.2,0.8,5.2,1.6,6.2l-8.9,0.8c-0.6-1.5-0.9-3.2-0.9-4.9v-1.7V240c0-3.3-1.3-4.8-4-4.6l-1.4,0.1v13.6
			L431.4,249.8z M439.6,233.1l1.7-0.1c3.1-0.3,4.7-2,4.7-5.3s-1.6-4.8-4.7-4.5l-1.7,0.1V233.1z"/>
	</g>
	<g>
		<linearGradient id="SVGID_1_" gradientUnits="userSpaceOnUse" x1="55.385" y1="131.5823" x2="72.236" y2="278.6461">
			<stop  offset="0" style="stop-color:#FFFFFF"/>
			<stop  offset="1" style="stop-color:#EAEAEA"/>
		</linearGradient>
		<path class="st0" d="M75.2,59.6L70.6,60c-1.1-5.1-2.3-8.9-3.6-11.2c-1.4-2.3-3.6-4.1-6.1-5.1c-2.9-1.1-6.1-1.6-9.2-1.2
			c-4.8,0.4-8.7,2.1-11.5,5c-2.7,2.6-4.3,6.3-4.3,10.1c-0.1,3.2,1.2,6.3,3.5,8.5c2.3,2.3,8,5,17,8.1s15.1,6.5,18.3,10.4
			c3.2,3.8,4.9,8.6,4.8,13.5c0,4.7-1.3,9.2-3.6,13.2c-2.6,4.4-6.4,8-10.9,10.5c-4.8,2.8-10.1,4.5-15.7,4.9
			c-3.8,0.3-7.7,0.3-11.5-0.1c-4.7-0.6-9.3-1.4-13.8-2.6c0.7-7.6,1-15.2,0.9-22.8l4.7-0.4c1.3,6,2.7,10.1,4.2,12.4
			c1.6,2.4,3.9,4.3,6.5,5.4c3,1.3,6.3,1.9,9.6,1.5c4.6-0.4,9-2.2,12.5-5.1c6.4-5.5,7.2-15.2,1.7-21.6c-0.1-0.1-0.1-0.2-0.2-0.2
			c-2.7-2.8-8.4-5.7-17.1-8.7S32.3,78.3,29.3,75c-3-3.3-4.6-7.6-4.4-12c0-4.3,1.3-8.6,3.6-12.3c2.6-4.1,6.2-7.5,10.6-9.8
			c4.4-2.5,9.4-4.1,14.4-4.6c6-0.5,13.3,0.3,21.8,2.4c-0.2,5.9-0.3,9.5-0.3,10.7C74.9,52,75,55.4,75.2,59.6z"/>
		<linearGradient id="SVGID_2_" gradientUnits="userSpaceOnUse" x1="119.894" y1="124.1907" x2="136.745" y2="271.2545">
			<stop  offset="0" style="stop-color:#FFFFFF"/>
			<stop  offset="1" style="stop-color:#EAEAEA"/>
		</linearGradient>
		<path class="st1" d="M135.8,78.2h-4.1c-0.2-5.1-1.4-8.8-3.9-11.1c-2.4-2.3-5.7-3.2-9.9-2.8c-3.1,0.3-6.1,1.4-8.6,3.2
			c-3,2.2-5.2,5.2-6.5,8.6c-1.6,4.1-2.4,8.5-2.3,12.9c0,7.6,1.8,13.3,5.5,17.2c3.7,3.9,7.9,5.7,12.7,5.3c5.1-0.4,11.2-3,18.3-7.6
			l2.3,3.5c-4.9,4.2-10.3,8-15.9,11.3c-2.3,1.2-4.8,1.8-7.4,2c-7.1,0.6-12.8-1-17.2-4.7c-5.8-5-8.7-12.2-8.7-21.5
			c0-9.7,3-17.9,9.1-24.7c5.7-6.6,13.8-10.7,22.5-11.3c6-0.5,12.1,0.6,17.6,3.2c-0.3,1.4-0.7,3.2-1.2,5.4
			C137.4,69.9,136.7,73.7,135.8,78.2z"/>
		<linearGradient id="SVGID_3_" gradientUnits="userSpaceOnUse" x1="179.3708" y1="117.3756" x2="196.2219" y2="264.4394">
			<stop  offset="0" style="stop-color:#FFFFFF"/>
			<stop  offset="1" style="stop-color:#EAEAEA"/>
		</linearGradient>
		<path class="st2" d="M146.5,88.1c0-9.8,2.8-17.8,8.4-24c5.6-6.2,12.9-9.7,21.9-10.5c8.6-0.7,15.4,1.3,20.4,6s7.5,11.7,7.5,21
			c0,10-2.8,18.1-8.4,24.4s-12.9,9.8-21.8,10.6c-8.7,0.7-15.5-1.3-20.4-6C149,104.9,146.5,97.7,146.5,88.1z M158.2,81.8
			c0,6.7,0.4,11.5,1.3,14.6c1.3,5,3.5,8.7,6.4,11c2.8,2.3,6.5,3.4,10.1,3c4.9-0.4,9.4-2.8,12.3-6.8c3.2-4.1,4.8-10.3,4.8-18.7
			c0-9.4-1.8-16.2-5.4-20.4s-7.9-6.1-12.8-5.7c-4.7,0.3-9.1,2.6-12,6.4C159.7,69,158.2,74.5,158.2,81.8L158.2,81.8z"/>
		<linearGradient id="SVGID_4_" gradientUnits="userSpaceOnUse" x1="235.196" y1="110.979" x2="252.047" y2="258.0428">
			<stop  offset="0" style="stop-color:#FFFFFF"/>
			<stop  offset="1" style="stop-color:#EAEAEA"/>
		</linearGradient>
		<path class="st3" d="M227.2,36.5l3.5-0.3l-1.4,15.6l16.9-1.6l0.5,0.9c-1,1.8-2,3.6-2.8,5.5c-4.8,0.2-9.6,0.5-14.5,0.8l-0.5,31.3
			v0.4c0,4.8,0.5,8.3,1.6,10.3s2.9,2.9,5.5,2.7c2.2-0.2,5-1.3,8.5-3.5l1.8,3.3c-3.2,2.4-6.6,4.5-10.1,6.3c-1.9,0.9-3.9,1.6-6,1.8
			c-2.4,0.3-4.8-0.2-6.8-1.5c-1.9-1.3-3.2-3.3-3.7-5.5c-0.4-1.3-0.6-5.5-0.6-12.6c0-7.5,0.2-18.3,0.7-32.2c-2.8,0.3-5.8,0.7-8.8,1.2
			v-3.3c3.4-1.8,6.4-4.2,8.9-7.1C222.8,45.3,225.4,41,227.2,36.5z"/>
		<linearGradient id="SVGID_5_" gradientUnits="userSpaceOnUse" x1="272.6899" y1="106.6828" x2="289.541" y2="253.7466">
			<stop  offset="0" style="stop-color:#FFFFFF"/>
			<stop  offset="1" style="stop-color:#EAEAEA"/>
		</linearGradient>
		<path class="st4" d="M264.8,33.3l3.5-0.3L267,48.6l16.9-1.6l0.5,0.9c-1,1.8-2,3.6-2.8,5.5c-4.8,0.2-9.6,0.5-14.5,0.8l-0.5,31.3
			v0.4c0,4.8,0.5,8.3,1.6,10.3c1.1,2,2.9,2.9,5.5,2.7c2.1-0.2,5-1.4,8.5-3.5l1.8,3.3c-3.2,2.4-6.6,4.5-10.1,6.3
			c-1.9,0.9-3.9,1.6-6,1.8c-2.4,0.3-4.8-0.2-6.8-1.5c-1.9-1.3-3.2-3.2-3.7-5.5c-0.4-1.3-0.5-5.5-0.5-12.6c0-7.5,0.2-18.3,0.7-32.2
			c-2.8,0.3-5.8,0.7-8.8,1.2V53c3.4-1.8,6.4-4.2,8.9-7.1C260.4,42.1,263,37.8,264.8,33.3z"/>
		<linearGradient id="SVGID_6_" gradientUnits="userSpaceOnUse" x1="54.5571" y1="131.6772" x2="71.4081" y2="278.741">
			<stop  offset="0" style="stop-color:#FFFFFF"/>
			<stop  offset="1" style="stop-color:#EAEAEA"/>
		</linearGradient>
		<path class="st5" d="M0,146v-3.6c6.8-0.1,11.9-0.4,15.5-0.7c4-0.4,8.3-0.9,13-1.8c1.6,4.1,3,7.3,4,9.4c1.3,2.9,6.6,13.8,15.8,32.8
			c3.9,8.1,7.9,15.9,11.9,23.6l26-56.9c1.6-3.5,3.5-8.3,5.7-14.3c5.4,0,9.6-0.1,12.5-0.4c2.7-0.2,7.2-0.9,13.6-1.8v3.6
			c-1.2,0.4-2.1,0.7-2.7,0.9c-5.6,1.6-8.8,2.7-9.4,3.3c-1.1,0.9-1.6,3-1.6,6.3v0.8l-0.2,19.3c0,24.3,0.1,39,0.3,44.1
			c0,0.9,0.3,1.7,0.9,2.4c0.6,0.5,4.1,1,10.4,1.7c0.5,0,1.3,0.1,2.4,0.3v3.6c-7.3,0.2-13.7,0.5-19.3,1c-5.7,0.5-12.4,1.3-20.1,2.4
			v-3.6c1.6-0.5,2.8-0.9,3.6-1.2c4.9-1.4,7.8-2.3,8.5-2.7c0.7-0.4,1.2-1,1.4-1.7c0.4-1.2,0.6-4.5,0.6-9.9v-53.1
			c-3.7,7.6-12,25.9-25,54.9c-3.6,8-6.2,14.1-7.9,18.3l-3.5,0.3c-9.1-19.4-20.2-41.8-33.4-67.4l0.8,56.6c0,4.5,0.4,7,1.1,7.6
			s3.8,1.1,9.2,1.6c0.6,0.1,1.5,0.2,2.8,0.4v3.6c-7,0.2-12.7,0.4-17,0.8c-4.3,0.4-10.1,1.1-17.2,2.1V225c0.9-0.3,1.7-0.6,2.6-0.9
			c5.3-1.5,8.3-2.7,9-3.5c1-1.2,1.5-4.1,1.5-8.5l0.3-13.7c0.2-12.5,0.3-24.6,0.3-36.4l-0.1-7.4c0-3-0.2-4.8-0.6-5.5
			c-0.4-0.7-1-1.2-1.8-1.5c-1.5-0.5-5-0.9-10.3-1.2C2.6,146.4,1.5,146.3,0,146z"/>
		<linearGradient id="SVGID_7_" gradientUnits="userSpaceOnUse" x1="146.9801" y1="121.087" x2="163.8312" y2="268.1508">
			<stop  offset="0" style="stop-color:#FFFFFF"/>
			<stop  offset="1" style="stop-color:#EAEAEA"/>
		</linearGradient>
		<path class="st6" d="M120.7,165.9v-3.4c6.9-0.9,13.7-2.4,20.4-4.4l1.5,1c-0.9,8.5-1.4,17.1-1.3,25.7c0,8.7,0.3,14.3,0.8,16.6
			c0.4,2.2,1.7,4.1,3.6,5.4c2,1.2,4.3,1.8,6.6,1.5c3-0.3,5.8-1.3,8.2-3.1c2.4-1.6,4.3-3.8,5.4-6.5c1-2.5,1.5-6.3,1.5-11.4
			c0-0.6-0.1-7.4-0.4-20.5c-0.2-1.7-0.7-2.9-1.6-3.4s-3.1-0.7-6.9-0.6h-2.2v-3.4c6.9-1,13.7-2.5,20.3-4.4l1.6,1
			c-0.4,3.4-0.6,7.6-0.8,12.7c-0.2,5.1-0.3,11-0.3,17.7c0,8.5,0.2,13.5,0.7,15c0.4,1.6,1.6,2.2,3.4,2.1c2.2-0.3,4.3-0.7,6.4-1.3v3.4
			c-3.6,1.2-7.1,2.6-10.6,4.2c-3.1,1.6-6.2,3.3-9.1,5.3l-1.8-1c0.5-3,0.8-6,0.9-9.1c-4.8,4.9-8.4,8-10.8,9.4c-2.4,1.4-5.2,2.3-8,2.5
			c-5.6,0.5-9.8-0.5-12.5-3.1c-2.8-2.5-4.2-6.6-4.2-12.1v-21.3c0-7.6-0.5-11.9-1.3-13s-3.3-1.6-7.4-1.5
			C122.3,165.9,121.6,165.9,120.7,165.9z"/>
		<linearGradient id="SVGID_8_" gradientUnits="userSpaceOnUse" x1="195.5476" y1="115.522" x2="212.3986" y2="262.5858">
			<stop  offset="0" style="stop-color:#FFFFFF"/>
			<stop  offset="1" style="stop-color:#EAEAEA"/>
		</linearGradient>
		<path class="st7" d="M190.8,134.3v-3.4c6.8-2.7,13.3-5.9,19.6-9.7l1.6,1c-1,7.7-1.5,21.9-1.5,42.7c0,20.9,0.1,32.5,0.2,34.7
			c0.2,2.2,0.6,3.6,1.4,4.3s3.7,1.5,8.8,2.5v3.4c-6.5,0.1-11.6,0.3-15.2,0.6c-3.8,0.3-8.8,1-14.9,2v-3.5c5.5-2.2,8.5-3.5,8.9-4.1
			c0.5-0.5,0.8-1.7,0.9-3.6c0.1-2.5,0.2-13.7,0.2-33.5l-0.1-28.9V138c0-2.2-0.3-3.7-0.9-4.3c-0.8-0.7-1.8-1-2.9-0.8
			C194.9,133.2,192.9,133.7,190.8,134.3z"/>
		<linearGradient id="SVGID_9_" gradientUnits="userSpaceOnUse" x1="229.2147" y1="111.6643" x2="246.0658" y2="258.7281">
			<stop  offset="0" style="stop-color:#FFFFFF"/>
			<stop  offset="1" style="stop-color:#EAEAEA"/>
		</linearGradient>
		<path class="st8" d="M224.6,131.4V128c6.8-2.7,13.3-5.9,19.6-9.7l1.6,0.9c-1,7.7-1.5,21.9-1.5,42.7c0,20.9,0.1,32.5,0.2,34.7
			c0.2,2.2,0.6,3.6,1.4,4.3s3.7,1.5,8.8,2.5v3.4c-6.5,0.1-11.6,0.3-15.2,0.6c-3.8,0.3-8.8,1-14.9,2V206c5.5-2.2,8.5-3.5,9-4.1
			s0.8-1.7,0.9-3.6c0.1-2.5,0.2-13.7,0.2-33.5l-0.1-28.9v-0.9c0-2.2-0.3-3.7-0.9-4.3c-0.8-0.7-1.8-1-2.9-0.8
			C228.7,130.3,226.7,130.8,224.6,131.4z"/>
		<linearGradient id="SVGID_10_" gradientUnits="userSpaceOnUse" x1="278.0534" y1="106.0682" x2="294.9045" y2="253.132">
			<stop  offset="0" style="stop-color:#FFFFFF"/>
			<stop  offset="1" style="stop-color:#EAEAEA"/>
		</linearGradient>
		<path class="st9" d="M308,187.5l2.3,3.4l-12.1,10c-1.6,1.2-3.3,2.2-5.2,2.9c-2.6,1-5.3,1.6-8,1.9c-6.4,0.7-12.7-1.7-17-6.5
			c-4.7-4.9-7-11.9-7-20.9c0-9.7,2.8-17.8,8.4-24.1c5.2-6.1,12.6-10,20.6-10.6c6.3-0.5,11.2,0.8,14.6,3.9c3.4,3.2,5.2,8.3,5.3,15.4
			c-1.7,1.1-3.3,2.5-4.7,4c-2.9,0.2-4.7,0.3-5.4,0.4c-10.7,0.9-20.1,1.9-28.1,2.9c0,9.1,1.5,15.8,4.6,20.2c3.1,4.4,7.3,6.4,12.5,6
			c2.9-0.3,5.7-1,8.3-2.3C301.1,192.3,304.7,190.1,308,187.5z M299.2,161.6c-0.2-4-1.1-7-2.7-8.9c-2.2-2.8-5.7-4.2-9.2-3.8
			c-3.4,0.3-6.5,1.8-8.9,4.2c-2.6,2.5-4.5,6.5-5.8,11.8c1.5-0.1,2.6-0.2,3.4-0.2C282.7,164.2,290.4,163.2,299.2,161.6L299.2,161.6z"
			/>
		<linearGradient id="SVGID_11_" gradientUnits="userSpaceOnUse" x1="337.6302" y1="99.2417" x2="354.4812" y2="246.3055">
			<stop  offset="0" style="stop-color:#FFFFFF"/>
			<stop  offset="1" style="stop-color:#EAEAEA"/>
		</linearGradient>
		<path class="st10" d="M315.3,153.2v-3.5c7-2.2,13.7-5.4,19.8-9.4l1.6,0.9c-0.6,3.6-0.9,7.1-1,10.7l7.7-8.3
			c1.3-1.3,2.9-2.3,4.6-3.1c2.4-1.1,4.9-1.8,7.5-2c5.8-0.5,10.2,1,13.1,4.6c2,2.4,3,6.7,3,12.9l-0.2,14.7c0,9.9,0.1,15.7,0.4,17.4
			c0.1,0.9,0.5,1.8,1.2,2.5c0.6,0.4,2.5,0.9,5.8,1.4c0.6,0.1,1.5,0.3,2.7,0.4v3.4c-4.8,0-9.1,0.1-12.8,0.4c-3.2,0.3-8.8,1-16.7,2.1
			V195c4.7-1.8,7.4-3,8-3.5c0.6-0.7,1-1.5,1.1-2.5c0.5-6.1,0.8-12.3,0.7-18.5c0-8.8-0.2-14.2-0.5-16c-0.4-2.4-1.7-4.5-3.6-5.9
			c-1.9-1.3-4.3-1.9-6.7-1.6c-2.8,0.3-5.6,1.3-7.9,3c-2.5,1.7-4.5,4-5.8,6.8c-1.2,2.7-1.9,6.7-1.9,11.8c0,14.6,0.3,22.5,0.9,23.6
			s3,2.1,7.1,2.8c0.5,0.1,1.3,0.2,2.3,0.4v3.5c-5.4,0-10,0.2-13.7,0.5c-3.6,0.3-8.9,1-16,2v-3.4c4.8-1.6,7.5-2.6,8.2-3.2
			c0.6-0.8,0.9-1.7,0.9-2.6c0.5-5.3,0.7-10.5,0.7-15.8c0-13.7-0.1-21.2-0.4-22.4c-0.4-1.7-1.6-2.4-3.6-2.2c-1.4,0.2-2.8,0.4-4.2,0.8
			C317.2,152.8,316.4,153,315.3,153.2z"/>
		<linearGradient id="SVGID_12_" gradientUnits="userSpaceOnUse" x1="364.8064" y1="96.1278" x2="381.6575" y2="243.1916">
			<stop  offset="0" style="stop-color:#FFFFFF"/>
			<stop  offset="1" style="stop-color:#EAEAEA"/>
		</linearGradient>
		<path class="st11" d="M396.8,105c-25.5,20-62.5,15.5-82.5-10c-20-25.5-15.5-62.5,10-82.5c25.5-20,62.5-15.5,82.5,10
			C426.8,48.1,422.3,85,396.8,105z M330.6,20.7c-21,16.5-24.7,46.9-8.2,67.9c16.5,21,46.9,24.7,67.9,8.2s24.7-46.9,8.2-67.9
			c0,0,0,0,0,0C382.1,7.9,351.7,4.2,330.6,20.7z"/>
		<linearGradient id="SVGID_13_" gradientUnits="userSpaceOnUse" x1="397.1412" y1="92.4227" x2="413.9922" y2="239.4866">
			<stop  offset="0" style="stop-color:#FFFFFF"/>
			<stop  offset="1" style="stop-color:#EAEAEA"/>
		</linearGradient>
		<polygon class="st12" points="387.4,105.8 399.8,96.1 410.4,109.6 398,119.3 		"/>
		<linearGradient id="SVGID_14_" gradientUnits="userSpaceOnUse" x1="422.6037" y1="89.5052" x2="439.4547" y2="236.569">
			<stop  offset="0" style="stop-color:#FFFFFF"/>
			<stop  offset="1" style="stop-color:#EAEAEA"/>
		</linearGradient>
		<path class="st13" d="M394.1,120.5l18.4-14.4c1.7-1.3,4.1-1,5.5,0.7l46.9,59.8c1.3,1.7,1,4.1-0.7,5.5l-18.4,14.4
			c-1.7,1.3-4.1,1-5.5-0.7L393.4,126C392.1,124.3,392.4,121.8,394.1,120.5z"/>
		<linearGradient id="SVGID_15_" gradientUnits="userSpaceOnUse" x1="13.2343" y1="136.4121" x2="30.0853" y2="283.4759">
			<stop  offset="0" style="stop-color:#FFFFFF"/>
			<stop  offset="1" style="stop-color:#EAEAEA"/>
		</linearGradient>
		<path class="st14" d="M17.2,281.6v-28.4l12.2-1.1c7-0.6,10.4,1.9,10.4,7.5c0,5.6-3.9,8.7-11.6,9.4l-2.9,0.2v11.7L17.2,281.6z
			 M25.5,266.6l1.9-0.2c3-0.2,4.5-2.4,4.5-6.3c0-3.7-1.5-5.4-4.5-5.2l-1.9,0.2V266.6z"/>
		<linearGradient id="SVGID_16_" gradientUnits="userSpaceOnUse" x1="38.6359" y1="133.5015" x2="55.4869" y2="280.5653">
			<stop  offset="0" style="stop-color:#FFFFFF"/>
			<stop  offset="1" style="stop-color:#EAEAEA"/>
		</linearGradient>
		<path class="st15" d="M42.7,279.4V251l12.2-1c3.2-0.3,5.7,0.2,7.6,1.4c1.8,1,2.9,3,2.9,5.1c0,3.4-2,5.9-6.1,7.2
			c2.1,0.6,3.5,1.3,4.1,2.2s1,2.6,1.3,5.3c0.3,3.2,0.8,5.2,1.6,6.2l-8.9,0.8c-0.6-1.5-0.9-3.2-0.8-4.9v-1.7v-2.1
			c0-3.3-1.3-4.8-4-4.6l-1.4,0.1v13.6L42.7,279.4z M50.9,262.8l1.7-0.1c3.1-0.3,4.7-2,4.7-5.3c0-3.3-1.6-4.8-4.7-4.5l-1.7,0.1V262.8
			z"/>
		<linearGradient id="SVGID_17_" gradientUnits="userSpaceOnUse" x1="58.6705" y1="131.2058" x2="75.5215" y2="278.2697">
			<stop  offset="0" style="stop-color:#FFFFFF"/>
			<stop  offset="1" style="stop-color:#EAEAEA"/>
		</linearGradient>
		<path class="st16" d="M77.8,248.1v28.4l-8.2,0.7v-28.4L77.8,248.1z"/>
		<linearGradient id="SVGID_18_" gradientUnits="userSpaceOnUse" x1="78.157" y1="128.973" x2="95.0081" y2="276.0368">
			<stop  offset="0" style="stop-color:#FFFFFF"/>
			<stop  offset="1" style="stop-color:#EAEAEA"/>
		</linearGradient>
		<path class="st17" d="M103.2,245.9L95,275l-7.4,0.6l-7.5-27.8l8.3-0.7l5.6,21l6.1-22L103.2,245.9z"/>
		<linearGradient id="SVGID_19_" gradientUnits="userSpaceOnUse" x1="97.6344" y1="126.7412" x2="114.4855" y2="273.8051">
			<stop  offset="0" style="stop-color:#FFFFFF"/>
			<stop  offset="1" style="stop-color:#EAEAEA"/>
		</linearGradient>
		<path class="st18" d="M118.3,244.6l7.9,27.7l-8.3,0.7l-1.7-6l-8.5,0.7l-1.8,6.3l-3.2,0.3l8.4-29.1L118.3,244.6z M108.5,264.8
			l7-0.6l-3.3-12.3L108.5,264.8z"/>
		<linearGradient id="SVGID_20_" gradientUnits="userSpaceOnUse" x1="123.1674" y1="123.8156" x2="140.0184" y2="270.8794">
			<stop  offset="0" style="stop-color:#FFFFFF"/>
			<stop  offset="1" style="stop-color:#EAEAEA"/>
		</linearGradient>
		<path class="st19" d="M148.4,242v2.9l-7,0.6V271l-8.7,0.8v-25.5l-7,0.6V244L148.4,242z"/>
		<linearGradient id="SVGID_21_" gradientUnits="userSpaceOnUse" x1="144.3345" y1="121.3902" x2="161.1856" y2="268.454">
			<stop  offset="0" style="stop-color:#FFFFFF"/>
			<stop  offset="1" style="stop-color:#EAEAEA"/>
		</linearGradient>
		<path class="st20" d="M168.9,240.3v2.9l-10.2,0.9v8.6l8.6-0.7v2.9l-8.6,0.7v11.3l11.9-1v2.8l-20.1,1.7v-28.4L168.9,240.3z"/>
		<linearGradient id="SVGID_22_" gradientUnits="userSpaceOnUse" x1="174.6538" y1="117.9161" x2="191.5048" y2="264.9799">
			<stop  offset="0" style="stop-color:#FFFFFF"/>
			<stop  offset="1" style="stop-color:#EAEAEA"/>
		</linearGradient>
		<path class="st21" d="M194.2,238.1v28.4l-8.2,0.7v-28.4L194.2,238.1z"/>
		<linearGradient id="SVGID_23_" gradientUnits="userSpaceOnUse" x1="193.9241" y1="115.708" x2="210.7752" y2="262.7719">
			<stop  offset="0" style="stop-color:#FFFFFF"/>
			<stop  offset="1" style="stop-color:#EAEAEA"/>
		</linearGradient>
		<path class="st22" d="M219.9,236v28.4l-6.3,0.5l-11.9-17v18l-2.8,0.2v-28.4l5.2-0.4l12.9,18.3v-19.4L219.9,236z"/>
		<linearGradient id="SVGID_24_" gradientUnits="userSpaceOnUse" x1="219.5695" y1="112.7695" x2="236.4206" y2="259.8333">
			<stop  offset="0" style="stop-color:#FFFFFF"/>
			<stop  offset="1" style="stop-color:#EAEAEA"/>
		</linearGradient>
		<path class="st23" d="M245.1,233.8l-8.2,29.1l-7.4,0.6l-7.5-27.8l8.3-0.7l5.6,21l6.1-22L245.1,233.8z"/>
		<linearGradient id="SVGID_25_" gradientUnits="userSpaceOnUse" x1="240.7885" y1="110.3382" x2="257.6395" y2="257.402">
			<stop  offset="0" style="stop-color:#FFFFFF"/>
			<stop  offset="1" style="stop-color:#EAEAEA"/>
		</linearGradient>
		<path class="st24" d="M265.7,232.1v2.9l-10.2,0.9v8.6l8.6-0.7v2.9l-8.6,0.7v11.3l11.9-1v2.9l-20.1,1.7v-28.4L265.7,232.1z"/>
		<linearGradient id="SVGID_26_" gradientUnits="userSpaceOnUse" x1="262.8514" y1="107.8101" x2="279.7025" y2="254.8739">
			<stop  offset="0" style="stop-color:#FFFFFF"/>
			<stop  offset="1" style="stop-color:#EAEAEA"/>
		</linearGradient>
		<path class="st25" d="M288.5,238.1l-3.8,1c0.2-0.6,0.2-1.3,0.2-1.9c0-3.3-2-4.8-6-4.4c-3.2,0.3-4.7,1.5-4.7,3.8
			c0,1.7,1.8,3,5.3,3.9c6.8,1.8,10.2,4.9,10.2,9.5c0.1,2.6-1,5-2.9,6.7c-2.1,1.9-4.8,3-7.6,3.1c-7,0.6-10.5-1.8-10.5-7.3
			c0-0.6,0-1.1,0.1-1.6l4-1.2c-0.3,1-0.4,2.1-0.5,3.2c0,3.5,2,5.1,6.1,4.8c3.2-0.3,4.8-1.7,4.8-4.2c0-1.9-1.9-3.4-5.8-4.5
			c-5.6-1.6-8.4-4.6-8.4-9.1c0-2.4,1-4.8,2.8-6.4c2-1.8,4.6-2.9,7.4-3C285.4,229.9,288.5,232.5,288.5,238.1z"/>
		<linearGradient id="SVGID_27_" gradientUnits="userSpaceOnUse" x1="287.5259" y1="104.9828" x2="304.377" y2="252.0466">
			<stop  offset="0" style="stop-color:#FFFFFF"/>
			<stop  offset="1" style="stop-color:#EAEAEA"/>
		</linearGradient>
		<path class="st26" d="M313.3,228v2.8l-7,0.6V257l-8.7,0.7v-25.6l-7,0.6v-2.9L313.3,228z"/>
		<linearGradient id="SVGID_28_" gradientUnits="userSpaceOnUse" x1="303.6682" y1="103.1332" x2="320.5193" y2="250.197">
			<stop  offset="0" style="stop-color:#FFFFFF"/>
			<stop  offset="1" style="stop-color:#EAEAEA"/>
		</linearGradient>
		<path class="st27" d="M323.7,227.1v28.4l-8.2,0.7v-28.4L323.7,227.1z"/>
		<linearGradient id="SVGID_29_" gradientUnits="userSpaceOnUse" x1="323.3978" y1="100.8725" x2="340.2488" y2="247.9363">
			<stop  offset="0" style="stop-color:#FFFFFF"/>
			<stop  offset="1" style="stop-color:#EAEAEA"/>
		</linearGradient>
		<path class="st28" d="M339.7,238.8l11.7-1v15.3l-2.6,0.2l-0.9-1.9c-2.1,1.7-4.6,2.8-7.2,3.1c-4.2,0.4-7.5-0.6-9.8-2.9
			s-3.5-5.8-3.5-10.3c-0.2-4,1.1-8,3.6-11.1c2.4-2.9,5.9-4.7,9.7-4.9c5.2-0.5,8.4,1.9,9.6,7.2l-3.9,2.1v-0.7l-0.1-1.5
			c-0.3-3.3-1.8-4.9-4.6-4.6c-1.9,0.1-3.6,1.2-4.3,3c-0.8,1.8-1.1,5.2-1.1,10c0,4.5,0.3,7.6,0.9,9.1c0.5,1.5,2,2.4,3.5,2.1
			c2-0.2,3.1-1.4,3.1-3.7v-7l-4.1,0.3L339.7,238.8z"/>
		<linearGradient id="SVGID_30_" gradientUnits="userSpaceOnUse" x1="346.837" y1="98.1868" x2="363.6881" y2="245.2506">
			<stop  offset="0" style="stop-color:#FFFFFF"/>
			<stop  offset="1" style="stop-color:#EAEAEA"/>
		</linearGradient>
		<path class="st29" d="M368.3,223.3l7.9,27.7l-8.3,0.7l-1.7-6l-8.5,0.7l-1.8,6.3l-3.2,0.3l8.4-29.1L368.3,223.3z M358.5,243.5
			l7-0.6l-3.4-12.3L358.5,243.5z"/>
		<linearGradient id="SVGID_31_" gradientUnits="userSpaceOnUse" x1="372.3628" y1="95.2619" x2="389.2139" y2="242.3258">
			<stop  offset="0" style="stop-color:#FFFFFF"/>
			<stop  offset="1" style="stop-color:#EAEAEA"/>
		</linearGradient>
		<path class="st30" d="M398.4,220.8v2.8l-7,0.6v25.5l-8.7,0.7v-25.5l-7,0.6v-2.9L398.4,220.8z"/>
		<linearGradient id="SVGID_32_" gradientUnits="userSpaceOnUse" x1="395.7463" y1="92.5826" x2="412.5974" y2="239.6464">
			<stop  offset="0" style="stop-color:#FFFFFF"/>
			<stop  offset="1" style="stop-color:#EAEAEA"/>
		</linearGradient>
		<path class="st31" d="M412.1,219.1c8.3-0.7,12.4,3.8,12.4,13.6s-4.2,15-12.6,15.8c-8.4,0.7-12.6-3.9-12.6-13.9
			C399.3,225,403.6,219.8,412.1,219.1z M411.9,221.4c-1.6,0.1-2.8,1.3-3.1,2.8c-0.5,1.8-0.8,5.1-0.8,9.9s0.3,8.1,0.8,9.8
			s1.6,2.4,3.1,2.3c1.6-0.1,2.8-1.3,3.1-2.8c0.5-1.8,0.8-5.1,0.8-9.9c0-4.8-0.3-8.1-0.8-9.8C414.8,222.2,413.4,221.2,411.9,221.4z"
			/>
		<linearGradient id="SVGID_33_" gradientUnits="userSpaceOnUse" x1="422.8517" y1="89.4767" x2="439.7027" y2="236.5406">
			<stop  offset="0" style="stop-color:#FFFFFF"/>
			<stop  offset="1" style="stop-color:#EAEAEA"/>
		</linearGradient>
		<path class="st32" d="M428.2,246.6v-28.4l12.2-1c3.2-0.3,5.7,0.2,7.6,1.4c1.8,1,2.9,3,2.9,5.1c0,3.4-2,5.9-6.1,7.2
			c2.1,0.6,3.5,1.3,4.1,2.2s1,2.6,1.3,5.3c0.3,3.2,0.8,5.2,1.6,6.2l-9,0.8c-0.6-1.5-0.9-3.2-0.9-4.9v-1.7v-2.1c0-3.3-1.3-4.8-4-4.6
			l-1.4,0.1v13.6L428.2,246.6z M436.4,229.9l1.7-0.1c3.1-0.3,4.7-2,4.7-5.3s-1.6-4.8-4.7-4.5l-1.7,0.1V229.9z"/>
	</g>
</g>
</svg>
