<svg id="Layer_1" data-name="Layer 1" xmlns="http://www.w3.org/2000/svg" viewBox="0 0 505.21 196.15"><defs><style>.cls-1{fill:#fff;}</style></defs><path class="cls-1" d="M11,107.45H1.39V46.11H51.26v61.34H41.62V55H11Z"/><path class="cls-1" d="M118,99.48q-8.94,9.12-22.44,9.11T73.17,99.48a31.67,31.67,0,0,1-8.85-22.7q0-13.48,8.85-22.61T95.6,45q13.5,0,22.44,9.2T127,76.78A31.32,31.32,0,0,1,118,99.48Zm-37.69-6.4a21.16,21.16,0,0,0,30.5,0,23,23,0,0,0,6.22-16.3,22.48,22.48,0,0,0-6.22-16.21,21,21,0,0,0-30.5,0Q74.22,67,74.22,76.78T80.35,93.08Z"/><path class="cls-1" d="M149.67,107.45H140V46.11h26.38q9.65,0,15,5a16.16,16.16,0,0,1,5.52,12.8A17.2,17.2,0,0,1,181.4,77q-5.35,5.08-15,5.09H149.67Zm0-52.49V73.27h16q5.44,0,8.5-2.4a8.15,8.15,0,0,0,3.07-6.8,8,8,0,0,0-3-6.74q-3-2.37-8.55-2.37Z"/><path class="cls-1" d="M193.32,55V46.11h50.21V55H223.2v52.49h-9.64V55Z"/><path class="cls-1" d="M243,107.28V98.51a11.24,11.24,0,0,0,3.24.36q6.48,0,8.59-8.07,2.1-6.92,2.45-23.66l.26-21h40.84v61.34h-9.64V55H266.84l-.26,13.14q-.34,19.91-4.3,29.54-4.11,10.08-15.5,10.08A13.63,13.63,0,0,1,243,107.28Z"/><path class="cls-1" d="M318.19,107.45H307.94l26.82-61.69h9.29l26.81,61.69H360.52l-6.66-15.24H324.77Zm21.13-49.51L328.1,83.7h22.43Z"/><path class="cls-1" d="M390.05,107.45h-9.63V46.11h9.63V70.3h32V46.11h9.64v61.34H422V79.15h-32Z"/><path class="cls-1" d="M449.65,114.8h-9.12V98.6h5.88a51.92,51.92,0,0,0,7.09-17.09q2.28-10.07,2.28-26.9v-8.5h40.58V98.6h8.85v16.2h-9.12v-7.35H449.65Zm7.27-16.2h29.8V55H465.16a151.27,151.27,0,0,1-1.84,25.76A50.08,50.08,0,0,1,456.92,98.6Z"/><path class="cls-1" d="M12.56,192.33H0v-72H42.29v55.37H29.73V131.39H12.56Z"/><path class="cls-1" d="M94.29,162.8a24.89,24.89,0,0,1-18.43,7.4,24.89,24.89,0,0,1-18.43-7.4,25.8,25.8,0,0,1,0-36,24.89,24.89,0,0,1,18.43-7.4,24.89,24.89,0,0,1,18.43,7.4,25.8,25.8,0,0,1,0,36Zm-27.64-8.1a12.72,12.72,0,0,0,18.35,0,15.12,15.12,0,0,0,0-19.82,12.72,12.72,0,0,0-18.35,0,15.34,15.34,0,0,0,0,19.82Z"/><path class="cls-1" d="M135.11,170.2q-11.72,0-19.47-7.12t-7.74-18.29q0-11.16,7.67-18.28T135,119.39a28.17,28.17,0,0,1,12.64,2.79v12.36a23.17,23.17,0,0,0-12.5-3.57,14.36,14.36,0,0,0-10.26,3.91,13.1,13.1,0,0,0-4.11,9.91,12.89,12.89,0,0,0,4.18,10,15.35,15.35,0,0,0,10.68,3.84,20.63,20.63,0,0,0,12.84-3.91v12.43A29,29,0,0,1,135.11,170.2Z"/><path class="cls-1" d="M180.83,184.84H168.26V131.39H153.61v-11h41.94v11H180.83Z"/><path class="cls-1" d="M214.74,174H202.18V120.37h12.49L227,139.14l12.42-18.77h12.42V186.2H239.38V139.42l-8.72,13.12h-6.91l-9-13.12Z"/><path class="cls-1" d="M303.87,162.8a26.64,26.64,0,0,1-36.85,0,25.41,25.41,0,0,1,18.42-43.41,24.89,24.89,0,0,1,18.43,7.4,25.8,25.8,0,0,1,0,36Zm-27.64-8.1a12.72,12.72,0,0,0,18.35,0,15.12,15.12,0,0,0,0-19.82,12.72,12.72,0,0,0-18.35,0,15.34,15.34,0,0,0,0,19.82Z"/><path class="cls-1" d="M331.57,196.15H319V120.37h21.77q8.24,0,13,4.25a14,14,0,0,1,4.81,11,14.26,14.26,0,0,1-4.81,11.1Q349,151,340.78,151h-9.21Zm0-65.18v9.7h8.31a6.85,6.85,0,0,0,4.36-1.28,4.33,4.33,0,0,0,1.64-3.6,4.23,4.23,0,0,0-1.61-3.56,6.93,6.93,0,0,0-4.39-1.26Z"/><path class="cls-1" d="M389.36,186.2H376.8V131.39H362.14v-11h41.94v11H389.36Z"/><path class="cls-1" d="M448.4,169.22H410.72V120.37h37.13v11H423.28V138h19.54v10.6H423.28v9.56H448.4Z"/><path class="cls-1" d="M468.08,169.22H455.52V120.37H468l12.36,18.77,12.42-18.77h12.42v72H492.72V139.42L484,152.54h-6.92l-9-13.12Z"/><path class="cls-1" d="M63.73,25.5a8.23,8.23,0,0,1-3-2.88,7.24,7.24,0,0,1-1.11-3.87h.91a6.48,6.48,0,0,0,1,3.38A7.53,7.53,0,0,0,64,24.7a6.09,6.09,0,0,0,3.26,1A5.49,5.49,0,0,0,72.08,23c1.16-1.79,1.8-4.84,1.89-9.16H69.24a7.92,7.92,0,0,1-.95,2.59,6.77,6.77,0,0,1-.69,1H66.51V9.28H67.6a6.41,6.41,0,0,1,.69,1.06,7.86,7.86,0,0,1,.95,2.58H74a24.51,24.51,0,0,0-.82-7A8.18,8.18,0,0,0,71,2.08,4.21,4.21,0,0,0,68.15.91C66.09.91,64.37,2,63,4.11A12.16,12.16,0,0,0,61.6,7.28H60.14V.36h.91l.73.51a6.75,6.75,0,0,1,1.27,1.5,8.43,8.43,0,0,1,1.6-1.17A8.45,8.45,0,0,1,68.84,0a11.55,11.55,0,0,1,6,1.55,10.22,10.22,0,0,1,4,4.55,16.49,16.49,0,0,1,1.44,7.19q0,6.36-3.27,9.82T68,26.57A8.53,8.53,0,0,1,63.73,25.5Z"/><path class="cls-1" d="M86.89,25.48l2.19-.55V8.74H86.35a7.93,7.93,0,0,1-1.2,4A7.42,7.42,0,0,1,84,14.2H82.89V7.83h18.2V14.2H100a7.11,7.11,0,0,1-1.2-1.42,7.81,7.81,0,0,1-1.17-4H94.9V24.93l2.19.55V26H86.89Z"/><path class="cls-1" d="M106,24a9.57,9.57,0,0,1-2.56-7.08A9.57,9.57,0,0,1,106,9.85a11,11,0,0,1,14.16,0,9.57,9.57,0,0,1,2.57,7.08A9.57,9.57,0,0,1,120.18,24,11.07,11.07,0,0,1,106,24Zm9.54-.2c.67-1.36,1-3.66,1-6.88s-.33-5.52-1-6.88-1.49-2-2.46-2-1.79.68-2.46,2-1,3.65-1,6.88.34,5.52,1,6.88,1.49,2,2.46,2S114.89,25.17,115.56,23.81Z"/><path class="cls-1" d="M135.67,15.11V13.47h14.56v1.64Z"/><path class="cls-1" d="M173.16,25.48l2.19-.55V18.56a5.94,5.94,0,0,1-1.77.68,9.1,9.1,0,0,1-2.06.23,8.38,8.38,0,0,1-5.33-1.42,4.66,4.66,0,0,1-1.76-3.85V8.92l-2.19-.55V7.83h10.19v.54l-2.18.55V14.2a6,6,0,0,0,.71,3.36,2.32,2.32,0,0,0,2,1,3.2,3.2,0,0,0,2.37-.91V8.92l-2.19-.55V7.83h10.19v.54l-2.18.55v16l2.18.55V26H173.16Z"/><path class="cls-1" d="M188.38,25.19a4.3,4.3,0,0,1-1.75-3.53,6.81,6.81,0,0,1,.62-2.8,5.61,5.61,0,0,1,.65-1.21c1-.24,2.08-.46,3.24-.65a60.53,60.53,0,0,1,7-.8V15.11c0-2.7-.33-4.55-1-5.57a3.33,3.33,0,0,0-3-1.53,4.19,4.19,0,0,0-1.31.18l-.51.18v5.46l-.47.11a7.87,7.87,0,0,1-1,.07,2.55,2.55,0,0,1-2.72-2.73,3.4,3.4,0,0,1,1.69-2.84,9,9,0,0,1,5-1.16,11.1,11.1,0,0,1,4.9,1,7.31,7.31,0,0,1,3.13,2.77,7.71,7.71,0,0,1,1.07,4.06v9.82l2.18.55V26h-3.27a4.3,4.3,0,0,1-3.39-1.35,4,4,0,0,1-.8-1.38,8.17,8.17,0,0,1-1.2,1.63,5.5,5.5,0,0,1-4.08,1.64A7.85,7.85,0,0,1,188.38,25.19Zm8.88-1.35a10.83,10.83,0,0,0,.84-1.45V17.11a27.48,27.48,0,0,0-3.21.18q-1.12.15-1.53.18a7.28,7.28,0,0,0-.36,1.09,10.9,10.9,0,0,0-.36,2.73,5.87,5.87,0,0,0,.61,3,1.84,1.84,0,0,0,1.57,1A3.08,3.08,0,0,0,197.26,23.84Z"/><path class="cls-1" d="M210.87,24a9.54,9.54,0,0,1-2.58-7.08,9.54,9.54,0,0,1,2.58-7.08,9.84,9.84,0,0,1,7.25-2.57,9,9,0,0,1,5,1.16,3.4,3.4,0,0,1,1.69,2.84,2.68,2.68,0,0,1-.75,2,2.65,2.65,0,0,1-2,.74,7,7,0,0,1-1-.07l-.44-.11V8.37l-.51-.18A4.19,4.19,0,0,0,218.84,8a3.56,3.56,0,0,0-3.22,2c-.76,1.31-1.15,3.63-1.15,7s.39,5.49,1.15,6.78a3.57,3.57,0,0,0,3.22,1.95,5.34,5.34,0,0,0,2.64-.67,5.18,5.18,0,0,0,1.93-1.78,4.13,4.13,0,0,0,.71-2.28H225a5,5,0,0,1-.87,2.77,6.19,6.19,0,0,1-2.44,2.09,8,8,0,0,1-3.6.78Q213.46,26.57,210.87,24Z"/><path class="cls-1" d="M231,25.48l2.18-.55V8.74h-2.73a7.93,7.93,0,0,1-1.2,4,7.37,7.37,0,0,1-1.16,1.42H227V7.83h18.2V14.2h-1.09a7.11,7.11,0,0,1-1.2-1.42,7.81,7.81,0,0,1-1.17-4h-2.72V24.93l2.18.55V26H231Z"/><path class="cls-1" d="M247.6,25.48l2.18-.55v-16l-2.18-.55V7.83h10.19v.54l-2.18.55v6.19h1.82q9.46,0,9.46,5.46T257.43,26H247.6Zm9.83-.36A3.11,3.11,0,0,0,260,24a5.3,5.3,0,0,0,.93-3.4,5.33,5.33,0,0,0-.93-3.41A3.1,3.1,0,0,0,257.43,16h-1.82v9.1Z"/><path class="cls-1" d="M281.85,24a9.54,9.54,0,0,1-2.58-7.08,9.54,9.54,0,0,1,2.58-7.08,9.84,9.84,0,0,1,7.25-2.57,9,9,0,0,1,5,1.16,3.4,3.4,0,0,1,1.69,2.84,2.68,2.68,0,0,1-.75,2,2.65,2.65,0,0,1-2,.74,7,7,0,0,1-1-.07l-.44-.11V8.37l-.51-.18A4.19,4.19,0,0,0,289.82,8a3.56,3.56,0,0,0-3.22,2c-.76,1.31-1.15,3.63-1.15,7s.39,5.49,1.15,6.78a3.57,3.57,0,0,0,3.22,1.95,5.34,5.34,0,0,0,2.64-.67,5.26,5.26,0,0,0,1.93-1.78,4.21,4.21,0,0,0,.71-2.28H296a5,5,0,0,1-.87,2.77,6.19,6.19,0,0,1-2.44,2.09,8,8,0,0,1-3.6.78Q284.44,26.57,281.85,24Z"/><path class="cls-1" d="M300.78,24a9.54,9.54,0,0,1-2.58-7.08,11.1,11.1,0,0,1,1.12-5.14,8.16,8.16,0,0,1,3.15-3.35,9.21,9.21,0,0,1,4.64-1.16,10.36,10.36,0,0,1,4.61,1,7.64,7.64,0,0,1,3.06,2.64,6.66,6.66,0,0,1,1.07,3.66,6,6,0,0,1-.18,1.57l-.18.61c-1.05.22-2.18.4-3.39.55a55.13,55.13,0,0,1-7.72.55q0,4.22,1.17,6a3.62,3.62,0,0,0,3.2,1.8,5.34,5.34,0,0,0,2.64-.67,5.26,5.26,0,0,0,1.93-1.78,4.21,4.21,0,0,0,.71-2.28h.91a5,5,0,0,1-.87,2.77,6.26,6.26,0,0,1-2.44,2.09,8,8,0,0,1-3.61.78A9.83,9.83,0,0,1,300.78,24Zm7.39-7.27a8,8,0,0,0,1.31-.18c0-.12.08-.39.18-.8a9.89,9.89,0,0,0,.18-1.93,9.19,9.19,0,0,0-.8-4.42A2.28,2.28,0,0,0,307.11,8q-2.73,0-2.73,8.92A29.75,29.75,0,0,0,308.17,16.74Z"/><path class="cls-1" d="M322,25.48l2.18-.55V8.74h-2.73a7.93,7.93,0,0,1-1.2,4,7.37,7.37,0,0,1-1.16,1.42H318V7.83h18.2V14.2h-1.09a7.11,7.11,0,0,1-1.2-1.42,7.81,7.81,0,0,1-1.17-4h-2.72V24.93l2.18.55V26H322Z"/><path class="cls-1" d="M342.06,25.48l2.18-.55V8.74h-2.73a7.93,7.93,0,0,1-1.2,4,7.07,7.07,0,0,1-1.17,1.42h-1.09V7.83h18.2V14.2h-1.09a7.11,7.11,0,0,1-1.2-1.42,7.81,7.81,0,0,1-1.17-4h-2.73V24.93l2.19.55V26H342.06Z"/><path class="cls-1" d="M358.62,26v-.55l2.18-.55v-16l-2.18-.55V7.83h10.19v.54l-2.18.55v12l5.82-10v-2l-2.18-.55V7.83h10.19v.54l-2.19.55v16l2.19.55V26H370.27v-.55l2.18-.55v-12l-5.82,10v2l2.18.55V26Z"/><path class="cls-1" d="M383.37,26v-.55l2.18-.55v-16l-2.18-.55V7.83h10.19v.54l-2.18.55v7.46h5.46V8.92l-2.19-.55V7.83h10.2v.54l-2.19.55v16l2.19.55V26h-10.2v-.55l2.19-.55V17.29h-5.46v7.64l2.18.55V26Z"/><path class="cls-1" d="M407.76,25.48l2.18-.55v-16l-2.18-.55V7.83h16.92V14.2h-1.09a7.11,7.11,0,0,1-1.2-1.42,7.8,7.8,0,0,1-1.16-4h-5.46V24.93l2.18.55V26H407.76Z"/><path class="cls-1" d="M428.43,25.19a4.32,4.32,0,0,1-1.74-3.53,6.66,6.66,0,0,1,.62-2.8,5.21,5.21,0,0,1,.65-1.21c1-.24,2.08-.46,3.24-.65a60.63,60.63,0,0,1,6.95-.8V15.11c0-2.7-.32-4.55-1-5.57a3.33,3.33,0,0,0-3-1.53,4.19,4.19,0,0,0-1.31.18l-.51.18v5.46l-.47.11a7.87,7.87,0,0,1-1,.07,2.56,2.56,0,0,1-2.73-2.73,3.41,3.41,0,0,1,1.7-2.84,8.94,8.94,0,0,1,5-1.16,11,11,0,0,1,4.89,1,7.26,7.26,0,0,1,3.13,2.77A7.63,7.63,0,0,1,444,15.11v9.82l2.18.55V26h-3.27a4.3,4.3,0,0,1-3.39-1.35,3.8,3.8,0,0,1-.8-1.38,8.17,8.17,0,0,1-1.2,1.63,5.5,5.5,0,0,1-4.08,1.64A7.9,7.9,0,0,1,428.43,25.19Zm8.89-1.35a9.9,9.9,0,0,0,.83-1.45V17.11a27.44,27.44,0,0,0-3.2.18q-1.12.15-1.53.18a7.28,7.28,0,0,0-.36,1.09,10.48,10.48,0,0,0-.37,2.73,5.86,5.86,0,0,0,.62,3,1.83,1.83,0,0,0,1.57,1A3.09,3.09,0,0,0,437.32,23.84Z"/></svg>