<svg id="Layer_1" data-name="Layer 1" xmlns="http://www.w3.org/2000/svg" viewBox="0 0 495.31 150.83"><path d="M9.72,70.68H0V8.84H26.59q9.72,0,15.11,5a16.28,16.28,0,0,1,5.56,12.9A17.36,17.36,0,0,1,41.7,40q-5.4,5.11-15.11,5.12H9.72Zm0-52.91V36.23H25.8q5.47,0,8.56-2.43A8.22,8.22,0,0,0,37.46,27a8.14,8.14,0,0,0-3.05-6.8q-3-2.38-8.61-2.38Z"/><path d="M110.42,62.64q-9,9.19-22.61,9.19T65.19,62.64a31.91,31.91,0,0,1-8.92-22.88q0-13.6,8.92-22.79T87.81,7.7q13.6,0,22.61,9.27t9,22.79Q119.43,53.36,110.42,62.64Zm-38-6.45a21.33,21.33,0,0,0,30.74,0,23.16,23.16,0,0,0,6.27-16.43,22.68,22.68,0,0,0-6.27-16.34,21.13,21.13,0,0,0-30.74,0q-6.19,6.45-6.19,16.34T72.44,56.19Z"/><path d="M142.31,70.68H132.6V8.84h28.18q9.54,0,14.93,4.86a16.37,16.37,0,0,1,5.47,12.72,16.74,16.74,0,0,1-13.43,17l19.44,27.21H175.44L156.8,44.53H142.31Zm0-52.91V36h17.85q5.29,0,8.26-2.38a8.24,8.24,0,0,0,3-6.8,8.05,8.05,0,0,0-3-6.63q-3-2.38-8.26-2.38Z"/><path d="M189.93,17.77V8.84h50.62v8.93h-20.5V70.68h-9.72V17.77Z"/><path d="M293.81,70.68H251.15V8.84H261V61.76h32.86Z"/><path d="M308.74,70.68H298.41l27-62.19h9.36l27,62.19H351.41L344.7,55.31H315.37ZM330,20.77l-11.3,26h22.61Z"/><path d="M381,70.68h-9.54V8.84h8.48l34.9,44.79V8.84h9.54V70.68h-8.22L381,25.72Z"/><path d="M461.57,70.68H439.75V8.84h21.82q14.83,0,24.29,8.66t9.45,22.26q0,13.7-9.45,22.35T461.57,70.68Zm-12.1-52.91v44h11.22q11.65,0,18.1-5.92t6.54-16.08q0-10.07-6.54-16.08t-18.1-5.91Z"/><path d="M12.48,136.29H0V83.41H21.64q8.17,0,12.9,4.23a13.94,13.94,0,0,1,4.78,11,14.14,14.14,0,0,1-4.78,11q-4.72,4.23-12.9,4.23H12.48Zm0-42.34v9.64h8.26a6.84,6.84,0,0,0,4.33-1.28,4.3,4.3,0,0,0,1.63-3.58,4.23,4.23,0,0,0-1.59-3.53A6.88,6.88,0,0,0,20.74,94Z"/><path d="M87.94,125.57a24.73,24.73,0,0,1-18.31,7.36,24.73,24.73,0,0,1-18.31-7.36A25.24,25.24,0,0,1,69.63,82.44a25.35,25.35,0,0,1,18.31,43.13Zm-27.46-8a12.66,12.66,0,0,0,18.24,0,15.05,15.05,0,0,0,0-19.7,12.66,12.66,0,0,0-18.24,0,13.75,13.75,0,0,0-3.61,9.85A13.73,13.73,0,0,0,60.48,117.53Z"/><path d="M120.12,132.93q-11.24,0-18.8-5.21V115a24.91,24.91,0,0,0,8.33,4.72,28.55,28.55,0,0,0,10,1.94q7.43,0,7.42-3.81a3.61,3.61,0,0,0-1.87-2.85,15.64,15.64,0,0,0-3.12-1.25l-4.37-1.31-3.54-1L111,110.11a17.45,17.45,0,0,1-3.19-1.53c-2.49-1.85-4.07-3.33-4.71-4.44A15.19,15.19,0,0,1,101.32,97a12.64,12.64,0,0,1,5.1-10.75q5.1-3.81,14-3.81a34.46,34.46,0,0,1,16.43,4v12a32,32,0,0,0-7.7-3.33,29.5,29.5,0,0,0-8.6-1.39q-6.37,0-6.38,3.19c0,.93.67,1.67,2,2.22l2.21.76c.51.19,1.6.51,3.26,1s2.8.79,3.4,1a32,32,0,0,1,11,5.75q4,3.4,3.95,9.71a13.66,13.66,0,0,1-5.55,11.37Q128.93,132.94,120.12,132.93Z"/><path d="M170.05,137.69H157.57V94.36H143v-11h41.69v11H170.05Z"/><path d="M203.76,134H191.27V83.41h12.42L216,102.06l12.35-18.65h12.34v52.88H228.24V102.34l-8.67,13H212.7l-8.94-13Z"/><path d="M292.32,125.57A25.6,25.6,0,0,1,255.7,89.79a26.48,26.48,0,0,1,36.62,0,25.62,25.62,0,0,1,0,35.78Zm-27.46-8a12.66,12.66,0,0,0,18.24,0,15.05,15.05,0,0,0,0-19.7,12.66,12.66,0,0,0-18.24,0,13.75,13.75,0,0,0-3.61,9.85A13.73,13.73,0,0,0,264.86,117.53Z"/><path d="M319.85,139.48H307.37V83.41h22.82q8,0,12.69,4.23a13.58,13.58,0,0,1,4.78,10.75,14.28,14.28,0,0,1-2.49,8.32,14.77,14.77,0,0,1-6.94,5.34l14.7,19.9H338.58l-13.73-18.51h-5Zm0-45.53v9.29h9.64a6.24,6.24,0,0,0,4.06-1.21A4.11,4.11,0,0,0,335,98.66a4.32,4.32,0,0,0-1.49-3.43A6,6,0,0,0,329.49,94Z"/><path d="M380.19,137.69H367.71V94.36H353.14v-11h41.68v11H380.19Z"/><path d="M438.86,132H401.41V83.41h36.9v11H413.89V101h19.42v10.54H413.89V121h25Z"/><path d="M458.42,134.29H445.94V83.41h12.41l12.28,18.65L483,83.41h12.34v52.88H482.9V102.34l-8.67,13h-6.86l-8.95-13Z"/></svg>