<svg id="Layer_1" data-name="Layer 1" xmlns="http://www.w3.org/2000/svg" viewBox="0 0 495.31 150.83"><path d="M9.72,63H0V1.15H26.59q9.72,0,15.11,5a16.28,16.28,0,0,1,5.56,12.9A17.35,17.35,0,0,1,41.7,32.33q-5.4,5.13-15.11,5.13H9.72Zm0-52.92V28.53H25.8q5.47,0,8.56-2.43a8.21,8.21,0,0,0,3.1-6.84,8.13,8.13,0,0,0-3.05-6.8q-3-2.39-8.61-2.39Z"/><path d="M110.42,55q-9,9.18-22.61,9.18T65.19,55a31.91,31.91,0,0,1-8.92-22.88q0-13.6,8.92-22.79T87.81,0q13.6,0,22.61,9.28t9,22.79A31.56,31.56,0,0,1,110.42,55Zm-38-6.45a21.33,21.33,0,0,0,30.74,0,23.18,23.18,0,0,0,6.27-16.43,22.69,22.69,0,0,0-6.27-16.35,21.15,21.15,0,0,0-30.74,0q-6.19,6.45-6.19,16.35T72.44,48.5Z"/><path d="M142.31,63H132.6V1.15h28.18q9.54,0,14.93,4.86a16.37,16.37,0,0,1,5.47,12.72,16.74,16.74,0,0,1-13.43,17.05L187.19,63H175.44L156.8,36.84H142.31Zm0-52.92v18.2h17.85q5.29,0,8.26-2.39a8.23,8.23,0,0,0,3-6.8,8,8,0,0,0-3-6.62q-3-2.39-8.26-2.39Z"/><path d="M189.93,10.07V1.15h50.62v8.92h-20.5V63h-9.72V10.07Z"/><path d="M293.81,63H251.15V1.15H261V54.06h32.86Z"/><path d="M308.74,63H298.41L325.44.8h9.36l27,62.19H351.41L344.7,47.61H315.37ZM330,13.07l-11.3,26h22.61Z"/><path d="M381,63h-9.54V1.15h8.48l34.9,44.79V1.15h9.54V63h-8.22L381,18Z"/><path d="M461.57,63H439.75V1.15h21.82q14.83,0,24.29,8.66t9.45,22.26q0,13.7-9.45,22.35T461.57,63Zm-12.1-52.92v44h11.22q11.65,0,18.1-5.92t6.54-16.07q0-10.08-6.54-16.08t-18.1-5.92Z"/><path d="M12.48,128.59H0V75.71H21.64q8.17,0,12.9,4.23a14,14,0,0,1,4.78,11,14.16,14.16,0,0,1-4.78,11q-4.72,4.23-12.9,4.23H12.48Zm0-42.34v9.64h8.26a6.78,6.78,0,0,0,4.33-1.28A4.28,4.28,0,0,0,26.7,91a4.23,4.23,0,0,0-1.59-3.54,6.94,6.94,0,0,0-4.37-1.25Z"/><path d="M87.94,117.88a24.72,24.72,0,0,1-18.31,7.35A25.36,25.36,0,0,1,51.32,82.09a24.72,24.72,0,0,1,18.31-7.35A25,25,0,0,1,95.22,100,24.49,24.49,0,0,1,87.94,117.88Zm-27.46-8a12.64,12.64,0,0,0,18.24,0,15,15,0,0,0,0-19.69,12.64,12.64,0,0,0-18.24,0A13.72,13.72,0,0,0,56.87,100,13.71,13.71,0,0,0,60.48,109.83Z"/><path d="M120.12,125.23q-11.24,0-18.8-5.2V107.27a25.08,25.08,0,0,0,8.33,4.71,28.35,28.35,0,0,0,10,2c5,0,7.42-1.28,7.42-3.82a3.6,3.6,0,0,0-1.87-2.84,15,15,0,0,0-3.12-1.25l-4.37-1.32-3.54-1L111,102.41a17.53,17.53,0,0,1-3.19-1.52c-2.49-1.85-4.07-3.33-4.71-4.44a15.2,15.2,0,0,1-1.74-7.15,12.62,12.62,0,0,1,5.1-10.74q5.1-3.82,14-3.82a34.46,34.46,0,0,1,16.43,4v12a32,32,0,0,0-7.7-3.33,29.81,29.81,0,0,0-8.6-1.38q-6.37,0-6.38,3.18c0,.93.67,1.67,2,2.22l2.21.77c.51.18,1.6.51,3.26,1s2.8.78,3.4,1a32,32,0,0,1,11,5.76q4,3.39,3.95,9.71A13.69,13.69,0,0,1,134.4,121Q128.93,125.23,120.12,125.23Z"/><path d="M170.05,130H157.57V86.67H143v-11h41.69v11H170.05Z"/><path d="M203.76,126.29H191.27V75.71h12.42L216,94.37l12.35-18.66h12.34v52.88H228.24V94.65l-8.67,13H212.7l-8.94-13Z"/><path d="M292.32,117.88A25.59,25.59,0,0,1,248.42,100a25.59,25.59,0,1,1,43.9,17.89Zm-27.46-8a12.64,12.64,0,0,0,18.24,0,15,15,0,0,0,0-19.69,12.64,12.64,0,0,0-18.24,0,13.72,13.72,0,0,0-3.61,9.85A13.71,13.71,0,0,0,264.86,109.83Z"/><path d="M319.85,131.78H307.37V75.71h22.82q8,0,12.69,4.23a13.59,13.59,0,0,1,4.78,10.75A14.26,14.26,0,0,1,345.17,99a14.65,14.65,0,0,1-6.94,5.34l14.7,19.91H338.58l-13.73-18.52h-5Zm0-45.53v9.3h9.64a6.24,6.24,0,0,0,4.06-1.22A4.11,4.11,0,0,0,335,91a4.3,4.3,0,0,0-1.49-3.43,6,6,0,0,0-4.06-1.29Z"/><path d="M380.19,130H367.71V86.67H353.14v-11h41.68v11H380.19Z"/><path d="M438.86,124.26H401.41V75.71h36.9v11H413.89v6.59h19.42V103.8H413.89v9.5h25Z"/><path d="M458.42,126.59H445.94V75.71h12.41l12.28,18.66L483,75.71h12.34v52.88H482.9V94.65l-8.67,13h-6.86l-8.95-13Z"/></svg>