<svg id="Layer_1" data-name="Layer 1" xmlns="http://www.w3.org/2000/svg" viewBox="0 0 500 150"><defs><style>.cls-1{fill:#fff;}</style></defs><path class="cls-1" d="M12.06,63H2.34V1.15H28.93q9.72,0,15.11,5a16.28,16.28,0,0,1,5.56,12.9A17.35,17.35,0,0,1,44,32.33q-5.38,5.13-15.11,5.13H12.06Zm0-52.92V28.53H28.14c3.65,0,6.5-.81,8.57-2.43a8.2,8.2,0,0,0,3.09-6.84,8.13,8.13,0,0,0-3-6.8q-3-2.39-8.61-2.39Z"/><path class="cls-1" d="M112.77,55q-9,9.18-22.62,9.18T67.54,55a31.92,31.92,0,0,1-8.93-22.88q0-13.6,8.93-22.79T90.15,0q13.6,0,22.62,9.28t9,22.79A31.6,31.6,0,0,1,112.77,55Zm-38-6.45a21.33,21.33,0,0,0,30.74,0,23.18,23.18,0,0,0,6.27-16.43,22.69,22.69,0,0,0-6.27-16.35,21.15,21.15,0,0,0-30.74,0Q68.6,22.17,68.6,32.07T74.78,48.5Z"/><path class="cls-1" d="M144.66,63h-9.72V1.15h28.18q9.54,0,14.93,4.86a16.37,16.37,0,0,1,5.47,12.72,17.29,17.29,0,0,1-3.57,11,17.19,17.19,0,0,1-9.85,6.05L189.53,63H177.78L159.14,36.84H144.66Zm0-52.92v18.2H162.5c3.53,0,6.29-.8,8.26-2.39a8.23,8.23,0,0,0,3-6.8,8,8,0,0,0-3-6.62c-2-1.59-4.73-2.39-8.26-2.39Z"/><path class="cls-1" d="M192.27,10.07V1.15h50.62v8.92h-20.5V63h-9.71V10.07Z"/><path class="cls-1" d="M296.16,63H253.49V1.15h9.8V54.06h32.87Z"/><path class="cls-1" d="M311.09,63H300.75L327.78.8h9.37l27,62.19H353.75L347,47.61H317.71Zm21.29-49.92-11.31,26h22.61Z"/><path class="cls-1" d="M383.35,63h-9.54V1.15h8.48l34.89,44.79V1.15h9.54V63h-8.21L383.35,18Z"/><path class="cls-1" d="M463.91,63H442.09V1.15h21.82q14.85,0,24.29,8.66t9.46,22.26q0,13.7-9.46,22.35T463.91,63Zm-12.1-52.92v44H463q11.66,0,18.11-5.92t6.53-16.07q0-10.08-6.53-16.08T463,10.07Z"/><path class="cls-1" d="M14.83,147.36H2.34V75.71H24q8.19,0,12.9,4.23a14,14,0,0,1,4.79,11,14.16,14.16,0,0,1-4.79,11q-4.71,4.23-12.9,4.23H14.83Zm0-61.11v9.64h8.25a6.76,6.76,0,0,0,4.33-1.28A4.28,4.28,0,0,0,29,91a4.23,4.23,0,0,0-1.59-3.54,6.94,6.94,0,0,0-4.37-1.25Z"/><path class="cls-1" d="M90.28,117.88A24.7,24.7,0,0,1,72,125.23,25.36,25.36,0,0,1,53.66,82.09,24.72,24.72,0,0,1,72,74.74,25,25,0,0,1,97.56,100,24.45,24.45,0,0,1,90.28,117.88Zm-27.46-8a12.64,12.64,0,0,0,18.24,0,15,15,0,0,0,0-19.69,12.64,12.64,0,0,0-18.24,0A13.72,13.72,0,0,0,59.21,100,13.71,13.71,0,0,0,62.82,109.83Z"/><path class="cls-1" d="M122.46,125.23q-11.23,0-18.79-5.2V107.27A24.92,24.92,0,0,0,112,112a28.39,28.39,0,0,0,10,2c5,0,7.43-1.28,7.43-3.82a3.61,3.61,0,0,0-1.88-2.84A14.47,14.47,0,0,0,124.4,106L120,104.7l-3.53-1-3.19-1.25a16.89,16.89,0,0,1-3.19-1.52q-3.75-2.77-4.72-4.44a15.19,15.19,0,0,1-1.73-7.15,12.64,12.64,0,0,1,5.09-10.74q5.1-3.82,14-3.82a34.43,34.43,0,0,1,16.43,4v12a32,32,0,0,0-7.69-3.33,29.91,29.91,0,0,0-8.6-1.38c-4.26,0-6.38,1.06-6.38,3.18q0,1.39,2,2.22l2.22.77c.5.18,1.59.51,3.26,1s2.79.78,3.39,1a31.9,31.9,0,0,1,11,5.76q4,3.39,4,9.71A13.69,13.69,0,0,1,136.75,121Q131.26,125.23,122.46,125.23Z"/><path class="cls-1" d="M172.39,139.87H159.91V86.67H145.35v-11H187v11H172.39Z"/><path class="cls-1" d="M206.1,129.15H193.62V75.71H206l12.28,18.66,12.34-18.66H243v64.16H230.58V94.65l-8.67,13h-6.86l-9-13Z"/><path class="cls-1" d="M294.66,117.88A25.6,25.6,0,0,1,250.76,100a25.6,25.6,0,1,1,43.9,17.89Zm-27.46-8a12.64,12.64,0,0,0,18.24,0,15,15,0,0,0,0-19.69,12.64,12.64,0,0,0-18.24,0,13.76,13.76,0,0,0-3.61,9.85A13.75,13.75,0,0,0,267.2,109.83Z"/><path class="cls-1" d="M322.2,150H309.71V75.71h22.82q8,0,12.69,4.23A13.6,13.6,0,0,1,350,90.69a14.27,14.27,0,0,1-2.5,8.32,14.65,14.65,0,0,1-6.94,5.34l14.71,19.91H340.92l-13.73-18.52h-5Zm0-63.75v9.3h9.64a6.21,6.21,0,0,0,4.05-1.22A4.08,4.08,0,0,0,337.38,91a4.27,4.27,0,0,0-1.49-3.43,6,6,0,0,0-4.05-1.29Z"/><path class="cls-1" d="M382.53,141.23H370.05V86.67H355.48v-11h41.68v11H382.53Z"/><path class="cls-1" d="M441.2,124.26H403.75V75.71h36.9v11H416.24v6.59h19.42V103.8H416.24v9.5h25Z"/><path class="cls-1" d="M460.76,129.49H448.28V75.71h12.41L473,94.37l12.34-18.66h12.35v71.65H485.24V94.65l-8.67,13h-6.86l-8.95-13Z"/></svg>