<svg id="Layer_1" data-name="Layer 1" xmlns="http://www.w3.org/2000/svg" viewBox="0 0 495.31 150.83"><path d="M9.72,62.63H0V.8H26.59q9.72,0,15.11,5a16.28,16.28,0,0,1,5.56,12.9A17.36,17.36,0,0,1,41.7,32q-5.4,5.13-15.11,5.12H9.72Zm0-52.91V28.18H25.8q5.47,0,8.56-2.43a8.22,8.22,0,0,0,3.1-6.85,8.14,8.14,0,0,0-3.05-6.8q-3-2.38-8.61-2.38Z"/><path d="M110.42,54.59q-9,9.19-22.61,9.19T65.19,54.59a31.91,31.91,0,0,1-8.92-22.88q0-13.6,8.92-22.79T87.81-.35q13.6,0,22.61,9.27t9,22.79Q119.43,45.32,110.42,54.59Zm-38-6.45a21.33,21.33,0,0,0,30.74,0,23.16,23.16,0,0,0,6.27-16.43,22.68,22.68,0,0,0-6.27-16.34,21.15,21.15,0,0,0-30.74,0q-6.19,6.45-6.19,16.34T72.44,48.14Z"/><path d="M142.31,62.63H132.6V.8h28.18q9.54,0,14.93,4.85a16.37,16.37,0,0,1,5.47,12.72,16.74,16.74,0,0,1-13.43,17.05l19.44,27.21H175.44L156.8,36.48H142.31Zm0-52.91v18.2h17.85q5.29,0,8.26-2.39a8.24,8.24,0,0,0,3-6.8,8.05,8.05,0,0,0-3-6.63q-3-2.38-8.26-2.38Z"/><path d="M189.93,9.72V.8h50.62V9.72h-20.5V62.63h-9.72V9.72Z"/><path d="M293.81,62.63H251.15V.8H261V53.71h32.86Z"/><path d="M308.74,62.63H298.41l27-62.19h9.36l27,62.19H351.41L344.7,47.26H315.37ZM330,12.72l-11.3,26h22.61Z"/><path d="M381,62.63h-9.54V.8h8.48l34.9,44.78V.8h9.54V62.63h-8.22L381,17.67Z"/><path d="M461.57,62.63H439.75V.8h21.82q14.83,0,24.29,8.65t9.45,22.26q0,13.7-9.45,22.35T461.57,62.63ZM449.47,9.72v44h11.22q11.65,0,18.1-5.92t6.54-16.08q0-10.07-6.54-16.07t-18.1-5.92Z"/><path d="M12.48,147H0V75.36H21.64q8.17,0,12.9,4.23a13.94,13.94,0,0,1,4.78,11,14.14,14.14,0,0,1-4.78,11q-4.72,4.23-12.9,4.23H12.48Zm0-61.1v9.64h8.26a6.84,6.84,0,0,0,4.33-1.28,4.29,4.29,0,0,0,1.63-3.57,4.23,4.23,0,0,0-1.59-3.54,6.94,6.94,0,0,0-4.37-1.25Z"/><path d="M87.94,117.52a24.69,24.69,0,0,1-18.31,7.36A25,25,0,0,1,44,99.63,25,25,0,0,1,69.63,74.39,25,25,0,0,1,95.22,99.63,24.48,24.48,0,0,1,87.94,117.52Zm-27.46-8a12.66,12.66,0,0,0,18.24,0,15.05,15.05,0,0,0,0-19.7,12.66,12.66,0,0,0-18.24,0,13.75,13.75,0,0,0-3.61,9.85A13.73,13.73,0,0,0,60.48,109.48Z"/><path d="M120.12,124.88q-11.24,0-18.8-5.2V106.91a24.91,24.91,0,0,0,8.33,4.72,28.55,28.55,0,0,0,10,1.94q7.43,0,7.42-3.81a3.61,3.61,0,0,0-1.87-2.85,15.64,15.64,0,0,0-3.12-1.25l-4.37-1.31-3.54-1L111,102.06a17.45,17.45,0,0,1-3.19-1.53c-2.49-1.85-4.07-3.33-4.71-4.44A15.16,15.16,0,0,1,101.32,89a12.65,12.65,0,0,1,5.1-10.75q5.1-3.81,14-3.81a34.46,34.46,0,0,1,16.43,4v12a32,32,0,0,0-7.7-3.33,29.5,29.5,0,0,0-8.6-1.39c-4.25,0-6.38,1.07-6.38,3.19,0,.93.67,1.67,2,2.22l2.21.76c.51.19,1.6.51,3.26,1s2.8.78,3.4,1a32,32,0,0,1,11,5.75q4,3.41,3.95,9.71a13.69,13.69,0,0,1-5.55,11.38Q128.93,124.88,120.12,124.88Z"/><path d="M170.05,139.52H157.57V86.32H143v-11h41.69v11H170.05Z"/><path d="M203.76,128.79H191.27V75.36h12.42L216,94l12.35-18.65h12.34v64.16H228.24V94.29l-8.67,13H212.7l-8.94-13Z"/><path d="M292.32,117.52a25.59,25.59,0,0,1-43.9-17.89,25.59,25.59,0,1,1,43.9,17.89Zm-27.46-8a12.66,12.66,0,0,0,18.24,0,15.05,15.05,0,0,0,0-19.7,12.66,12.66,0,0,0-18.24,0,13.75,13.75,0,0,0-3.61,9.85A13.73,13.73,0,0,0,264.86,109.48Z"/><path d="M319.85,150.83H307.37V75.36h22.82q8,0,12.69,4.23a13.58,13.58,0,0,1,4.78,10.75,14.28,14.28,0,0,1-2.49,8.32,14.71,14.71,0,0,1-6.94,5.34l14.7,19.91H338.58l-13.73-18.52h-5Zm0-64.93v9.29h9.64A6.24,6.24,0,0,0,333.55,94,4.11,4.11,0,0,0,335,90.62a4.32,4.32,0,0,0-1.49-3.44,6,6,0,0,0-4.06-1.28Z"/><path d="M380.19,140.88H367.71V86.32H353.14v-11h41.68v11H380.19Z"/><path d="M438.86,123.91H401.41V75.36h36.9v11H413.89v6.59h19.42v10.54H413.89V113h25Z"/><path d="M458.42,129.13H445.94V75.36h12.41L470.63,94,483,75.36h12.34V147H482.9V94.29l-8.67,13h-6.86l-8.95-13Z"/></svg>