<?xml version="1.0" encoding="utf-8"?>
<!-- Generator: Adobe Illustrator 27.2.0, SVG Export Plug-In . SVG Version: 6.00 Build 0)  -->
<svg version="1.1" id="Layer_1" xmlns="http://www.w3.org/2000/svg" xmlns:xlink="http://www.w3.org/1999/xlink" x="0px" y="0px"
	 viewBox="0 0 135 135" style="enable-background:new 0 0 135 135;" xml:space="preserve">
<style type="text/css">
	.st0{fill:none;stroke:#E1E1E1;stroke-width:4.2;stroke-linecap:square;stroke-miterlimit:10;}
</style>
<g>
	<g>
		<g>
			<g>
				<line class="st0" x1="71.7" y1="22.1" x2="111.7" y2="22.1"/>
				<polyline class="st0" points="88.2,50.5 88.2,29.2 71.7,29.2 				"/>
				<polyline class="st0" points="95.3,50.5 95.3,29.2 111.7,29.2 				"/>
			</g>
			<g>
				<line class="st0" x1="21.8" y1="22.1" x2="61.8" y2="22.1"/>
				<polyline class="st0" points="38.3,50.5 38.3,29.2 21.8,29.2 				"/>
				<polyline class="st0" points="45.4,50.5 45.4,29.2 61.8,29.2 				"/>
			</g>
		</g>
		<g>
			<path class="st0" d="M22.3,54.7h78.3c5.9,0,10.6,4.8,10.6,10.6l0,0c0,5.9-4.8,10.6-10.6,10.6H29.4V83"/>
			<path class="st0" d="M22.3,61.8h78.3c2,0,3.5,1.6,3.5,3.5s-1.6,3.5-3.5,3.5H22.3V83"/>
		</g>
		<g>
			<g>
				<line class="st0" x1="22.3" y1="86.5" x2="22.3" y2="114.9"/>
				<polyline class="st0" points="58.8,114.9 58.8,104.2 29.4,104.2 29.4,114.9 				"/>
				<polyline class="st0" points="58.8,86.5 58.8,97.1 29.4,97.1 29.4,86.5 				"/>
				<line class="st0" x1="65.9" y1="86.5" x2="65.9" y2="114.9"/>
			</g>
			<g>
				<g>
					<path class="st0" d="M75.8,86.5h32c3.9,0,7.1,3.2,7.1,7.1l0,0c0,3.9-3.2,7.1-7.1,7.1h-32"/>
					<path class="st0" d="M75.8,100.7h32c3.9,0,7.1,3.2,7.1,7.1l0,0c0,3.9-3.2,7.1-7.1,7.1h-32"/>
				</g>
				<line class="st0" x1="75.8" y1="93.6" x2="107.6" y2="93.6"/>
				<line class="st0" x1="75.8" y1="107.8" x2="107.6" y2="107.8"/>
			</g>
		</g>
	</g>
</g>
</svg>
