<?xml version="1.0" encoding="utf-8"?>
<!-- Generator: Adobe Illustrator 27.2.0, SVG Export Plug-In . SVG Version: 6.00 Build 0)  -->
<svg version="1.1" id="Layer_1" xmlns="http://www.w3.org/2000/svg" xmlns:xlink="http://www.w3.org/1999/xlink" x="0px" y="0px"
	 viewBox="0 0 646.5 139.4" enable-background="new 0 0 646.5 139.4" xml:space="preserve">
<g>
	<g>
		<g>
			<g>
				
					<line fill="none" stroke="#E2E2E2" stroke-width="9" stroke-linecap="square" stroke-miterlimit="10" x1="121.4" y1="47.2" x2="206.1" y2="47.2"/>
				<polyline fill="none" stroke="#E2E2E2" stroke-width="9" stroke-linecap="square" stroke-miterlimit="10" points="156.3,107.2 
					156.3,62.2 121.4,62.2 				"/>
				<polyline fill="none" stroke="#E2E2E2" stroke-width="9" stroke-linecap="square" stroke-miterlimit="10" points="171.3,107.2 
					171.3,62.2 206.1,62.2 				"/>
			</g>
			<g>
				
					<line fill="none" stroke="#E2E2E2" stroke-width="9" stroke-linecap="square" stroke-miterlimit="10" x1="15.7" y1="47.2" x2="100.3" y2="47.2"/>
				<polyline fill="none" stroke="#E2E2E2" stroke-width="9" stroke-linecap="square" stroke-miterlimit="10" points="50.6,107.2 
					50.6,62.2 15.7,62.2 				"/>
				<polyline fill="none" stroke="#E2E2E2" stroke-width="9" stroke-linecap="square" stroke-miterlimit="10" points="65.6,107.2 
					65.6,62.2 100.3,62.2 				"/>
			</g>
			<g>
				
					<line fill="none" stroke="#E2E2E2" stroke-width="9" stroke-linecap="square" stroke-miterlimit="10" x1="434.6" y1="47.2" x2="434.6" y2="107.2"/>
				<polyline fill="none" stroke="#E2E2E2" stroke-width="9" stroke-linecap="square" stroke-miterlimit="10" points="512.1,107.2 
					512.1,84.7 449.6,84.7 449.6,107.2 				"/>
				<polyline fill="none" stroke="#E2E2E2" stroke-width="9" stroke-linecap="square" stroke-miterlimit="10" points="512.1,47.2 
					512.1,69.6 449.6,69.6 449.6,47.2 				"/>
				
					<line fill="none" stroke="#E2E2E2" stroke-width="9" stroke-linecap="square" stroke-miterlimit="10" x1="527.1" y1="47.2" x2="527.1" y2="107.2"/>
			</g>
			<g>
				<path fill="none" stroke="#E2E2E2" stroke-width="9" stroke-linecap="square" stroke-miterlimit="10" d="M227.1,47.2H393
					c12.4,0,22.5,10.1,22.5,22.5v0c0,12.4-10.1,22.5-22.5,22.5H242.1v15"/>
				<path fill="none" stroke="#E2E2E2" stroke-width="9" stroke-linecap="square" stroke-miterlimit="10" d="M227.1,62.2H393
					c4.1,0,7.5,3.4,7.5,7.5s-3.4,7.5-7.5,7.5H227.1v30"/>
			</g>
			<g>
				<g>
					<path fill="none" stroke="#E2E2E2" stroke-width="9" stroke-linecap="square" stroke-miterlimit="10" d="M548,47.2h67.8
						c8.3,0,15,6.7,15,15v0c0,8.3-6.7,15-15,15H548"/>
					<path fill="none" stroke="#E2E2E2" stroke-width="9" stroke-linecap="square" stroke-miterlimit="10" d="M548,77.2h67.8
						c8.3,0,15,6.7,15,15v0c0,8.3-6.7,15-15,15H548"/>
				</g>
				
					<line fill="none" stroke="#E2E2E2" stroke-width="9" stroke-linecap="square" stroke-miterlimit="10" x1="548" y1="62.2" x2="615.4" y2="62.2"/>
				
					<line fill="none" stroke="#E2E2E2" stroke-width="9" stroke-linecap="square" stroke-miterlimit="10" x1="548" y1="92.2" x2="615.4" y2="92.2"/>
			</g>
		</g>
	</g>
	<rect x="268.4" y="16.9" fill="none" stroke="#D10707" stroke-width="11" stroke-miterlimit="10" width="105.7" height="105.7"/>
	<g>
		<defs>
			<path id="SVGID_1_" d="M9.2,40.7v73h628.1v-73H9.2z M273.9,97.7h-11v-11h11V97.7z M273.9,67.7h-11v-11h11V67.7z M379.6,82.7h-11
				v-11h11V82.7z M379.6,52.7h-11v-11h11V52.7z"/>
		</defs>
		<clipPath id="SVGID_00000183250942413463014590000013351256665758870459_">
			<use xlink:href="#SVGID_1_"  overflow="visible"/>
		</clipPath>
		<g clip-path="url(#SVGID_00000183250942413463014590000013351256665758870459_)">
			<g>
				
					<line fill="none" stroke="#E2E2E2" stroke-width="9" stroke-linecap="square" stroke-miterlimit="10" x1="121.4" y1="47.2" x2="206.1" y2="47.2"/>
				<polyline fill="none" stroke="#E2E2E2" stroke-width="9" stroke-linecap="square" stroke-miterlimit="10" points="156.3,107.2 
					156.3,62.2 121.4,62.2 				"/>
				<polyline fill="none" stroke="#E2E2E2" stroke-width="9" stroke-linecap="square" stroke-miterlimit="10" points="171.3,107.2 
					171.3,62.2 206.1,62.2 				"/>
			</g>
			<g>
				
					<line fill="none" stroke="#E2E2E2" stroke-width="9" stroke-linecap="square" stroke-miterlimit="10" x1="15.7" y1="47.2" x2="100.3" y2="47.2"/>
				<polyline fill="none" stroke="#E2E2E2" stroke-width="9" stroke-linecap="square" stroke-miterlimit="10" points="50.6,107.2 
					50.6,62.2 15.7,62.2 				"/>
				<polyline fill="none" stroke="#E2E2E2" stroke-width="9" stroke-linecap="square" stroke-miterlimit="10" points="65.6,107.2 
					65.6,62.2 100.3,62.2 				"/>
			</g>
			<g>
				
					<line fill="none" stroke="#E2E2E2" stroke-width="9" stroke-linecap="square" stroke-miterlimit="10" x1="434.6" y1="47.2" x2="434.6" y2="107.2"/>
				<polyline fill="none" stroke="#E2E2E2" stroke-width="9" stroke-linecap="square" stroke-miterlimit="10" points="512.1,107.2 
					512.1,84.7 449.6,84.7 449.6,107.2 				"/>
				<polyline fill="none" stroke="#E2E2E2" stroke-width="9" stroke-linecap="square" stroke-miterlimit="10" points="512.1,47.2 
					512.1,69.6 449.6,69.6 449.6,47.2 				"/>
				
					<line fill="none" stroke="#E2E2E2" stroke-width="9" stroke-linecap="square" stroke-miterlimit="10" x1="527.1" y1="47.2" x2="527.1" y2="107.2"/>
			</g>
			<g>
				<path fill="none" stroke="#E2E2E2" stroke-width="9" stroke-linecap="square" stroke-miterlimit="10" d="M227.1,47.2H393
					c12.4,0,22.5,10.1,22.5,22.5v0c0,12.4-10.1,22.5-22.5,22.5H242.1v15"/>
				<path fill="none" stroke="#E2E2E2" stroke-width="9" stroke-linecap="square" stroke-miterlimit="10" d="M227.1,62.2H393
					c4.1,0,7.5,3.4,7.5,7.5s-3.4,7.5-7.5,7.5H227.1v30"/>
			</g>
			<g>
				<g>
					<path fill="none" stroke="#E2E2E2" stroke-width="9" stroke-linecap="square" stroke-miterlimit="10" d="M548,47.2h67.8
						c8.3,0,15,6.7,15,15v0c0,8.3-6.7,15-15,15H548"/>
					<path fill="none" stroke="#E2E2E2" stroke-width="9" stroke-linecap="square" stroke-miterlimit="10" d="M548,77.2h67.8
						c8.3,0,15,6.7,15,15v0c0,8.3-6.7,15-15,15H548"/>
				</g>
				
					<line fill="none" stroke="#E2E2E2" stroke-width="9" stroke-linecap="square" stroke-miterlimit="10" x1="548" y1="62.2" x2="615.4" y2="62.2"/>
				
					<line fill="none" stroke="#E2E2E2" stroke-width="9" stroke-linecap="square" stroke-miterlimit="10" x1="548" y1="92.2" x2="615.4" y2="92.2"/>
			</g>
		</g>
	</g>
</g>
</svg>
