<svg id="b5ef995e-afc4-42f3-ab73-a3f90ef259b5" data-name="Layer 1" xmlns="http://www.w3.org/2000/svg" viewBox="0 0 219.7 88.36">
  <g>
    <path d="M32.6,51.67V19.16c0-3.66.36-8.41-2.4-11.07l-1-1h7.44V72.78c-4.29-6.22-5.4-7.25-7.59-15.32L16.38,18.71c-.89-3.28-2.61-10.11-5.19-13-.84-.93-2-1.92-2.91-2.77h8.39L32.6,51.67" fill="#231f20"/>
    <path d="M19.84,3H206.11V5.17H20.49A6.6,6.6,0,0,1,19.81,3" fill="#231f20"/>
    <path d="M168.77,7.48c1,1.16,1.06,5.79,1.06,8.6v23c0,2.75.14,7.45-.89,8.55h3.86c-1-1.09-.91-5.74-.91-8.55V11.75a4,4,0,0,1,1.37-.49c1.36-.18,2.61,2.38,2.61,6.78,0,5.74-1.88,8-3.5,8.73l1.86,8.61,2.46,9.22c.61,2.26,1.28,3,2.35,3h1.85a44.24,44.24,0,0,1-3.27-8.55l-2.9-11c1.65-1.16,3.21-5.37,3.21-10.74,0-5.55-1.48-9.82-4.18-9.82h-5" fill="#231f20"/>
    <path d="M147.5,39.1c0,2.75.13,7.45-.89,8.55h3.84c-1-1.16-.89-5.8-.89-8.55v-23c0-2.75-.12-7.55.89-8.71h-3.84c1,1.16.89,5.9.89,8.71v23" fill="#231f20"/>
    <path d="M119.12,7.48c1.29,1.29,1.08,5.87,1.08,8.61v23c0,2.75.12,7.45-.91,8.55h4c-1.06-1.83-1-4.46-1-7.88V12.24a3,3,0,0,1,1.41-.36c1.61,0,2.87,2.13,2.87,7.51,0,5.86-1.88,9.1-3.62,9.4a1.7,1.7,0,0,0,1.48.85c2.28,0,4.44-4.45,4.44-11.48,0-6.84-2-10.68-4.63-10.68h-5.09" fill="#231f20"/>
    <path d="M92.5,27.45l-3.8-17.2a21.35,21.35,0,0,1-.38-2.91h-4c.68.53,1.18,2.56,1.19,4l0,27.56c-.16,3.3-.28,6.48-1.13,8.74h3.29C87,47,87,43.92,87,39.74l0-26.26L90.86,31.3a25.17,25.17,0,0,0,1.78,7.38l4.52-25.25,0,29.42c0,2.08-.12,4.1-.83,4.77h3.8c-.81-1.71-.91-3.55-1-6.41l0-30c0-1.41.14-3.36.63-3.79h-3.5a30.45,30.45,0,0,1-.3,3.85L92.5,27.44" fill="#231f20"/>
    <path d="M60.61,28.1h-4l2-15.38,2,15.38Zm.58,4.52,1.09,8.61c.55,4.27.71,5.13-.28,6.47h4.14c-1.15-1.77-1.52-5.38-2-8.86L60,7.52H56.77c1,.92.59,3.67.3,5.87L53.7,38.85c-.44,3.48-.79,7.08-2,8.85h3.72c-1-1.1-.83-3.06-.41-6.47l1.05-8.61h5.09" fill="#231f20" fill-rule="evenodd"/>
    <path d="M39.44,52.6H193.26V50.38H39.44V52.6Z" fill="#231f20"/>
    <path d="M97.21,60.82l1.55-4.22,1.43,4.22Zm4.84,1.67-2.77-8H99l-3.2,8.6c-.31.88-.58,1-1.14,1v.67h2.55V64h-.06c-.57,0-.85-.17-.85-.61,0-.15,0-.11.18-.47L97,61.39h3.32l.74,2.3c.27,1.06,1.68,1.61,2.08.57-.05-.14-.14-.45-.14-.45-.48.55-.76-.71-1-1.32" fill="#231f20" fill-rule="evenodd"/>
    <path d="M124.12,64.15c-2.44.75-3.5-.4-3.94-1.53a5.21,5.21,0,0,0,1.45-.42,3.83,3.83,0,0,0,2-3.68,3.92,3.92,0,1,0-7.83,0A3.81,3.81,0,0,0,119,62.59a3.43,3.43,0,0,0,3.26,2.19,3.54,3.54,0,0,0,1.84-.63Zm-1.75-5.63c0,2.29-1,3.68-2.61,3.68s-2.62-1.4-2.62-3.68,1-3.67,2.62-3.67,2.61,1.39,2.61,3.67" fill="#231f20" fill-rule="evenodd"/>
    <path d="M153.24,59V56.14c0-.74,0-.8.65-.82,2.13,0,3.05.44,3.05,2,0,1.88-.81,2.12-3.42,2.08-.22,0-.28-.12-.28-.37Zm0,4.07V60H155c1.53,0,2.06,1.54,2.18,4.09h-.65v.67h2.64v-.67h-.71c-.14-2-.78-3.54-1.95-4.27a3.28,3.28,0,0,0,1.67-2.6,2.37,2.37,0,0,0-2.67-2.62h-4.71v.65c.92,0,1.17.28,1.17,1.29v6.27c0,1.09-.24,1.23-1,1.23h-.15v.72h3.57v-.72h-.1c-.86,0-1-.33-1-1" fill="#231f20" fill-rule="evenodd"/>
    <path d="M165.16,60.82l1.55-4.22,1.42,4.22ZM170,62.49l-2.77-8H167l-3.2,8.6c-.32.88-.58,1-1.14,1v.67h2.55V64h-.06c-.57,0-.85-.17-.85-.61,0-.15.05-.11.18-.47l.55-1.57h3.33l.74,2.3c.26,1.06,1.67,1.61,2.08.57,0-.14-.14-.45-.14-.45-.48.55-.76-.71-1-1.32" fill="#231f20" fill-rule="evenodd"/>
    <path d="M107.38,64.71a4.57,4.57,0,0,0,1.52.09,3.4,3.4,0,0,0,3-3.55,2.7,2.7,0,0,0-1.85-2.52L108.21,58c-.95-.39-1.38-1-1.38-1.61s.65-1.16,1.63-1.16c1.18,0,2,.19,2.09,2h1V54.94h-.44v.52a4.4,4.4,0,0,0-2.81-.79c-1.69,0-2.9.95-2.9,2.2a2.64,2.64,0,0,0,1.74,2.4l1.9.84a2.18,2.18,0,0,1,1.45,1.76,2.47,2.47,0,0,1-2,2.49,4.44,4.44,0,0,1-2.18-.19,2.6,2.6,0,0,0,1.1.54" fill="#231f20"/>
    <path d="M60.42,64.8v-.65c-.87,0-1.12-.34-1.12-1.37V56.73c0-.61-.11-1.88.54-1.32,0,0,0-.32,0-.46-.74-1.05-1.51-.32-1.72.57v3.57c0,.34-.08.48-.33.48H54.53c-.26,0-.29-.1-.29-.48V56.32c0-1.07.24-1,1.12-1v-.64H51.92v.64c.87,0,1.11,0,1.11,1v6.46c0,1-.2,1.32-1.11,1.37v.65h2.32V60.64c0-.4,0-.5.29-.5h3.22c.28,0,.35.1.35.46v2.18c0,1.07-.23,1.3-1.11,1.37v.65h3.43" fill="#231f20" fill-rule="evenodd"/>
    <path d="M65,60.82C65,64,66.7,65.25,69,65.21a4.64,4.64,0,0,0,2.07-.81c-4.15,1.51-4.8-1.46-4.8-3.48,0-.55,0-.65,0-.65,0-.4,0-.5.39-.5h1.72c1.17,0,1.55.18,1.64,1.49h.26V57.75h-.26c-.06,1.28-.49,1.44-1.64,1.44H66.71c-.34,0-.4,0-.4-.5V56c0-.6.06-.72.61-.72h2.17c1.15,0,1.57.22,1.75,1.57h.27L71,54.64H65.06a.7.7,0,0,0-.54.32,2,2,0,0,0-.18.32l0,.3c.5-.34.58,0,.58,1.09v4.15" fill="#231f20"/>
    <path d="M129.29,55.83v4.91c0,2.36.69,3.43,2.23,3.43S134,63,134,60.77V56.88c0-1.18-.24-1.55-1.14-1.57v-.62h2.72v.62c-.8,0-1,.44-1,1.59v5.58c0,.6-.19,1.75.47,1.2,0,0,0,.31,0,.45-.6.83-1.22.56-1.57,0a3.28,3.28,0,0,1-2.12.68,3,3,0,0,1-2.51-1.07,4.66,4.66,0,0,1-.7-3V56.88c0-.6.14-1.84-.53-1.3,0,0,0-.31,0-.45.75-1,1.72-.37,1.72.7" fill="#231f20" fill-rule="evenodd"/>
    <path d="M140.11,60.55c0,3.06,1.57,4.25,3.66,4.21a4.06,4.06,0,0,0,1.86-.78c-3.73,1.45-4.31-1.4-4.31-3.34,0-.53,0-.63,0-.63,0-.38,0-.48.35-.48h1.54c1.05,0,1.4.17,1.47,1.44h.24V57.59h-.24c-.05,1.23-.43,1.39-1.47,1.39h-1.53c-.31,0-.36,0-.36-.48V56c0-.58,0-.69.55-.69h1.94c1,0,1.41.21,1.57,1.51h.25l-.11-2.16h-5.32a.59.59,0,0,0-.49.3,2.32,2.32,0,0,0-.16.31l0,.29c.44-.33.52,0,.52,1.05v4" fill="#231f20"/>
    <path d="M179.49,64.8c2.11,0,3.8-2.35,3.8-5.24s-1.62-4.92-4.55-4.92h-3.65v.61c.89,0,1.14.33,1.14,1.35v5.84c0,.61.09,1.83-.53,1.3,0,0,0,.31,0,.45.75,1,1.51.31,1.73-.57V56.5c0-1,.11-1.22.82-1.22,2.39,0,3.69,1.54,3.69,4.44,0,2-.59,5.77-4.34,4.27a4,4,0,0,0,1.87.81" fill="#231f20" fill-rule="evenodd"/>
    <path d="M187.44,60.55c0,3.06,1.54,4.25,3.59,4.21a3.9,3.9,0,0,0,1.82-.78c-3.65,1.45-4.23-1.4-4.23-3.34a4.75,4.75,0,0,1,0-.63c0-.38,0-.48.34-.48h1.51c1,0,1.37.17,1.44,1.44h.24V57.59h-.24c-.05,1.23-.42,1.39-1.44,1.39H189c-.31,0-.35,0-.35-.48V56c0-.58,0-.69.53-.69h1.91c1,0,1.38.21,1.54,1.51h.24l-.11-2.16h-5.21a.58.58,0,0,0-.48.3,2.32,2.32,0,0,0-.16.31l0,.29c.43-.33.51,0,.51,1.05v4" fill="#231f20"/>
    <path d="M90.65,66.56a2.47,2.47,0,0,1-.27-1.4V56.58a2.44,2.44,0,0,1,.27-1.37,1.63,1.63,0,0,1,1.14-.41v-.22H88.85L85.35,57,82,54.58H78.35v.22a1.79,1.79,0,0,1,1.22.39,2.37,2.37,0,0,1,.28,1.39v7.84a4.57,4.57,0,0,1-.28,2c-.21.27,2.49,3,2.34,2.84s-.41-3.76-.41-4.84V56.11l3.84,2.61,3.56-2.57v8.79a33.07,33.07,0,0,1-.25,4.3c-.17.22,2.17-2.48,2-2.68" fill="#231f20"/>
    <path d="M207.87,6.1a1.11,1.11,0,0,0,.33,0,.18.18,0,0,0,.09-.18V4.07a.18.18,0,0,0-.09-.17,1.6,1.6,0,0,0-.33,0V3.72h1.22a1.49,1.49,0,0,1,.75.17.52.52,0,0,1,.29.47.48.48,0,0,1-.23.42,1.2,1.2,0,0,1-.62.2V5a.86.86,0,0,1,.59.62c.08.32.16.47.22.47a.18.18,0,0,0,.16-.12,1.23,1.23,0,0,0,.05-.32h.16a1.1,1.1,0,0,1-.1.4.44.44,0,0,1-.43.23.41.41,0,0,1-.4-.19,1.35,1.35,0,0,1-.08-.48c0-.24-.07-.4-.17-.47a1,1,0,0,0-.57-.1v.85a.17.17,0,0,0,.12.18,1,1,0,0,0,.3,0v.14h-1.26V6.1Zm-.14.26A1.91,1.91,0,0,0,211,5a1.91,1.91,0,1,0-3.25,1.35Zm-.16-2.86a2.12,2.12,0,0,1,3,0A2.08,2.08,0,0,1,211.21,5a2.07,2.07,0,0,1-.62,1.51,2.12,2.12,0,0,1-3,0A2.05,2.05,0,0,1,206.94,5,2.05,2.05,0,0,1,207.57,3.5Zm1.79,1.33a.44.44,0,0,0,.26-.47.43.43,0,0,0-.14-.36.63.63,0,0,0-.43-.14.55.55,0,0,0-.25.05c-.06,0-.09.08-.09.17v.81a2.19,2.19,0,0,0,.65-.06" fill="#231f20" fill-rule="evenodd"/>
    <path d="M198.63,31.89h2.6c.86,0,2.07-.22,2.51,2.21l0-6.07a1.45,1.45,0,0,1-1.31.5h-3.85V11.14a11.75,11.75,0,0,1,3.38.28c1.75.49,2.61,1.05,3.36,3.44V7.4H194.6c1.42,1.59,1.75,8.22,1.75,12.08v33.6c0,3.77.24,10.1-1.17,11.62h11.47l1.19-8.56a9.73,9.73,0,0,1-4.53,4.15,11.39,11.39,0,0,1-4.68,1V31.89" fill="#231f20"/>
    <path d="M47.39,57.13H47c.1-1.05-.11-1.05-.32-1.35s-.72-.46-1.51-.46h-.53a.36.36,0,0,0-.15.08l0,8.7h.31v.68H41.94v-.65a1.83,1.83,0,0,0,.52-.08.7.7,0,0,0,.53-.58V55.53a.4.4,0,0,0-.26-.21h-.42c-.78,0-1.28.15-1.51.46s-.42.3-.31,1.35h-.35l-.64-2.6H48l-.63,2.6" fill="#231f20"/>
  </g>
  <g>
    <path d="M55,83.84a4.19,4.19,0,0,1-4.31-4.34A4.22,4.22,0,0,1,55,75.15a4.25,4.25,0,0,1,2.35.63v.91A4.25,4.25,0,0,0,55.05,76a3.28,3.28,0,0,0-2.43,1,3.69,3.69,0,0,0,0,5,3.34,3.34,0,0,0,2.46,1,3.83,3.83,0,0,0,2.49-.84v.93A4.25,4.25,0,0,1,55,83.84Z"/>
    <path d="M60.37,83.7h-.89V75.3h.89v3.49h5V75.3h.89v8.4h-.89V79.59h-5Z"/>
    <path d="M68.83,83.7H67.9l3.75-8.45h.83l3.75,8.45H75.3l-1-2.32h-4.4Zm3.23-7.33L70.15,80.6H74Z"/>
    <path d="M78.78,83.7h-.89V75.3h3.75a2.81,2.81,0,0,1,1.94.62,2.07,2.07,0,0,1,.72,1.66,2.2,2.2,0,0,1-.53,1.5,2.32,2.32,0,0,1-1.45.75L85,83.7H84l-2.64-3.78H78.78Zm0-7.6v3H81.6a2,2,0,0,0,1.33-.39,1.52,1.52,0,0,0,0-2.22,2,2,0,0,0-1.33-.4Z"/>
    <path d="M86.94,83.7H86l3.75-8.45h.82l3.76,8.45H93.4l-1-2.32H88Zm3.22-7.33-1.9,4.23h3.81Z"/>
    <path d="M99.36,83.84a4.35,4.35,0,1,1,2.35-8.06v.91A4.3,4.3,0,0,0,99.37,76a3.32,3.32,0,0,0-2.44,1,3.72,3.72,0,0,0,0,5,3.37,3.37,0,0,0,2.46,1,3.83,3.83,0,0,0,2.5-.84v.93A4.25,4.25,0,0,1,99.36,83.84Z"/>
    <path d="M106.82,83.7h-.89V76.1H103v-.8h6.71v.8h-2.93Z"/>
    <path d="M117.42,83.7h-5.94V75.3h5.76v.8h-4.88v2.69h4v.8h-4v3.3h5.06Z"/>
    <path d="M120.16,83.7h-.88V75.3H123a2.83,2.83,0,0,1,1.94.62,2.06,2.06,0,0,1,.71,1.66,2.19,2.19,0,0,1-.52,1.5,2.34,2.34,0,0,1-1.46.75l2.72,3.87h-1l-2.64-3.78h-2.57Zm0-7.6v3H123a2,2,0,0,0,1.34-.39,1.52,1.52,0,0,0,0-2.22,2,2,0,0,0-1.34-.4Z"/>
    <path d="M134,83.84a6.2,6.2,0,0,1-1.74-.24A4.37,4.37,0,0,1,130.9,83V82a4.64,4.64,0,0,0,1.31.74A5.07,5.07,0,0,0,134,83a2.8,2.8,0,0,0,1.63-.43,1.32,1.32,0,0,0,.64-1.15,1.16,1.16,0,0,0-.7-1.14,1.79,1.79,0,0,0-.5-.24l-.53-.18-.14,0-.24-.07-.25-.08c-.5-.15-.8-.23-.89-.27a4.89,4.89,0,0,1-.75-.3,2,2,0,0,1-.62-.42,2,2,0,0,1,.24-2.92,3.33,3.33,0,0,1,2.14-.62,4.82,4.82,0,0,1,2.61.7v.91A4.8,4.8,0,0,0,134,76a2.48,2.48,0,0,0-1.5.39,1.16,1.16,0,0,0-.53,1c-.05.32.13.64.54,1a1.66,1.66,0,0,0,.4.19l.41.16.51.14.51.14.82.27a5.71,5.71,0,0,1,.74.32,2.51,2.51,0,0,1,.64.46,1.84,1.84,0,0,1,.59,1.44,2,2,0,0,1-.91,1.77A3.64,3.64,0,0,1,134,83.84Z"/>
    <path d="M140.06,83.7h-.89V75.3h.89v3.49h5V75.3h.89v8.4h-.89V79.59h-5Z"/>
    <path d="M154.36,83.7h-5.94V75.3h5.76v.8h-4.87v2.69h4v.8h-4v3.3h5.05Z"/>
    <path d="M162.16,83.7h-5.94V75.3H162v.8h-4.87v2.69h4v.8h-4v3.3h5Z"/>
    <path d="M167.05,83.7h-.89V76.1h-2.89v-.8H170v.8h-2.93Z"/>
  </g>
</svg>
