<svg id="Layer_1" data-name="Layer 1" xmlns="http://www.w3.org/2000/svg" viewBox="0 0 1920 1470"><defs><style>.cls-1{fill:#90c;}.cls-2{fill:#fff6c2;}.cls-3{fill:#f03;}</style></defs><path class="cls-1" d="M1712.91,670.7V196.18c0-.84.08-1.86.12-2.78a41.17,41.17,0,0,1,.5-5.64,58.91,58.91,0,0,1,7.27-21.38,59.46,59.46,0,0,1,34.78-27.45l2.75-.72a26.36,26.36,0,0,1,2.77-.62c1.87-.28,3.74-.62,5.62-.81l5.65-.28H2085.5v-18H1772.37c-2.39.07-4.89.2-7.33.36s-4.89.66-7.32,1c-1.23.16-2.41.53-3.62.81l-3.59.93a77.35,77.35,0,0,0-54.82,63.66,60.43,60.43,0,0,0-.65,7.35l-.07,1.84,0,.92V683.51l0,.92.07,1.84a60.27,60.27,0,0,0,.65,7.34,77.42,77.42,0,0,0,54.82,63.66l3.59.94c1.21.28,2.39.65,3.62.81,2.43.39,4.87.81,7.32,1.05s4.94.28,7.33.36H2085.5v-18H1772.37l-5.65-.28c-1.88-.19-3.75-.53-5.62-.81a26.41,26.41,0,0,1-2.77-.63l-2.75-.71a59.29,59.29,0,0,1-42-48.83,41.18,41.18,0,0,1-.5-5.65c0-.92-.1-1.94-.12-2.78v-12Z"/><path class="cls-2" d="M1730.91,670.7V196.18c0-.76.08-1.35.1-2a27.21,27.21,0,0,1,.35-3.94,41.41,41.41,0,0,1,29.28-34l1.92-.49a14,14,0,0,1,1.92-.44c1.31-.17,2.6-.43,3.91-.57l4-.2H2085.5v-18H1772.37l-5.65.28c-1.88.19-3.75.53-5.62.81a26.36,26.36,0,0,0-2.77.62l-2.75.72a59.26,59.26,0,0,0-42,48.83,41.17,41.17,0,0,0-.5,5.64c0,.92-.1,1.94-.12,2.78V682.74c0,.84.08,1.86.12,2.78a41.18,41.18,0,0,0,.5,5.65,58.8,58.8,0,0,0,7.27,21.37A59.52,59.52,0,0,0,1755.58,740l2.75.71a26.41,26.41,0,0,0,2.77.63c1.87.28,3.74.62,5.62.81l5.65.28H2085.5v-18H1772.37l-4-.21c-1.31-.13-2.6-.39-3.91-.56a15.7,15.7,0,0,1-1.92-.44l-1.92-.49a41.41,41.41,0,0,1-29.28-34,27.34,27.34,0,0,1-.35-3.94c0-.69-.08-1.27-.1-2v-12Z"/><path class="cls-3" d="M1748.91,670.7v-475l0-.28,0-.56a11.82,11.82,0,0,1,.19-2.24,23,23,0,0,1,2.84-8.36,23.49,23.49,0,0,1,13.68-10.83c.36-.08.72-.16,1.07-.26a5,5,0,0,1,1.08-.26c.75-.07,1.47-.25,2.21-.33s1.47,0,2.3-.12H2085.5v-18H1772.37l-4,.2c-1.31.14-2.6.4-3.91.57a14,14,0,0,0-1.92.44l-1.92.49a41.41,41.41,0,0,0-29.28,34,27.21,27.21,0,0,0-.35,3.94c0,.68-.08,1.27-.1,2V682.74c0,.77.08,1.35.1,2a27.34,27.34,0,0,0,.35,3.94,41.41,41.41,0,0,0,29.28,34l1.92.49a15.7,15.7,0,0,0,1.92.44c1.31.17,2.6.43,3.91.56l4,.21H2085.5v-18H1772.37c-.83-.08-1.53-.13-2.3-.13s-1.46-.26-2.21-.32a5.67,5.67,0,0,1-1.08-.26c-.35-.1-.71-.19-1.07-.27a23.21,23.21,0,0,1-7.86-4.07,23.55,23.55,0,0,1-5.82-6.76,22.93,22.93,0,0,1-2.84-8.35A11.89,11.89,0,0,1,1749,684l0-.57,0-.28V670.7Z"/><polygon class="cls-3" points="2217.91 513 2180.03 513 2142.15 513 2104.27 513 2066.39 513 2028.51 513 1990.63 513 1952.75 513 1914.87 513 1876.99 513 1839.11 513 1801.23 513 1763.35 513 1725.47 513 1687.59 513 1649.71 513 1611.83 513 1573.95 513 1536.07 513 1498.19 513 1460.31 513 1422.43 513 1384.55 513 1346.66 513 1308.79 513 1270.9 513 1233.03 513 1195.14 513 1157.27 513 1119.38 513 1081.51 513 1043.63 513 1005.75 513 967.87 513 929.98 513 892.1 513 854.22 513 816.34 513 778.46 513 740.58 513 702.7 513 664.82 513 626.94 513 589.06 513 551.18 513 513.3 513 475.42 513 437.54 513 399.66 513 361.78 513 323.9 513 286.02 513 248.14 513 210.26 513 172.38 513 134.5 513 96.62 513 58.74 513 20.86 513 -17.02 513 -54.9 513 -92.78 513 -130.66 513 -168.54 513 -206.42 513 -244.3 513 -244.3 531 -206.42 531 -168.54 531 -130.66 531 -92.78 531 -54.9 531 -17.02 531 20.86 531 58.74 531 96.62 531 134.5 531 172.38 531 210.26 531 248.14 531 286.02 531 323.9 531 361.78 531 399.66 531 437.54 531 475.42 531 513.3 531 551.18 531 589.06 531 626.94 531 664.82 531 702.7 531 740.58 531 778.46 531 816.34 531 854.22 531 892.1 531 929.98 531 967.87 531 1005.75 531 1043.63 531 1081.51 531 1119.38 531 1157.27 531 1195.14 531 1233.03 531 1270.9 531 1308.79 531 1346.66 531 1384.55 531 1422.43 531 1460.31 531 1498.19 531 1536.07 531 1573.95 531 1611.83 531 1649.71 531 1687.59 531 1725.47 531 1763.35 531 1801.23 531 1839.11 531 1876.99 531 1914.87 531 1952.75 531 1990.63 531 2028.51 531 2066.39 531 2104.27 531 2142.15 531 2180.03 531 2217.91 531 2255.79 531 2255.79 513 2217.91 513"/><polygon class="cls-2" points="2217.91 531 2180.03 531 2142.15 531 2104.27 531 2066.39 531 2028.51 531 1990.63 531 1952.75 531 1914.87 531 1876.99 531 1839.11 531 1801.23 531 1763.35 531 1725.47 531 1687.59 531 1649.71 531 1611.83 531 1573.95 531 1536.07 531 1498.19 531 1460.31 531 1422.43 531 1384.55 531 1346.66 531 1308.79 531 1270.9 531 1233.03 531 1195.14 531 1157.27 531 1119.38 531 1081.51 531 1043.63 531 1005.75 531 967.87 531 929.98 531 892.1 531 854.22 531 816.34 531 778.46 531 740.58 531 702.7 531 664.82 531 626.94 531 589.06 531 551.18 531 513.3 531 475.42 531 437.54 531 399.66 531 361.78 531 323.9 531 286.02 531 248.14 531 210.26 531 172.38 531 134.5 531 96.62 531 58.74 531 20.86 531 -17.02 531 -54.9 531 -92.78 531 -130.66 531 -168.54 531 -206.42 531 -244.3 531 -244.3 549 -206.42 549 -168.54 549 -130.66 549 -92.78 549 -54.9 549 -17.02 549 20.86 549 58.74 549 96.62 549 134.5 549 172.38 549 210.26 549 248.14 549 286.02 549 323.9 549 361.78 549 399.66 549 437.54 549 475.42 549 513.3 549 551.18 549 589.06 549 626.94 549 664.82 549 702.7 549 740.58 549 778.46 549 816.34 549 854.22 549 892.1 549 929.98 549 967.87 549 1005.75 549 1043.63 549 1081.51 549 1119.38 549 1157.27 549 1195.14 549 1233.03 549 1270.9 549 1308.79 549 1346.66 549 1384.55 549 1422.43 549 1460.31 549 1498.19 549 1536.07 549 1573.95 549 1611.83 549 1649.71 549 1687.59 549 1725.47 549 1763.35 549 1801.23 549 1839.11 549 1876.99 549 1914.87 549 1952.75 549 1990.63 549 2028.51 549 2066.39 549 2104.27 549 2142.15 549 2180.03 549 2217.91 549 2255.79 549 2255.79 531 2217.91 531"/><polygon class="cls-1" points="2217.91 549 2180.03 549 2142.15 549 2104.27 549 2066.39 549 2028.51 549 1990.63 549 1952.75 549 1914.87 549 1876.99 549 1839.11 549 1801.23 549 1763.35 549 1725.47 549 1687.59 549 1649.71 549 1611.83 549 1573.95 549 1536.07 549 1498.19 549 1460.31 549 1422.43 549 1384.55 549 1346.66 549 1308.79 549 1270.9 549 1233.03 549 1195.14 549 1157.27 549 1119.38 549 1081.51 549 1043.63 549 1005.75 549 967.87 549 929.98 549 892.1 549 854.22 549 816.34 549 778.46 549 740.58 549 702.7 549 664.82 549 626.94 549 589.06 549 551.18 549 513.3 549 475.42 549 437.54 549 399.66 549 361.78 549 323.9 549 286.02 549 248.14 549 210.26 549 172.38 549 134.5 549 96.62 549 58.74 549 20.86 549 -17.02 549 -54.9 549 -92.78 549 -130.66 549 -168.54 549 -206.42 549 -244.3 549 -244.3 567 -206.42 567 -168.54 567 -130.66 567 -92.78 567 -54.9 567 -17.02 567 20.86 567 58.74 567 96.62 567 134.5 567 172.38 567 210.26 567 248.14 567 286.02 567 323.9 567 361.78 567 399.66 567 437.54 567 475.42 567 513.3 567 551.18 567 589.06 567 626.94 567 664.82 567 702.7 567 740.58 567 778.46 567 816.34 567 854.22 567 892.1 567 929.98 567 967.87 567 1005.75 567 1043.63 567 1081.51 567 1119.38 567 1157.27 567 1195.14 567 1233.03 567 1270.9 567 1308.79 567 1346.66 567 1384.55 567 1422.43 567 1460.31 567 1498.19 567 1536.07 567 1573.95 567 1611.83 567 1649.71 567 1687.59 567 1725.47 567 1763.35 567 1801.23 567 1839.11 567 1876.99 567 1914.87 567 1952.75 567 1990.63 567 2028.51 567 2066.39 567 2104.27 567 2142.15 567 2180.03 567 2217.91 567 2255.79 567 2255.79 549 2217.91 549"/><polygon class="cls-3" points="2219.91 1301 2182.03 1301 2144.15 1301 2106.27 1301 2068.39 1301 2030.51 1301 1992.63 1301 1954.75 1301 1916.87 1301 1878.99 1301 1841.11 1301 1803.23 1301 1765.35 1301 1727.47 1301 1689.59 1301 1651.71 1301 1613.83 1301 1575.95 1301 1538.07 1301 1500.19 1301 1462.31 1301 1424.43 1301 1386.55 1301 1348.66 1301 1310.79 1301 1272.9 1301 1235.03 1301 1197.14 1301 1159.27 1301 1121.38 1301 1083.51 1301 1045.63 1301 1007.75 1301 969.87 1301 931.98 1301 894.1 1301 856.22 1301 818.34 1301 780.46 1301 742.58 1301 704.7 1301 666.82 1301 628.94 1301 591.06 1301 553.18 1301 515.3 1301 477.42 1301 439.54 1301 401.66 1301 363.78 1301 325.9 1301 288.02 1301 250.14 1301 212.26 1301 174.38 1301 136.5 1301 98.62 1301 60.74 1301 22.86 1301 -15.02 1301 -52.9 1301 -90.78 1301 -128.66 1301 -166.54 1301 -204.42 1301 -242.3 1301 -242.3 1319 -204.42 1319 -166.54 1319 -128.66 1319 -90.78 1319 -52.9 1319 -15.02 1319 22.86 1319 60.74 1319 98.62 1319 136.5 1319 174.38 1319 212.26 1319 250.14 1319 288.02 1319 325.9 1319 363.78 1319 401.66 1319 439.54 1319 477.42 1319 515.3 1319 553.18 1319 591.06 1319 628.94 1319 666.82 1319 704.7 1319 742.58 1319 780.46 1319 818.34 1319 856.22 1319 894.1 1319 931.98 1319 969.87 1319 1007.75 1319 1045.63 1319 1083.51 1319 1121.38 1319 1159.27 1319 1197.14 1319 1235.03 1319 1272.9 1319 1310.79 1319 1348.66 1319 1386.55 1319 1424.43 1319 1462.31 1319 1500.19 1319 1538.07 1319 1575.95 1319 1613.83 1319 1651.71 1319 1689.59 1319 1727.47 1319 1765.35 1319 1803.23 1319 1841.11 1319 1878.99 1319 1916.87 1319 1954.75 1319 1992.63 1319 2030.51 1319 2068.39 1319 2106.27 1319 2144.15 1319 2182.03 1319 2219.91 1319 2257.79 1319 2257.79 1301 2219.91 1301"/><polygon class="cls-2" points="2219.91 1319 2182.03 1319 2144.15 1319 2106.27 1319 2068.39 1319 2030.51 1319 1992.63 1319 1954.75 1319 1916.87 1319 1878.99 1319 1841.11 1319 1803.23 1319 1765.35 1319 1727.47 1319 1689.59 1319 1651.71 1319 1613.83 1319 1575.95 1319 1538.07 1319 1500.19 1319 1462.31 1319 1424.43 1319 1386.55 1319 1348.66 1319 1310.79 1319 1272.9 1319 1235.03 1319 1197.14 1319 1159.27 1319 1121.38 1319 1083.51 1319 1045.63 1319 1007.75 1319 969.87 1319 931.98 1319 894.1 1319 856.22 1319 818.34 1319 780.46 1319 742.58 1319 704.7 1319 666.82 1319 628.94 1319 591.06 1319 553.18 1319 515.3 1319 477.42 1319 439.54 1319 401.66 1319 363.78 1319 325.9 1319 288.02 1319 250.14 1319 212.26 1319 174.38 1319 136.5 1319 98.62 1319 60.74 1319 22.86 1319 -15.02 1319 -52.9 1319 -90.78 1319 -128.66 1319 -166.54 1319 -204.42 1319 -242.3 1319 -242.3 1337 -204.42 1337 -166.54 1337 -128.66 1337 -90.78 1337 -52.9 1337 -15.02 1337 22.86 1337 60.74 1337 98.62 1337 136.5 1337 174.38 1337 212.26 1337 250.14 1337 288.02 1337 325.9 1337 363.78 1337 401.66 1337 439.54 1337 477.42 1337 515.3 1337 553.18 1337 591.06 1337 628.94 1337 666.82 1337 704.7 1337 742.58 1337 780.46 1337 818.34 1337 856.22 1337 894.1 1337 931.98 1337 969.87 1337 1007.75 1337 1045.63 1337 1083.51 1337 1121.38 1337 1159.27 1337 1197.14 1337 1235.03 1337 1272.9 1337 1310.79 1337 1348.66 1337 1386.55 1337 1424.43 1337 1462.31 1337 1500.19 1337 1538.07 1337 1575.95 1337 1613.83 1337 1651.71 1337 1689.59 1337 1727.47 1337 1765.35 1337 1803.23 1337 1841.11 1337 1878.99 1337 1916.87 1337 1954.75 1337 1992.63 1337 2030.51 1337 2068.39 1337 2106.27 1337 2144.15 1337 2182.03 1337 2219.91 1337 2257.79 1337 2257.79 1319 2219.91 1319"/><polygon class="cls-1" points="2219.91 1337 2182.03 1337 2144.15 1337 2106.27 1337 2068.39 1337 2030.51 1337 1992.63 1337 1954.75 1337 1916.87 1337 1878.99 1337 1841.11 1337 1803.23 1337 1765.35 1337 1727.47 1337 1689.59 1337 1651.71 1337 1613.83 1337 1575.95 1337 1538.07 1337 1500.19 1337 1462.31 1337 1424.43 1337 1386.55 1337 1348.66 1337 1310.79 1337 1272.9 1337 1235.03 1337 1197.14 1337 1159.27 1337 1121.38 1337 1083.51 1337 1045.63 1337 1007.75 1337 969.87 1337 931.98 1337 894.1 1337 856.22 1337 818.34 1337 780.46 1337 742.58 1337 704.7 1337 666.82 1337 628.94 1337 591.06 1337 553.18 1337 515.3 1337 477.42 1337 439.54 1337 401.66 1337 363.78 1337 325.9 1337 288.02 1337 250.14 1337 212.26 1337 174.38 1337 136.5 1337 98.62 1337 60.74 1337 22.86 1337 -15.02 1337 -52.9 1337 -90.78 1337 -128.66 1337 -166.54 1337 -204.42 1337 -242.3 1337 -242.3 1355 -204.42 1355 -166.54 1355 -128.66 1355 -90.78 1355 -52.9 1355 -15.02 1355 22.86 1355 60.74 1355 98.62 1355 136.5 1355 174.38 1355 212.26 1355 250.14 1355 288.02 1355 325.9 1355 363.78 1355 401.66 1355 439.54 1355 477.42 1355 515.3 1355 553.18 1355 591.06 1355 628.94 1355 666.82 1355 704.7 1355 742.58 1355 780.46 1355 818.34 1355 856.22 1355 894.1 1355 931.98 1355 969.87 1355 1007.75 1355 1045.63 1355 1083.51 1355 1121.38 1355 1159.27 1355 1197.14 1355 1235.03 1355 1272.9 1355 1310.79 1355 1348.66 1355 1386.55 1355 1424.43 1355 1462.31 1355 1500.19 1355 1538.07 1355 1575.95 1355 1613.83 1355 1651.71 1355 1689.59 1355 1727.47 1355 1765.35 1355 1803.23 1355 1841.11 1355 1878.99 1355 1916.87 1355 1954.75 1355 1992.63 1355 2030.51 1355 2068.39 1355 2106.27 1355 2144.15 1355 2182.03 1355 2219.91 1355 2257.79 1355 2257.79 1337 2219.91 1337"/><path class="cls-3" d="M218.61,319.49l-.15-5.86c-.27-3.9-.5-7.8-1.06-11.68a140,140,0,0,0-4.83-23,144.11,144.11,0,0,0-20.28-42.2,141.25,141.25,0,0,0-14.88-18.12,148.83,148.83,0,0,0-17.53-15.56,147.25,147.25,0,0,0-87.56-29.56l-38.55,0H-196.5v18H33.77l38.43,0a129.17,129.17,0,0,1,76.85,25.94,131.43,131.43,0,0,1,15.4,13.67A124.5,124.5,0,0,1,177.52,247a135.67,135.67,0,0,1,10.41,17.78,133.8,133.8,0,0,1,7.38,19.25,123.94,123.94,0,0,1,4.24,20.16c.5,3.41.69,6.84.93,10.27l.13,5.14,0,1.28v790.35a192.91,192.91,0,0,1-.7,20.09,129.44,129.44,0,0,1-33.34,74,130,130,0,0,1-15.1,14,123.62,123.62,0,0,1-17.11,11.46,134.27,134.27,0,0,1-18.72,8.62,133.26,133.26,0,0,1-19.88,5.46,124.6,124.6,0,0,1-20.47,2.24l-2.58.07-1.28,0H-212.79v18H71.47l1.47,0,2.92-.07a143.08,143.08,0,0,0,23.32-2.56,151.13,151.13,0,0,0,22.66-6.23,153.61,153.61,0,0,0,21.34-9.82,141.89,141.89,0,0,0,19.49-13.06,147.18,147.18,0,0,0,55.17-100.2c.33-3.9.68-7.8.72-11.7l.06-2.93,0-.72V320.92Z"/><path class="cls-2" d="M200.64,1111.27V320.92l0-1.28-.13-5.14c-.24-3.43-.43-6.86-.93-10.27a123.94,123.94,0,0,0-4.24-20.16,133.8,133.8,0,0,0-7.38-19.25A135.67,135.67,0,0,0,177.52,247a124.5,124.5,0,0,0-13.07-15.91,131.43,131.43,0,0,0-15.4-13.67A129.17,129.17,0,0,0,72.2,191.52l-38.43,0H-196.5v18H33.77l38.32,0a111.08,111.08,0,0,1,66.13,22.32,113.22,113.22,0,0,1,13.27,11.78,106.3,106.3,0,0,1,11.25,13.7,116.65,116.65,0,0,1,9,15.31,115.38,115.38,0,0,1,6.35,16.54,104.71,104.71,0,0,1,3.64,17.35c.44,2.93.59,5.89.81,8.84l.11,4.44,0,1.12v790.35a172.92,172.92,0,0,1-.61,18.24,111.16,111.16,0,0,1-41.7,75.69,107.83,107.83,0,0,1-14.73,9.87,117.75,117.75,0,0,1-16.1,7.41,115.28,115.28,0,0,1-17.09,4.69,106.51,106.51,0,0,1-17.64,1.93l-2.22.06-1.11,0H-212.79v18H71.46l1.28,0,2.58-.07a124.6,124.6,0,0,0,20.47-2.24,133.26,133.26,0,0,0,19.88-5.46,134.27,134.27,0,0,0,18.72-8.62,123.62,123.62,0,0,0,17.11-11.46A128.75,128.75,0,0,0,189.21,1171a128.83,128.83,0,0,0,10.73-39.66A192.91,192.91,0,0,0,200.64,1111.27Z"/><path class="cls-1" d="M182.64,1111.27V320.92l0-1.12-.11-4.44c-.22-2.95-.37-5.91-.81-8.84a104.71,104.71,0,0,0-3.64-17.35,115.38,115.38,0,0,0-6.35-16.54,116.65,116.65,0,0,0-9-15.31,106.3,106.3,0,0,0-11.25-13.7,113.22,113.22,0,0,0-13.27-11.78,111.08,111.08,0,0,0-66.13-22.32l-38.32,0H-196.5v18H33.77l38.2,0a93.19,93.19,0,0,1,55.42,18.69,95.93,95.93,0,0,1,11.13,9.89A88.07,88.07,0,0,1,148,267.6a100.48,100.48,0,0,1,7.51,12.83,96.69,96.69,0,0,1,5.31,13.85,86.56,86.56,0,0,1,3.05,14.52c.38,2.46.49,4.95.68,7.42l.09,3.74,0,1v796.95l0,.47-.05,1.87c0,2.5-.26,5-.44,7.45a93.09,93.09,0,0,1-35,63.42,89,89,0,0,1-12.35,8.28,99.5,99.5,0,0,1-13.48,6.21A99.66,99.66,0,0,1,89,1209.5a89.36,89.36,0,0,1-14.79,1.61l-1.87.05-.93,0H-212.79v18H71.44l1.11,0,2.22-.06a106.51,106.51,0,0,0,17.64-1.93,115.28,115.28,0,0,0,17.09-4.69,117.75,117.75,0,0,0,16.1-7.41,107.83,107.83,0,0,0,14.73-9.87,111.18,111.18,0,0,0,41.7-75.69A172.92,172.92,0,0,0,182.64,1111.27Z"/></svg>