<svg xmlns="http://www.w3.org/2000/svg" viewBox="0 0 1010.8 222.78"><g id="Layer_2" data-name="Layer 2"><path d="M96.56,179.29l43.2-127.83,36.3-2.27,59,121.45-40.9,2.56-10.31-22.65-40.37,2.53-7.58,23.76Zm56.08-55.4,18.24-1.14L160,93.92Z"/><path d="M217.21,83.72,326.1,76.91l2,32.76-35.59,2.22,5.7,91.19-38.07,2.38-5.7-91.19-35.23,2.21Z"/><path d="M311.94,183.38l43.2-127.83,36.29-2.27,59,121.45-40.9,2.56-10.31-22.65-40.37,2.53-7.58,23.76ZM368,128l18.24-1.14L375.39,98Z"/><path d="M490.9,7.49c14.16-.89,25.73,2.12,34.7,9.21,9.15,7.07,14,16.36,14.74,28.23.73,11.68-2.91,21.68-11.11,29.84-8,8.14-19.12,12.57-33.29,13.46L477,89.41l2.7,43.2L441.63,135,433.89,11.05Zm-1.82,53.44c7.79-.49,12.82-5.43,12.41-12s-6.18-10.63-13.79-10.16l-13.81.87,1.38,22.13Z"/><polygon points="700.08 40.26 701.82 68.12 663.93 70.48 661.3 28.52 623.24 30.9 630.99 154.84 669.05 152.46 666 103.59 703.89 101.23 707.83 164.2 745.89 161.82 738.14 37.88 700.08 40.26"/><path d="M772,69.59c11.79-13.35,27.32-20.72,46.44-21.92s35.28,4.19,48.64,16S887.6,90.1,888.71,108s-4.12,33.5-15.91,46.86-27.16,20.53-46.28,21.73-35.45-4.18-48.81-16S757.2,134,756.1,116.27C755,98.39,760.24,83,772,69.59Zm52.33,72.28a25.88,25.88,0,0,0,19.14-9.55c4.78-6,7-13.24,6.45-21.91s-3.64-15.6-9.12-20.77a27,27,0,0,0-39.31,2.46c-4.79,5.81-7,13.06-6.46,21.74s3.64,15.59,9.13,20.93A25.88,25.88,0,0,0,824.35,141.87Z"/><path d="M902,137.9,894.21,14,957.06,10c11.51-.72,21.06,1.35,28.84,6.38,7.77,4.85,12,12.4,12.63,22.85.36,5.84-.91,11.08-4,15.36s-6.12,7.31-9.38,9.12c5.38.73,10.91,3.94,16.42,9.64,5.5,5.52,8.62,12.79,9.17,21.64a31.64,31.64,0,0,1-10.94,26.82c-7.91,7.07-18.68,11.12-32.31,12Zm33.2-80.1,19.3-1.21c5.14-.32,8.81-4.11,8.54-8.53-.33-5.14-4.44-8.43-9.58-8.11l-19.3,1.2Zm3,47.09,20-1.25c6.9-.43,11.08-4.6,10.7-10.8s-5.44-10.15-12-9.74l-20,1.25Z"/><polygon points="35.23 84.79 0 86.99 2.05 119.75 37.28 117.54 42.98 208.73 81.05 206.35 75.35 115.16 110.94 112.94 108.89 80.18 35.23 84.79"/><polygon points="571.43 20.74 579.45 149.01 528.28 92.16 495.88 94.19 503.63 218.13 540.1 215.85 536.34 155.65 588.26 212.84 619.6 210.88 616.08 154.48 611.86 86.94 607.58 18.48 571.43 20.74"/></g></svg>