<svg xmlns="http://www.w3.org/2000/svg" viewBox="0 0 1010.8 222.78"><g id="Layer_2" data-name="Layer 2"><polygon points="160.01 93.92 152.64 123.89 170.88 122.75 160.01 93.92"/><path d="M487.7,38.79l-13.81.87,1.38,22.13,13.81-.86c7.79-.49,12.82-5.43,12.41-12S495.31,38.32,487.7,38.79Z"/><polygon points="375.39 98.01 368.02 127.97 386.26 126.83 375.39 98.01"/><path d="M958.12,103.64c6.9-.43,11.08-4.6,10.7-10.8s-5.44-10.15-12-9.74l-20,1.25,1.29,20.54Z"/><path d="M998.53,39.26c.36,5.84-.91,11.08-4,15.36s-6.12,7.31-9.38,9.12c5.19.7,10.52,3.72,15.84,9.05V33.53h-3.22A38.83,38.83,0,0,1,998.53,39.26Z"/><path d="M963,48.06c-.33-5.14-4.44-8.43-9.58-8.11l-19.3,1.2,1,16.65,19.3-1.21C959.6,56.27,963.27,52.48,963,48.06Z"/><polygon points="536.34 155.65 538.55 191.05 568.48 191.05 536.34 155.65"/><polygon points="37.28 117.54 11.39 119.16 11.39 191.05 41.88 191.05 37.28 117.54"/><path d="M840.82,89.64a27,27,0,0,0-39.31,2.46c-4.79,5.81-7,13.06-6.46,21.74s3.64,15.59,9.13,20.93a27.42,27.42,0,0,0,39.31-2.45c4.78-6,7-13.24,6.45-21.91S846.3,94.81,840.82,89.64Z"/><path d="M999.78,121.84c-7.91,7.07-18.68,11.12-32.31,12L902,137.9,895.43,33.53H661.62l2.31,37,37.89-2.36-1.74-27.86,38.07-2.38,7.74,123.94-38.07,2.38-3.93-63L666,103.59l3,48.87L631,154.84,623.4,33.53H608.52l3.34,53.41,4.22,67.54,2.28,36.57H1001V120.72C1000.58,121.09,1000.19,121.47,999.78,121.84Zm-127,33c-11.78,13.35-27.16,20.53-46.28,21.73s-35.45-4.18-48.81-16S757.2,134,756.1,116.27C755,98.39,760.23,83,772,69.59s27.32-20.72,46.44-21.92,35.28,4.19,48.64,16S887.6,90.1,888.71,108,884.59,141.48,872.8,154.84Z"/><path d="M35.23,84.79l73.66-4.61,2,32.76-35.59,2.22,4.74,75.89h179.2l-4.8-76.78-35.23,2.21-2-32.76L326.1,76.91l2,32.76-35.59,2.22,4.95,79.16H501.94l-6.06-96.86,32.4-2L579.45,149,572.23,33.53H538.08a41.49,41.49,0,0,1,2.26,11.4c.73,11.68-2.91,21.68-11.11,29.84-8,8.14-19.12,12.57-33.29,13.46L477,89.41l2.7,43.2L441.63,135,435.29,33.53H11.39V86.28Zm356.2-31.51,59,121.45-40.9,2.56-10.31-22.65-40.37,2.53-7.58,23.76-39.3,2.45,43.2-127.83ZM176.06,49.19l59,121.45-40.9,2.56-10.31-22.65-40.37,2.53-7.58,23.76-39.3,2.45,43.2-127.83Z"/></g></svg>