<svg id="Layer_1" data-name="Layer 1" xmlns="http://www.w3.org/2000/svg" viewBox="0 0 299.24 47.63"><polygon points="110.07 19.5 107.84 28.56 113.36 28.22 110.07 19.5"/><path d="M144,1.59l-4.17.26.42,6.7,4.17-.26c2.36-.15,3.88-1.64,3.75-3.62S146.34,1.45,144,1.59Z"/><path d="M298.5,1.73a7,7,0,0,1-1.21,4.65,9.28,9.28,0,0,1-2.84,2.76,8.61,8.61,0,0,1,4.79,2.73V0h-1A10.47,10.47,0,0,1,298.5,1.73Z"/><path d="M286.28,21.2c2.09-.13,3.36-1.39,3.24-3.26a3.18,3.18,0,0,0-3.63-3l-6.05.38.39,6.21Z"/><path d="M287.76,4.39a2.59,2.59,0,0,0-2.9-2.45L279,2.31l.31,5L285.18,7A2.56,2.56,0,0,0,287.76,4.39Z"/><polygon points="44.94 18.26 42.71 27.32 48.23 26.98 44.94 18.26"/><polygon points="158.74 36.93 159.41 47.63 168.46 47.63 158.74 36.93"/><path d="M250.81,17a8.17,8.17,0,0,0-11.88.74,9.09,9.09,0,0,0-2,6.58,9.32,9.32,0,0,0,2.76,6.33,8.3,8.3,0,0,0,11.89-.75,9.28,9.28,0,0,0,1.95-6.62A9,9,0,0,0,250.81,17Z"/><path d="M298.88,26.7c-2.39,2.14-5.65,3.37-9.77,3.63L269.3,31.56,267.33,0H196.62l.7,11.18,11.46-.72L208.25,2l11.52-.72,2.34,37.48-11.51.71-1.19-19L198,21.19,198.87,36l-11.51.72L185.07,0h-4.5l1,16.15,1.27,20.43.69,11.05h115.7V26.37Zm-38.4,10a21,21,0,0,1-28.75,1.75A18.82,18.82,0,0,1,225.19,25,18.74,18.74,0,0,1,230,10.91a20.94,20.94,0,0,1,28.75-1.8,18.71,18.71,0,0,1,6.54,13.4A18.84,18.84,0,0,1,260.48,36.68Z"/><polygon points="7.83 25.41 0 25.9 0 47.63 9.22 47.63 7.83 25.41"/><path d="M7.21,15.5l22.27-1.39L30.1,24l-10.76.68,1.44,22.94H75L73.51,24.42l-10.65.66-.62-9.9,32.93-2.06L95.79,23,85,23.7l1.5,23.93h61.82l-1.83-29.29,9.8-.61,15.47,17.19L169.59,0H159.27A13,13,0,0,1,160,3.45a11.18,11.18,0,0,1-3.36,9c-2.42,2.47-5.78,3.8-10.06,4.07l-5.73.36L141.61,30l-11.51.72L128.18,0H0V16ZM114.92,6,132.75,42.7l-12.37.77-3.11-6.84-12.21.76-2.29,7.18-11.89.75L104,6.66ZM49.79,4.74,67.62,41.46l-12.36.78-3.12-6.85-12.21.76-2.29,7.19-11.89.74L38.82,5.42Z"/></svg>