<svg id="Layer_1" data-name="Layer 1" xmlns="http://www.w3.org/2000/svg" viewBox="0 0 1459.06 785.89"><defs><style>.cls-1{fill:#f8b133;}</style></defs><polygon class="cls-1" points="-3.21 41.48 -38.58 34.83 -23.64 -4.45 11.73 2.21 -3.21 41.48"/><polygon points="32.17 48.14 -3.21 41.48 11.73 2.21 47.11 8.87 32.17 48.14"/><polygon class="cls-1" points="67.55 54.8 32.17 48.14 47.11 8.87 82.49 15.53 67.55 54.8"/><polygon points="102.93 61.46 67.55 54.8 82.49 15.53 117.87 22.18 102.93 61.46"/><polygon class="cls-1" points="138.31 68.12 102.93 61.46 117.87 22.18 153.25 28.84 138.31 68.12"/><polygon points="173.69 74.78 138.31 68.12 153.25 28.84 188.63 35.5 173.69 74.78"/><polygon class="cls-1" points="209.07 81.43 173.69 74.78 188.63 35.5 224.01 42.16 209.07 81.43"/><polygon points="244.45 88.09 209.07 81.43 224.01 42.16 259.39 48.82 244.45 88.09"/><polygon class="cls-1" points="279.83 94.75 244.45 88.09 259.39 48.82 294.77 55.48 279.83 94.75"/><polygon points="315.2 101.41 279.83 94.75 294.77 55.48 330.14 62.13 315.2 101.41"/><polygon class="cls-1" points="350.58 108.07 315.2 101.41 330.14 62.13 365.52 68.79 350.58 108.07"/><polygon points="385.96 114.73 350.58 108.07 365.52 68.79 400.9 75.45 385.96 114.73"/><polygon class="cls-1" points="421.34 121.38 385.96 114.73 400.9 75.45 436.28 82.11 421.34 121.38"/><polygon points="456.72 128.04 421.34 121.38 436.28 82.11 471.66 88.77 456.72 128.04"/><polygon class="cls-1" points="492.1 134.7 456.72 128.04 471.66 88.77 507.04 95.42 492.1 134.7"/><polygon points="527.48 141.36 492.1 134.7 507.04 95.42 542.42 102.08 527.48 141.36"/><polygon class="cls-1" points="562.86 148.02 527.48 141.36 542.42 102.08 577.8 108.74 562.86 148.02"/><polygon points="598.24 154.68 562.86 148.02 577.8 108.74 613.18 115.4 598.24 154.68"/><polygon class="cls-1" points="633.61 161.33 598.23 154.67 613.17 115.4 648.55 122.06 633.61 161.33"/><polygon points="668.99 167.99 633.61 161.33 648.55 122.06 683.93 128.71 668.99 167.99"/><polygon class="cls-1" points="704.37 174.65 668.99 167.99 683.93 128.71 719.31 135.37 704.37 174.65"/><polygon points="739.75 181.31 704.37 174.65 719.31 135.37 754.69 142.03 739.75 181.31"/><polygon class="cls-1" points="775.13 187.97 739.75 181.31 754.69 142.03 790.07 148.69 775.13 187.97"/><polygon points="810.51 194.62 775.13 187.97 790.07 148.69 825.45 155.35 810.51 194.62"/><polygon class="cls-1" points="845.89 201.28 810.51 194.62 825.45 155.35 860.83 162 845.89 201.28"/><polygon points="881.26 207.94 845.89 201.28 860.83 162 896.21 168.66 881.26 207.94"/><polygon class="cls-1" points="916.64 214.6 881.26 207.94 896.21 168.66 931.58 175.32 916.64 214.6"/><polygon points="952.02 221.26 916.64 214.6 931.58 175.32 966.96 181.98 952.02 221.26"/><polygon class="cls-1" points="987.4 227.91 952.02 221.26 966.96 181.98 1002.34 188.64 987.4 227.91"/><polygon points="1022.78 234.57 987.4 227.91 1002.34 188.64 1037.72 195.3 1022.78 234.57"/><polygon class="cls-1" points="1058.16 241.23 1022.78 234.57 1037.72 195.3 1073.1 201.96 1058.16 241.23"/><polygon points="1093.54 247.89 1058.16 241.23 1073.1 201.96 1108.48 208.61 1093.54 247.89"/><polygon class="cls-1" points="1128.92 254.55 1093.54 247.89 1108.48 208.61 1143.86 215.27 1128.92 254.55"/><polygon points="1164.3 261.21 1128.92 254.55 1143.86 215.27 1179.24 221.93 1164.3 261.21"/><polygon class="cls-1" points="1199.68 267.86 1164.3 261.21 1179.24 221.93 1214.62 228.59 1199.68 267.86"/><polygon points="1235.05 274.52 1199.68 267.86 1214.62 228.59 1249.99 235.25 1235.05 274.52"/><polygon class="cls-1" points="1270.43 281.18 1235.05 274.52 1249.99 235.25 1285.37 241.91 1270.43 281.18"/><polygon points="1305.81 287.84 1270.43 281.18 1285.37 241.91 1320.75 248.56 1305.81 287.84"/><polygon class="cls-1" points="1341.19 294.5 1305.81 287.84 1320.75 248.56 1356.13 255.22 1341.19 294.5"/><polygon points="1376.57 301.16 1341.19 294.5 1356.13 255.22 1391.51 261.88 1376.57 301.16"/><polygon class="cls-1" points="1411.95 307.81 1376.57 301.16 1391.51 261.88 1426.89 268.54 1411.95 307.81"/><polygon points="1447.33 314.47 1411.95 307.81 1426.89 268.54 1462.27 275.2 1447.33 314.47"/><polygon class="cls-1" points="1482.71 321.13 1447.33 314.47 1462.27 275.2 1497.65 281.85 1482.71 321.13"/><polygon points="-11.31 395.58 -46.11 386.35 -28.32 348.27 6.47 357.51 -11.31 395.58"/><polygon class="cls-1" points="23.48 404.82 -11.31 395.58 6.47 357.51 41.27 366.75 23.48 404.82"/><polygon points="58.28 414.06 23.48 404.82 41.27 366.75 76.06 375.98 58.28 414.06"/><polygon class="cls-1" points="93.07 423.29 58.28 414.06 76.06 375.98 110.86 385.22 93.07 423.29"/><polygon points="127.87 432.53 93.07 423.29 110.86 385.22 145.65 394.45 127.87 432.53"/><polygon class="cls-1" points="162.66 441.77 127.87 432.53 145.65 394.45 180.45 403.69 162.66 441.77"/><polygon points="197.46 451 162.66 441.77 180.45 403.69 215.24 412.93 197.46 451"/><polygon class="cls-1" points="232.25 460.24 197.46 451 215.24 412.93 250.04 422.17 232.25 460.24"/><polygon points="267.05 469.48 232.25 460.24 250.04 422.17 284.83 431.4 267.05 469.48"/><polygon class="cls-1" points="301.84 478.71 267.05 469.48 284.83 431.4 319.63 440.64 301.84 478.71"/><polygon points="336.64 487.95 301.84 478.71 319.63 440.64 354.42 449.87 336.64 487.95"/><polygon class="cls-1" points="371.43 497.18 336.64 487.95 354.42 449.87 389.22 459.11 371.43 497.18"/><polygon points="406.23 506.42 371.43 497.18 389.22 459.11 424.01 468.35 406.23 506.42"/><polygon class="cls-1" points="441.02 515.66 406.23 506.42 424.01 468.35 458.81 477.58 441.02 515.66"/><polygon points="475.82 524.89 441.02 515.66 458.81 477.58 493.6 486.82 475.82 524.89"/><polygon class="cls-1" points="510.61 534.13 475.82 524.89 493.6 486.82 528.4 496.06 510.61 534.13"/><polygon points="545.41 543.37 510.61 534.13 528.4 496.06 563.19 505.29 545.41 543.37"/><polygon class="cls-1" points="580.2 552.6 545.41 543.37 563.19 505.29 597.99 514.53 580.2 552.6"/><polygon points="615 561.84 580.2 552.6 597.99 514.53 632.78 523.76 615 561.84"/><polygon class="cls-1" points="649.79 571.07 615 561.84 632.78 523.76 667.57 533 649.79 571.07"/><polygon points="684.59 580.31 649.79 571.07 667.57 533 702.37 542.24 684.59 580.31"/><polygon class="cls-1" points="719.38 589.55 684.59 580.31 702.37 542.24 737.16 551.47 719.38 589.55"/><polygon points="754.18 598.78 719.38 589.55 737.16 551.47 771.96 560.71 754.18 598.78"/><polygon class="cls-1" points="788.97 608.02 754.18 598.78 771.96 560.71 806.75 569.95 788.97 608.02"/><polygon points="823.77 617.25 788.97 608.02 806.75 569.95 841.55 579.18 823.77 617.25"/><polygon class="cls-1" points="858.56 626.49 823.77 617.25 841.55 579.18 876.34 588.42 858.56 626.49"/><polygon points="893.36 635.73 858.56 626.49 876.34 588.42 911.14 597.65 893.36 635.73"/><polygon class="cls-1" points="928.15 644.96 893.36 635.73 911.14 597.65 945.93 606.89 928.15 644.96"/><polygon points="962.95 654.2 928.15 644.96 945.93 606.89 980.73 616.13 962.95 654.2"/><polygon class="cls-1" points="997.74 663.44 962.95 654.2 980.73 616.13 1015.52 625.36 997.74 663.44"/><polygon points="1032.54 672.67 997.74 663.44 1015.52 625.36 1050.32 634.6 1032.54 672.67"/><polygon class="cls-1" points="1067.33 681.91 1032.54 672.67 1050.32 634.6 1085.11 643.84 1067.33 681.91"/><polygon points="1102.13 691.15 1067.33 681.91 1085.11 643.84 1119.91 653.07 1102.13 691.15"/><polygon class="cls-1" points="1136.92 700.38 1102.13 691.15 1119.91 653.07 1154.7 662.31 1136.92 700.38"/><polygon points="1171.72 709.62 1136.92 700.38 1154.7 662.31 1189.5 671.54 1171.72 709.62"/><polygon class="cls-1" points="1206.51 718.86 1171.72 709.62 1189.5 671.54 1224.29 680.78 1206.51 718.86"/><polygon points="1241.31 728.09 1206.51 718.86 1224.29 680.78 1259.09 690.02 1241.31 728.09"/><polygon class="cls-1" points="1276.1 737.33 1241.31 728.09 1259.09 690.02 1293.88 699.25 1276.1 737.33"/><polygon points="1310.9 746.56 1276.1 737.33 1293.88 699.25 1328.68 708.49 1310.9 746.56"/><polygon class="cls-1" points="1345.69 755.8 1310.9 746.56 1328.68 708.49 1363.47 717.73 1345.69 755.8"/><polygon points="1380.49 765.04 1345.69 755.8 1363.47 717.73 1398.27 726.96 1380.49 765.04"/><polygon class="cls-1" points="1415.28 774.27 1380.49 765.04 1398.27 726.96 1433.06 736.2 1415.28 774.27"/><polygon points="1450.08 783.51 1415.28 774.27 1433.06 736.2 1467.86 745.44 1450.08 783.51"/><polygon class="cls-1" points="1484.87 792.75 1450.08 783.51 1467.86 745.44 1502.65 754.67 1484.87 792.75"/><polygon points="18.24 574.5 -17.39 579.67 -15.99 537.68 19.64 532.51 18.24 574.5"/><polygon class="cls-1" points="53.87 569.33 18.24 574.5 19.64 532.51 55.27 527.33 53.87 569.33"/><polygon points="89.49 564.16 53.87 569.33 55.27 527.33 90.89 522.16 89.49 564.16"/><polygon class="cls-1" points="125.12 558.99 89.49 564.16 90.89 522.16 126.52 516.99 125.12 558.99"/><polygon points="160.75 553.82 125.12 558.99 126.52 516.99 162.15 511.82 160.75 553.82"/><polygon class="cls-1" points="196.37 548.65 160.75 553.82 162.15 511.82 197.77 506.65 196.37 548.65"/><polygon points="232 543.48 196.37 548.65 197.77 506.65 233.4 501.48 232 543.48"/><polygon class="cls-1" points="267.63 538.31 232 543.48 233.4 501.48 269.02 496.31 267.63 538.31"/><polygon points="303.25 533.13 267.63 538.31 269.02 496.31 304.65 491.14 303.25 533.13"/><polygon class="cls-1" points="338.88 527.96 303.25 533.13 304.65 491.14 340.28 485.96 338.88 527.96"/><polygon points="374.5 522.79 338.88 527.96 340.28 485.96 375.9 480.79 374.5 522.79"/><polygon class="cls-1" points="410.13 517.62 374.5 522.79 375.9 480.79 411.53 475.62 410.13 517.62"/><polygon points="445.76 512.45 410.13 517.62 411.53 475.62 447.16 470.45 445.76 512.45"/><polygon class="cls-1" points="481.38 507.28 445.76 512.45 447.16 470.45 482.79 465.28 481.38 507.28"/><polygon points="517.01 502.11 481.38 507.28 482.79 465.28 518.41 460.11 517.01 502.11"/><polygon class="cls-1" points="552.64 496.94 517.01 502.11 518.41 460.11 554.04 454.94 552.64 496.94"/><polygon points="588.26 491.77 552.64 496.94 554.04 454.94 589.66 449.77 588.26 491.77"/><polygon class="cls-1" points="623.89 486.59 588.26 491.76 589.66 449.77 625.29 444.6 623.89 486.59"/><polygon points="659.51 481.42 623.89 486.59 625.29 444.6 660.91 439.42 659.51 481.42"/><polygon class="cls-1" points="695.14 476.25 659.51 481.42 660.91 439.42 696.54 434.25 695.14 476.25"/><polygon points="730.77 471.08 695.14 476.25 696.54 434.25 732.17 429.08 730.77 471.08"/><polygon class="cls-1" points="766.39 465.91 730.77 471.08 732.17 429.08 767.79 423.91 766.39 465.91"/><polygon points="802.02 460.74 766.39 465.91 767.79 423.91 803.42 418.74 802.02 460.74"/><polygon class="cls-1" points="837.65 455.57 802.02 460.74 803.42 418.74 839.05 413.57 837.65 455.57"/><polygon points="873.27 450.4 837.65 455.57 839.05 413.57 874.67 408.4 873.27 450.4"/><polygon class="cls-1" points="908.9 445.23 873.27 450.4 874.67 408.4 910.3 403.23 908.9 445.23"/><polygon points="944.53 440.05 908.9 445.23 910.3 403.23 945.93 398.06 944.53 440.05"/><polygon class="cls-1" points="980.15 434.88 944.53 440.05 945.93 398.06 981.55 392.88 980.15 434.88"/><polygon points="1015.78 429.71 980.15 434.88 981.55 392.88 1017.18 387.71 1015.78 429.71"/><polygon class="cls-1" points="1051.41 424.54 1015.78 429.71 1017.18 387.71 1052.81 382.54 1051.41 424.54"/><polygon points="1087.04 419.37 1051.41 424.54 1052.81 382.54 1088.43 377.37 1087.04 419.37"/><polygon class="cls-1" points="1122.66 414.2 1087.04 419.37 1088.43 377.37 1124.06 372.2 1122.66 414.2"/><polygon points="1158.29 409.03 1122.66 414.2 1124.06 372.2 1159.69 367.03 1158.29 409.03"/><polygon class="cls-1" points="1193.91 403.86 1158.29 409.03 1159.69 367.03 1195.32 361.86 1193.91 403.86"/><polygon points="1229.54 398.69 1193.91 403.86 1195.32 361.86 1230.94 356.69 1229.54 398.69"/><polygon class="cls-1" points="1265.17 393.51 1229.54 398.69 1230.94 356.69 1266.57 351.51 1265.17 393.51"/><polygon points="1300.8 388.34 1265.17 393.51 1266.57 351.51 1302.19 346.34 1300.8 388.34"/><polygon class="cls-1" points="1336.42 383.17 1300.8 388.34 1302.19 346.34 1337.82 341.17 1336.42 383.17"/><polygon points="1372.05 378 1336.42 383.17 1337.82 341.17 1373.45 336 1372.05 378"/><polygon class="cls-1" points="1407.67 372.83 1372.05 378 1373.45 336 1409.08 330.83 1407.67 372.83"/><polygon points="1443.3 367.66 1407.67 372.83 1409.08 330.83 1444.7 325.66 1443.3 367.66"/><polygon class="cls-1" points="1478.93 362.49 1443.3 367.66 1444.7 325.66 1480.33 320.49 1478.93 362.49"/></svg>