<svg id="Layer_1" data-name="Layer 1" xmlns="http://www.w3.org/2000/svg" viewBox="0 0 1920 1080"><defs><style>.cls-1{fill:#f8b133;}</style></defs><polygon class="cls-1" points="-9.11 48.36 -44.49 41.7 -29.55 2.43 5.83 9.09 -9.11 48.36"/><polygon points="26.27 55.02 -9.11 48.36 5.83 9.09 41.21 15.74 26.27 55.02"/><polygon class="cls-1" points="61.65 61.68 26.27 55.02 41.21 15.74 76.59 22.4 61.65 61.68"/><polygon points="97.03 68.34 61.65 61.68 76.59 22.4 111.97 29.06 97.03 68.34"/><polygon class="cls-1" points="132.41 75 97.03 68.34 111.97 29.06 147.34 35.72 132.41 75"/><polygon points="167.78 81.65 132.41 75 147.34 35.72 182.72 42.38 167.78 81.65"/><polygon class="cls-1" points="203.16 88.31 167.78 81.65 182.72 42.38 218.1 49.04 203.16 88.31"/><polygon points="238.54 94.97 203.16 88.31 218.1 49.04 253.48 55.69 238.54 94.97"/><polygon class="cls-1" points="273.92 101.63 238.54 94.97 253.48 55.69 288.86 62.35 273.92 101.63"/><polygon points="309.3 108.29 273.92 101.63 288.86 62.35 324.24 69.01 309.3 108.29"/><polygon class="cls-1" points="344.68 114.94 309.3 108.29 324.24 69.01 359.62 75.67 344.68 114.94"/><polygon points="380.06 121.6 344.68 114.94 359.62 75.67 395 82.33 380.06 121.6"/><polygon class="cls-1" points="415.44 128.26 380.06 121.6 395 82.33 430.38 88.99 415.44 128.26"/><polygon points="450.81 134.92 415.44 128.26 430.38 88.99 465.75 95.64 450.81 134.92"/><polygon class="cls-1" points="486.19 141.58 450.81 134.92 465.75 95.64 501.13 102.3 486.19 141.58"/><polygon points="521.57 148.24 486.19 141.58 501.13 102.3 536.51 108.96 521.57 148.24"/><polygon class="cls-1" points="556.95 154.9 521.57 148.24 536.51 108.96 571.89 115.62 556.95 154.9"/><polygon points="592.33 161.55 556.95 154.9 571.89 115.62 607.27 122.28 592.33 161.55"/><polygon class="cls-1" points="627.71 168.21 592.33 161.55 607.27 122.28 642.65 128.94 627.71 168.21"/><polygon points="663.09 174.87 627.71 168.21 642.65 128.94 678.03 135.59 663.09 174.87"/><polygon class="cls-1" points="698.47 181.53 663.09 174.87 678.03 135.59 713.41 142.25 698.47 181.53"/><polygon points="733.85 188.19 698.47 181.53 713.41 142.25 748.79 148.91 733.85 188.19"/><polygon class="cls-1" points="769.23 194.84 733.85 188.19 748.79 148.91 784.16 155.57 769.23 194.84"/><polygon points="804.6 201.5 769.23 194.84 784.16 155.57 819.54 162.23 804.6 201.5"/><polygon class="cls-1" points="839.98 208.16 804.6 201.5 819.54 162.23 854.92 168.88 839.98 208.16"/><polygon points="875.36 214.82 839.98 208.16 854.92 168.88 890.3 175.54 875.36 214.82"/><polygon class="cls-1" points="910.74 221.48 875.36 214.82 890.3 175.54 925.68 182.2 910.74 221.48"/><polygon points="946.12 228.14 910.74 221.48 925.68 182.2 961.06 188.86 946.12 228.14"/><polygon class="cls-1" points="981.5 234.79 946.12 228.13 961.06 188.86 996.44 195.52 981.5 234.79"/><polygon points="1016.88 241.45 981.5 234.79 996.44 195.52 1031.82 202.18 1016.88 241.45"/><polygon class="cls-1" points="1052.25 248.11 1016.88 241.45 1031.82 202.18 1067.19 208.83 1052.25 248.11"/><polygon points="1087.63 254.77 1052.25 248.11 1067.19 208.83 1102.57 215.49 1087.63 254.77"/><polygon class="cls-1" points="1123.01 261.43 1087.63 254.77 1102.57 215.49 1137.95 222.15 1123.01 261.43"/><polygon points="1158.39 268.08 1123.01 261.43 1137.95 222.15 1173.33 228.81 1158.39 268.08"/><polygon class="cls-1" points="1193.77 274.74 1158.39 268.08 1173.33 228.81 1208.71 235.47 1193.77 274.74"/><polygon points="1229.15 281.4 1193.77 274.74 1208.71 235.47 1244.09 242.12 1229.15 281.4"/><polygon class="cls-1" points="1264.53 288.06 1229.15 281.4 1244.09 242.12 1279.47 248.78 1264.53 288.06"/><polygon points="1299.91 294.72 1264.53 288.06 1279.47 248.78 1314.85 255.44 1299.91 294.72"/><polygon class="cls-1" points="1335.29 301.38 1299.91 294.72 1314.85 255.44 1350.23 262.1 1335.29 301.38"/><polygon points="1370.66 308.03 1335.29 301.38 1350.23 262.1 1385.61 268.76 1370.66 308.03"/><polygon class="cls-1" points="1406.04 314.69 1370.66 308.03 1385.61 268.76 1420.98 275.42 1406.04 314.69"/><polygon points="1441.42 321.35 1406.04 314.69 1420.98 275.42 1456.36 282.07 1441.42 321.35"/><polygon class="cls-1" points="1476.8 328.01 1441.42 321.35 1456.36 282.07 1491.74 288.73 1476.8 328.01"/><polygon points="1512.18 334.67 1476.8 328.01 1491.74 288.73 1527.12 295.39 1512.18 334.67"/><polygon class="cls-1" points="1547.56 341.32 1512.18 334.67 1527.12 295.39 1562.5 302.05 1547.56 341.32"/><polygon points="1582.94 347.98 1547.56 341.32 1562.5 302.05 1597.88 308.71 1582.94 347.98"/><polygon class="cls-1" points="1618.32 354.64 1582.94 347.98 1597.88 308.71 1633.26 315.37 1618.32 354.64"/><polygon points="1653.7 361.3 1618.32 354.64 1633.26 315.37 1668.64 322.02 1653.7 361.3"/><polygon class="cls-1" points="1689.08 367.96 1653.7 361.3 1668.64 322.02 1704.02 328.68 1689.08 367.96"/><polygon points="1724.45 374.62 1689.08 367.96 1704.02 328.68 1739.39 335.34 1724.45 374.62"/><polygon class="cls-1" points="1759.83 381.27 1724.45 374.62 1739.39 335.34 1774.77 342 1759.83 381.27"/><polygon points="1795.21 387.93 1759.83 381.27 1774.77 342 1810.15 348.66 1795.21 387.93"/><polygon class="cls-1" points="1830.59 394.59 1795.21 387.93 1810.15 348.66 1845.53 355.31 1830.59 394.59"/><polygon points="1865.97 401.25 1830.59 394.59 1845.53 355.31 1880.91 361.97 1865.97 401.25"/><polygon class="cls-1" points="1901.35 407.91 1865.97 401.25 1880.91 361.97 1916.29 368.63 1901.35 407.91"/><polygon points="1936.73 414.57 1901.35 407.91 1916.29 368.63 1951.67 375.29 1936.73 414.57"/><polygon points="9.92 214.12 -24.57 203.79 -5.6 166.3 28.88 176.62 9.92 214.12"/><polygon class="cls-1" points="44.4 224.44 9.92 214.12 28.88 176.62 63.37 186.95 44.4 224.44"/><polygon points="78.89 234.77 44.4 224.44 63.37 186.95 97.86 197.27 78.89 234.77"/><polygon class="cls-1" points="113.38 245.09 78.89 234.77 97.86 197.27 132.35 207.59 113.38 245.09"/><polygon points="147.87 255.41 113.38 245.09 132.35 207.59 166.84 217.92 147.87 255.41"/><polygon class="cls-1" points="182.35 265.74 147.87 255.41 166.84 217.92 201.32 228.24 182.35 265.74"/><polygon points="216.84 276.06 182.35 265.74 201.32 228.24 235.81 238.57 216.84 276.06"/><polygon class="cls-1" points="251.33 286.39 216.84 276.06 235.81 238.57 270.3 248.89 251.33 286.39"/><polygon points="285.82 296.71 251.33 286.39 270.3 248.89 304.79 259.21 285.82 296.71"/><polygon class="cls-1" points="320.31 307.04 285.82 296.71 304.79 259.21 339.27 269.54 320.31 307.04"/><polygon points="354.8 317.36 320.31 307.04 339.27 269.54 373.76 279.86 354.8 317.36"/><polygon class="cls-1" points="389.28 327.68 354.8 317.36 373.76 279.86 408.25 290.19 389.28 327.68"/><polygon points="423.77 338.01 389.28 327.68 408.25 290.19 442.74 300.51 423.77 338.01"/><polygon class="cls-1" points="458.26 348.33 423.77 338.01 442.74 300.51 477.23 310.83 458.26 348.33"/><polygon points="492.75 358.65 458.26 348.33 477.23 310.83 511.71 321.16 492.75 358.65"/><polygon class="cls-1" points="527.24 368.98 492.75 358.65 511.71 321.16 546.2 331.48 527.24 368.98"/><polygon points="561.72 379.3 527.24 368.98 546.2 331.48 580.69 341.81 561.72 379.3"/><polygon class="cls-1" points="596.21 389.63 561.72 379.3 580.69 341.81 615.18 352.13 596.21 389.63"/><polygon points="630.7 399.95 596.21 389.63 615.18 352.13 649.67 362.45 630.7 399.95"/><polygon class="cls-1" points="665.19 410.27 630.7 399.95 649.67 362.45 684.15 372.78 665.19 410.27"/><polygon points="699.67 420.6 665.19 410.27 684.15 372.78 718.64 383.1 699.67 420.6"/><polygon class="cls-1" points="734.16 430.92 699.67 420.6 718.64 383.1 753.13 393.43 734.16 430.92"/><polygon points="768.65 441.25 734.16 430.92 753.13 393.43 787.62 403.75 768.65 441.25"/><polygon class="cls-1" points="803.14 451.57 768.65 441.25 787.62 403.75 822.11 414.07 803.14 451.57"/><polygon points="837.63 461.89 803.14 451.57 822.11 414.07 856.59 424.4 837.63 461.89"/><polygon class="cls-1" points="872.11 472.22 837.63 461.89 856.59 424.4 891.08 434.72 872.11 472.22"/><polygon points="906.6 482.54 872.11 472.22 891.08 434.72 925.57 445.05 906.6 482.54"/><polygon class="cls-1" points="941.09 492.87 906.6 482.54 925.57 445.05 960.06 455.37 941.09 492.87"/><polygon points="975.58 503.19 941.09 492.87 960.06 455.37 994.55 465.69 975.58 503.19"/><polygon class="cls-1" points="1010.07 513.51 975.58 503.19 994.55 465.69 1029.03 476.02 1010.07 513.51"/><polygon points="1044.55 523.84 1010.07 513.51 1029.03 476.02 1063.52 486.34 1044.55 523.84"/><polygon class="cls-1" points="1079.04 534.16 1044.55 523.84 1063.52 486.34 1098.01 496.67 1079.04 534.16"/><polygon points="1113.53 544.49 1079.04 534.16 1098.01 496.67 1132.5 506.99 1113.53 544.49"/><polygon class="cls-1" points="1148.02 554.81 1113.53 544.48 1132.49 506.99 1166.98 517.31 1148.02 554.81"/><polygon points="1182.5 565.13 1148.02 554.81 1166.98 517.31 1201.47 527.63 1182.5 565.13"/><polygon class="cls-1" points="1216.99 575.46 1182.5 565.13 1201.47 527.63 1235.96 537.96 1216.99 575.46"/><polygon points="1251.48 585.78 1216.99 575.46 1235.96 537.96 1270.45 548.28 1251.48 585.78"/><polygon class="cls-1" points="1285.97 596.1 1251.48 585.78 1270.45 548.28 1304.93 558.61 1285.97 596.1"/><polygon points="1320.45 606.43 1285.97 596.1 1304.93 558.61 1339.42 568.93 1320.45 606.43"/><polygon class="cls-1" points="1354.94 616.75 1320.45 606.43 1339.42 568.93 1373.91 579.25 1354.94 616.75"/><polygon points="1389.43 627.08 1354.94 616.75 1373.91 579.25 1408.4 589.58 1389.43 627.08"/><polygon class="cls-1" points="1423.92 637.4 1389.43 627.08 1408.4 589.58 1442.89 599.9 1423.92 637.4"/><polygon points="1458.41 647.72 1423.92 637.4 1442.89 599.9 1477.37 610.23 1458.41 647.72"/><polygon class="cls-1" points="1492.89 658.05 1458.41 647.72 1477.37 610.23 1511.86 620.55 1492.89 658.05"/><polygon points="1527.38 668.37 1492.89 658.05 1511.86 620.55 1546.35 630.88 1527.38 668.37"/><polygon class="cls-1" points="1561.87 678.7 1527.38 668.37 1546.35 630.88 1580.84 641.2 1561.87 678.7"/><polygon points="1596.36 689.02 1561.87 678.7 1580.84 641.2 1615.33 651.52 1596.36 689.02"/><polygon class="cls-1" points="1630.85 699.34 1596.36 689.02 1615.33 651.52 1649.81 661.85 1630.85 699.34"/><polygon points="1665.33 709.67 1630.85 699.34 1649.81 661.85 1684.3 672.17 1665.33 709.67"/><polygon class="cls-1" points="1699.82 719.99 1665.33 709.67 1684.3 672.17 1718.79 682.5 1699.82 719.99"/><polygon points="1734.31 730.32 1699.82 719.99 1718.79 682.5 1753.28 692.82 1734.31 730.32"/><polygon class="cls-1" points="1768.8 740.64 1734.31 730.32 1753.28 692.82 1787.77 703.14 1768.8 740.64"/><polygon points="1803.29 750.96 1768.8 740.64 1787.77 703.14 1822.25 713.47 1803.29 750.96"/><polygon class="cls-1" points="1837.77 761.29 1803.29 750.96 1822.25 713.47 1856.74 723.79 1837.77 761.29"/><polygon points="1872.26 771.61 1837.77 761.29 1856.74 723.79 1891.23 734.12 1872.26 771.61"/><polygon class="cls-1" points="1906.75 781.94 1872.26 771.61 1891.23 734.12 1925.72 744.44 1906.75 781.94"/><polygon points="1941.24 792.26 1906.75 781.94 1925.72 744.44 1960.2 754.76 1941.24 792.26"/><polygon points="9.86 699.68 -25.77 704.85 -24.37 662.85 11.26 657.68 9.86 699.68"/><polygon class="cls-1" points="45.48 694.5 9.86 699.68 11.26 657.68 46.88 652.51 45.48 694.5"/><polygon points="81.11 689.33 45.48 694.5 46.88 652.51 82.51 647.34 81.11 689.33"/><polygon class="cls-1" points="116.73 684.16 81.11 689.33 82.51 647.34 118.14 642.16 116.73 684.16"/><polygon points="152.36 678.99 116.73 684.16 118.14 642.16 153.76 636.99 152.36 678.99"/><polygon class="cls-1" points="187.99 673.82 152.36 678.99 153.76 636.99 189.39 631.82 187.99 673.82"/><polygon points="223.62 668.65 187.99 673.82 189.39 631.82 225.01 626.65 223.62 668.65"/><polygon class="cls-1" points="259.24 663.48 223.62 668.65 225.01 626.65 260.64 621.48 259.24 663.48"/><polygon points="294.87 658.31 259.24 663.48 260.64 621.48 296.27 616.31 294.87 658.31"/><polygon class="cls-1" points="330.5 653.14 294.87 658.31 296.27 616.31 331.89 611.14 330.5 653.14"/><polygon points="366.12 647.96 330.5 653.14 331.89 611.14 367.52 605.97 366.12 647.96"/><polygon class="cls-1" points="401.75 642.79 366.12 647.96 367.52 605.97 403.15 600.79 401.75 642.79"/><polygon points="437.38 637.62 401.75 642.79 403.15 600.79 438.77 595.62 437.38 637.62"/><polygon class="cls-1" points="473 632.45 437.38 637.62 438.77 595.62 474.4 590.45 473 632.45"/><polygon points="508.63 627.28 473 632.45 474.4 590.45 510.03 585.28 508.63 627.28"/><polygon class="cls-1" points="544.25 622.11 508.63 627.28 510.03 585.28 545.65 580.11 544.25 622.11"/><polygon points="579.88 616.94 544.25 622.11 545.65 580.11 581.28 574.94 579.88 616.94"/><polygon class="cls-1" points="615.51 611.77 579.88 616.94 581.28 574.94 616.91 569.77 615.51 611.77"/><polygon points="651.13 606.6 615.51 611.77 616.91 569.77 652.53 564.6 651.13 606.6"/><polygon class="cls-1" points="686.76 601.42 651.13 606.6 652.53 564.6 688.16 559.43 686.76 601.42"/><polygon points="722.39 596.25 686.76 601.42 688.16 559.43 723.79 554.25 722.39 596.25"/><polygon class="cls-1" points="758.01 591.08 722.39 596.25 723.79 554.25 759.41 549.08 758.01 591.08"/><polygon points="793.64 585.91 758.01 591.08 759.41 549.08 795.04 543.91 793.64 585.91"/><polygon class="cls-1" points="829.27 580.74 793.64 585.91 795.04 543.91 830.67 538.74 829.27 580.74"/><polygon points="864.89 575.57 829.27 580.74 830.67 538.74 866.29 533.57 864.89 575.57"/><polygon class="cls-1" points="900.52 570.4 864.89 575.57 866.29 533.57 901.92 528.4 900.52 570.4"/><polygon points="936.15 565.23 900.52 570.4 901.92 528.4 937.55 523.23 936.15 565.23"/><polygon class="cls-1" points="971.77 560.05 936.14 565.23 937.54 523.23 973.17 518.06 971.77 560.05"/><polygon points="1007.4 554.88 971.77 560.05 973.17 518.06 1008.8 512.88 1007.4 554.88"/><polygon class="cls-1" points="1043.03 549.71 1007.4 554.88 1008.8 512.88 1044.42 507.71 1043.03 549.71"/><polygon points="1078.65 544.54 1043.03 549.71 1044.42 507.71 1080.05 502.54 1078.65 544.54"/><polygon class="cls-1" points="1114.28 539.37 1078.65 544.54 1080.05 502.54 1115.68 497.37 1114.28 539.37"/><polygon points="1149.9 534.2 1114.28 539.37 1115.68 497.37 1151.31 492.2 1149.9 534.2"/><polygon class="cls-1" points="1185.53 529.03 1149.9 534.2 1151.31 492.2 1186.93 487.03 1185.53 529.03"/><polygon points="1221.16 523.86 1185.53 529.03 1186.93 487.03 1222.56 481.86 1221.16 523.86"/><polygon class="cls-1" points="1256.79 518.68 1221.16 523.86 1222.56 481.86 1258.18 476.69 1256.79 518.68"/><polygon points="1292.41 513.51 1256.79 518.68 1258.18 476.69 1293.81 471.52 1292.41 513.51"/><polygon class="cls-1" points="1328.04 508.34 1292.41 513.51 1293.81 471.52 1329.44 466.35 1328.04 508.34"/><polygon points="1363.66 503.17 1328.04 508.34 1329.44 466.35 1365.07 461.17 1363.66 503.17"/><polygon class="cls-1" points="1399.29 498 1363.66 503.17 1365.07 461.17 1400.69 456 1399.29 498"/><polygon points="1434.92 492.83 1399.29 498 1400.69 456 1436.32 450.83 1434.92 492.83"/><polygon class="cls-1" points="1470.55 487.66 1434.92 492.83 1436.32 450.83 1471.94 445.66 1470.55 487.66"/><polygon points="1506.17 482.49 1470.55 487.66 1471.94 445.66 1507.57 440.49 1506.17 482.49"/><polygon class="cls-1" points="1541.8 477.32 1506.17 482.49 1507.57 440.49 1543.2 435.32 1541.8 477.32"/><polygon points="1577.42 472.14 1541.8 477.32 1543.2 435.32 1578.83 430.15 1577.42 472.14"/><polygon class="cls-1" points="1613.05 466.97 1577.42 472.14 1578.83 430.15 1614.45 424.98 1613.05 466.97"/><polygon points="1648.68 461.8 1613.05 466.97 1614.45 424.98 1650.08 419.8 1648.68 461.8"/><polygon class="cls-1" points="1684.31 456.63 1648.68 461.8 1650.08 419.8 1685.7 414.63 1684.31 456.63"/><polygon points="1719.93 451.46 1684.31 456.63 1685.7 414.63 1721.33 409.46 1719.93 451.46"/><polygon class="cls-1" points="1755.56 446.29 1719.93 451.46 1721.33 409.46 1756.96 404.29 1755.56 446.29"/><polygon points="1791.18 441.12 1755.56 446.29 1756.96 404.29 1792.59 399.12 1791.18 441.12"/><polygon class="cls-1" points="1826.81 435.95 1791.18 441.12 1792.59 399.12 1828.21 393.95 1826.81 435.95"/><polygon points="1862.44 430.78 1826.81 435.95 1828.21 393.95 1863.84 388.78 1862.44 430.78"/><polygon class="cls-1" points="1898.07 425.61 1862.44 430.78 1863.84 388.78 1899.46 383.61 1898.07 425.61"/><polygon points="1933.69 420.43 1898.07 425.61 1899.46 383.61 1935.09 378.44 1933.69 420.43"/></svg>